%TF.GenerationSoftware,KiCad,Pcbnew,5.1.10*%
%TF.CreationDate,2021-06-23T21:46:23+08:00*%
%TF.ProjectId,simplefoc,73696d70-6c65-4666-9f63-2e6b69636164,rev?*%
%TF.SameCoordinates,Original*%
%TF.FileFunction,Copper,L2,Bot*%
%TF.FilePolarity,Positive*%
%FSLAX46Y46*%
G04 Gerber Fmt 4.6, Leading zero omitted, Abs format (unit mm)*
G04 Created by KiCad (PCBNEW 5.1.10) date 2021-06-23 21:46:23*
%MOMM*%
%LPD*%
G01*
G04 APERTURE LIST*
%TA.AperFunction,ComponentPad*%
%ADD10C,4.000000*%
%TD*%
%TA.AperFunction,ComponentPad*%
%ADD11R,2.500000X2.500000*%
%TD*%
%TA.AperFunction,ComponentPad*%
%ADD12C,2.500000*%
%TD*%
%TA.AperFunction,ComponentPad*%
%ADD13C,1.000000*%
%TD*%
%TA.AperFunction,SMDPad,CuDef*%
%ADD14R,11.860000X6.780000*%
%TD*%
%TA.AperFunction,ComponentPad*%
%ADD15R,1.700000X1.700000*%
%TD*%
%TA.AperFunction,ComponentPad*%
%ADD16O,1.700000X1.700000*%
%TD*%
%TA.AperFunction,ViaPad*%
%ADD17C,1.200000*%
%TD*%
%TA.AperFunction,ViaPad*%
%ADD18C,0.800000*%
%TD*%
%TA.AperFunction,Conductor*%
%ADD19C,1.000000*%
%TD*%
%TA.AperFunction,Conductor*%
%ADD20C,0.750000*%
%TD*%
%TA.AperFunction,Conductor*%
%ADD21C,0.250000*%
%TD*%
%TA.AperFunction,Conductor*%
%ADD22C,0.254000*%
%TD*%
%TA.AperFunction,Conductor*%
%ADD23C,0.100000*%
%TD*%
G04 APERTURE END LIST*
D10*
%TO.P,REF\u002A\u002A,1*%
%TO.N,N/C*%
X-88265000Y250190000D03*
%TD*%
%TO.P,REF\u002A\u002A,1*%
%TO.N,N/C*%
X-137795000Y281305000D03*
%TD*%
D11*
%TO.P,J1,1*%
%TO.N,VCC*%
X-89154000Y275082000D03*
D12*
%TO.P,J1,2*%
%TO.N,GND*%
X-89154000Y280082000D03*
%TD*%
D11*
%TO.P,J3,1*%
%TO.N,/PH_A*%
X-136652000Y261340000D03*
D12*
%TO.P,J3,2*%
%TO.N,/PH_B*%
X-136652000Y266340000D03*
%TO.P,J3,3*%
%TO.N,/PH_C*%
X-136652000Y271340000D03*
%TD*%
D13*
%TO.P,U1,21*%
%TO.N,GND*%
X-104640000Y267860000D03*
X-104640000Y266590000D03*
X-104640000Y265320000D03*
X-107180000Y269130000D03*
X-107180000Y267860000D03*
X-107180000Y266590000D03*
X-107180000Y265320000D03*
X-107180000Y264050000D03*
X-109720000Y269130000D03*
X-109720000Y267860000D03*
X-109720000Y266590000D03*
X-109720000Y265320000D03*
X-109720000Y264050000D03*
X-112260000Y269130000D03*
X-112260000Y267860000D03*
X-112260000Y266590000D03*
X-112260000Y265320000D03*
X-112260000Y264050000D03*
X-114800000Y267860000D03*
X-114800000Y266590000D03*
X-114800000Y265320000D03*
D14*
X-109720000Y266590000D03*
%TD*%
D15*
%TO.P,J2,1*%
%TO.N,/VIN*%
X-114300000Y249428000D03*
D16*
%TO.P,J2,2*%
X-116840000Y249428000D03*
%TO.P,J2,3*%
%TO.N,/EN_PIN*%
X-119380000Y249428000D03*
%TO.P,J2,4*%
%TO.N,/IN1_PIN*%
X-121920000Y249428000D03*
%TO.P,J2,5*%
%TO.N,/IN2_PIN*%
X-124460000Y249428000D03*
%TO.P,J2,6*%
%TO.N,/IN3_PIN*%
X-127000000Y249428000D03*
%TO.P,J2,7*%
%TO.N,/C1_OUT*%
X-129540000Y249428000D03*
%TO.P,J2,8*%
%TO.N,/C2_OUT*%
X-132080000Y249428000D03*
%TO.P,J2,9*%
%TO.N,/INA_VCC*%
X-134620000Y249428000D03*
%TO.P,J2,10*%
%TO.N,GND*%
X-137160000Y249428000D03*
%TD*%
D17*
%TO.N,VCC*%
X-120650000Y282010000D03*
D18*
%TO.N,/INA_VCC*%
X-130175000Y266065000D03*
%TO.N,/C1_OUT*%
X-130719990Y257940000D03*
%TO.N,/C2_OUT*%
X-128905000Y268080000D03*
%TO.N,/IN2_PIN*%
X-117480000Y257640000D03*
%TO.N,/IN3_PIN*%
X-107442000Y276860000D03*
D17*
%TO.N,/PH_C*%
X-109085000Y276741000D03*
%TD*%
D19*
%TO.N,VCC*%
X-98132000Y282790000D02*
X-90424000Y275082000D01*
X-119870000Y282790000D02*
X-98132000Y282790000D01*
X-90424000Y275082000D02*
X-89154000Y275082000D01*
X-120650000Y282010000D02*
X-119870000Y282790000D01*
D20*
%TO.N,/INA_VCC*%
X-134620000Y261620000D02*
X-134620000Y249428000D01*
X-130175000Y266065000D02*
X-134620000Y261620000D01*
D21*
%TO.N,/C1_OUT*%
X-129540000Y249428000D02*
X-130719990Y250607990D01*
X-130719990Y250607990D02*
X-130719990Y257940000D01*
%TO.N,/C2_OUT*%
X-132080000Y259715000D02*
X-132080000Y249428000D01*
X-128905000Y262890000D02*
X-132080000Y259715000D01*
X-128905000Y268080000D02*
X-128905000Y262890000D01*
%TO.N,/IN2_PIN*%
X-124460000Y254290000D02*
X-124460000Y249428000D01*
X-121140000Y257610000D02*
X-124460000Y254290000D01*
X-117510000Y257610000D02*
X-121140000Y257610000D01*
X-117480000Y257640000D02*
X-117510000Y257610000D01*
%TO.N,/IN3_PIN*%
X-127000000Y262128000D02*
X-127000000Y249428000D01*
X-117094000Y272034000D02*
X-127000000Y262128000D01*
X-107442000Y275971000D02*
X-111379000Y272034000D01*
X-111379000Y272034000D02*
X-117094000Y272034000D01*
X-107442000Y276860000D02*
X-107442000Y275971000D01*
D19*
%TO.N,/PH_C*%
X-131259000Y276733000D02*
X-136652000Y271340000D01*
X-109093000Y276733000D02*
X-131259000Y276733000D01*
X-109085000Y276741000D02*
X-109093000Y276733000D01*
%TD*%
D22*
%TO.N,GND*%
X-86693682Y284096768D02*
X-86403844Y284009260D01*
X-86136516Y283867119D01*
X-85901892Y283675765D01*
X-85708905Y283442483D01*
X-85564903Y283176157D01*
X-85475373Y282886935D01*
X-85442000Y282569410D01*
X-85441999Y250207225D01*
X-85497419Y249642002D01*
X-85656566Y249114882D01*
X-85915070Y248628710D01*
X-86263080Y248202006D01*
X-86687342Y247851027D01*
X-87171699Y247589135D01*
X-87697695Y247426313D01*
X-88261894Y247367013D01*
X-88265647Y247367000D01*
X-137777785Y247367000D01*
X-138342998Y247422419D01*
X-138870118Y247581566D01*
X-139356290Y247840070D01*
X-139782994Y248188080D01*
X-140133973Y248612342D01*
X-140395865Y249096699D01*
X-140558687Y249622695D01*
X-140617987Y250186894D01*
X-140618000Y250190647D01*
X-140618000Y262590000D01*
X-138230582Y262590000D01*
X-138230582Y260090000D01*
X-138224268Y260025897D01*
X-138205570Y259964257D01*
X-138175206Y259907450D01*
X-138134343Y259857657D01*
X-138084550Y259816794D01*
X-138027743Y259786430D01*
X-137966103Y259767732D01*
X-137902000Y259761418D01*
X-135402000Y259761418D01*
X-135337897Y259767732D01*
X-135322000Y259772554D01*
X-135321999Y250374506D01*
X-135370294Y250342236D01*
X-135534236Y250178294D01*
X-135663044Y249985519D01*
X-135751769Y249771318D01*
X-135797000Y249543924D01*
X-135797000Y249312076D01*
X-135751769Y249084682D01*
X-135663044Y248870481D01*
X-135534236Y248677706D01*
X-135370294Y248513764D01*
X-135177519Y248384956D01*
X-134963318Y248296231D01*
X-134735924Y248251000D01*
X-134504076Y248251000D01*
X-134276682Y248296231D01*
X-134062481Y248384956D01*
X-133869706Y248513764D01*
X-133705764Y248677706D01*
X-133576956Y248870481D01*
X-133488231Y249084682D01*
X-133443000Y249312076D01*
X-133443000Y249543924D01*
X-133257000Y249543924D01*
X-133257000Y249312076D01*
X-133211769Y249084682D01*
X-133123044Y248870481D01*
X-132994236Y248677706D01*
X-132830294Y248513764D01*
X-132637519Y248384956D01*
X-132423318Y248296231D01*
X-132195924Y248251000D01*
X-131964076Y248251000D01*
X-131736682Y248296231D01*
X-131522481Y248384956D01*
X-131329706Y248513764D01*
X-131165764Y248677706D01*
X-131036956Y248870481D01*
X-130948231Y249084682D01*
X-130903000Y249312076D01*
X-130903000Y249543924D01*
X-130948231Y249771318D01*
X-131036956Y249985519D01*
X-131165764Y250178294D01*
X-131329706Y250342236D01*
X-131522481Y250471044D01*
X-131628000Y250514751D01*
X-131628000Y258011603D01*
X-131446990Y258011603D01*
X-131446990Y257868397D01*
X-131419052Y257727942D01*
X-131364249Y257595636D01*
X-131284688Y257476564D01*
X-131183426Y257375302D01*
X-131171989Y257367660D01*
X-131171990Y250630195D01*
X-131174177Y250607990D01*
X-131165450Y250519383D01*
X-131159460Y250499636D01*
X-131139604Y250434181D01*
X-131097633Y250355658D01*
X-131041149Y250286831D01*
X-131023890Y250272667D01*
X-130628061Y249876838D01*
X-130671769Y249771318D01*
X-130717000Y249543924D01*
X-130717000Y249312076D01*
X-130671769Y249084682D01*
X-130583044Y248870481D01*
X-130454236Y248677706D01*
X-130290294Y248513764D01*
X-130097519Y248384956D01*
X-129883318Y248296231D01*
X-129655924Y248251000D01*
X-129424076Y248251000D01*
X-129196682Y248296231D01*
X-128982481Y248384956D01*
X-128789706Y248513764D01*
X-128625764Y248677706D01*
X-128496956Y248870481D01*
X-128408231Y249084682D01*
X-128363000Y249312076D01*
X-128363000Y249543924D01*
X-128408231Y249771318D01*
X-128496956Y249985519D01*
X-128625764Y250178294D01*
X-128789706Y250342236D01*
X-128982481Y250471044D01*
X-129196682Y250559769D01*
X-129424076Y250605000D01*
X-129655924Y250605000D01*
X-129883318Y250559769D01*
X-129988838Y250516061D01*
X-130267990Y250795213D01*
X-130267990Y257367661D01*
X-130256554Y257375302D01*
X-130155292Y257476564D01*
X-130075731Y257595636D01*
X-130020928Y257727942D01*
X-129992990Y257868397D01*
X-129992990Y258011603D01*
X-130020928Y258152058D01*
X-130075731Y258284364D01*
X-130155292Y258403436D01*
X-130256554Y258504698D01*
X-130375626Y258584259D01*
X-130507932Y258639062D01*
X-130648387Y258667000D01*
X-130791593Y258667000D01*
X-130932048Y258639062D01*
X-131064354Y258584259D01*
X-131183426Y258504698D01*
X-131284688Y258403436D01*
X-131364249Y258284364D01*
X-131419052Y258152058D01*
X-131446990Y258011603D01*
X-131628000Y258011603D01*
X-131628000Y259527777D01*
X-128601089Y262554686D01*
X-128583841Y262568841D01*
X-128527357Y262637667D01*
X-128485386Y262716190D01*
X-128459540Y262801393D01*
X-128453000Y262867795D01*
X-128450813Y262889999D01*
X-128453000Y262912204D01*
X-128453000Y267507661D01*
X-128441564Y267515302D01*
X-128340302Y267616564D01*
X-128260741Y267735636D01*
X-128205938Y267867942D01*
X-128178000Y268008397D01*
X-128178000Y268151603D01*
X-128205938Y268292058D01*
X-128260741Y268424364D01*
X-128340302Y268543436D01*
X-128441564Y268644698D01*
X-128560636Y268724259D01*
X-128692942Y268779062D01*
X-128833397Y268807000D01*
X-128976603Y268807000D01*
X-129117058Y268779062D01*
X-129249364Y268724259D01*
X-129368436Y268644698D01*
X-129469698Y268543436D01*
X-129549259Y268424364D01*
X-129604062Y268292058D01*
X-129632000Y268151603D01*
X-129632000Y268008397D01*
X-129604062Y267867942D01*
X-129549259Y267735636D01*
X-129469698Y267616564D01*
X-129368436Y267515302D01*
X-129357000Y267507661D01*
X-129356999Y263077226D01*
X-132383900Y260050323D01*
X-132401159Y260036159D01*
X-132457643Y259967332D01*
X-132489650Y259907450D01*
X-132499614Y259888809D01*
X-132525460Y259803607D01*
X-132534187Y259715000D01*
X-132532000Y259692795D01*
X-132531999Y250514752D01*
X-132637519Y250471044D01*
X-132830294Y250342236D01*
X-132994236Y250178294D01*
X-133123044Y249985519D01*
X-133211769Y249771318D01*
X-133257000Y249543924D01*
X-133443000Y249543924D01*
X-133488231Y249771318D01*
X-133576956Y249985519D01*
X-133705764Y250178294D01*
X-133869706Y250342236D01*
X-133918000Y250374505D01*
X-133918000Y261329223D01*
X-129818114Y265429108D01*
X-129711564Y265500302D01*
X-129610302Y265601564D01*
X-129530741Y265720636D01*
X-129475938Y265852942D01*
X-129448000Y265993397D01*
X-129448000Y266136603D01*
X-129475938Y266277058D01*
X-129530741Y266409364D01*
X-129610302Y266528436D01*
X-129711564Y266629698D01*
X-129830636Y266709259D01*
X-129962942Y266764062D01*
X-130103397Y266792000D01*
X-130246603Y266792000D01*
X-130387058Y266764062D01*
X-130519364Y266709259D01*
X-130638436Y266629698D01*
X-130739698Y266528436D01*
X-130810892Y266421886D01*
X-135073418Y262159359D01*
X-135073418Y262590000D01*
X-135079732Y262654103D01*
X-135098430Y262715743D01*
X-135128794Y262772550D01*
X-135169657Y262822343D01*
X-135219450Y262863206D01*
X-135276257Y262893570D01*
X-135337897Y262912268D01*
X-135402000Y262918582D01*
X-137902000Y262918582D01*
X-137966103Y262912268D01*
X-138027743Y262893570D01*
X-138084550Y262863206D01*
X-138134343Y262822343D01*
X-138175206Y262772550D01*
X-138205570Y262715743D01*
X-138224268Y262654103D01*
X-138230582Y262590000D01*
X-140618000Y262590000D01*
X-140618000Y266495321D01*
X-138229000Y266495321D01*
X-138229000Y266184679D01*
X-138168396Y265880006D01*
X-138049519Y265593011D01*
X-137876936Y265334721D01*
X-137657279Y265115064D01*
X-137398989Y264942481D01*
X-137111994Y264823604D01*
X-136807321Y264763000D01*
X-136496679Y264763000D01*
X-136192006Y264823604D01*
X-135905011Y264942481D01*
X-135646721Y265115064D01*
X-135427064Y265334721D01*
X-135254481Y265593011D01*
X-135135604Y265880006D01*
X-135075000Y266184679D01*
X-135075000Y266495321D01*
X-135135604Y266799994D01*
X-135254481Y267086989D01*
X-135427064Y267345279D01*
X-135646721Y267564936D01*
X-135905011Y267737519D01*
X-136192006Y267856396D01*
X-136496679Y267917000D01*
X-136807321Y267917000D01*
X-137111994Y267856396D01*
X-137398989Y267737519D01*
X-137657279Y267564936D01*
X-137876936Y267345279D01*
X-138049519Y267086989D01*
X-138168396Y266799994D01*
X-138229000Y266495321D01*
X-140618000Y266495321D01*
X-140618000Y271495321D01*
X-138229000Y271495321D01*
X-138229000Y271184679D01*
X-138168396Y270880006D01*
X-138049519Y270593011D01*
X-137876936Y270334721D01*
X-137657279Y270115064D01*
X-137398989Y269942481D01*
X-137111994Y269823604D01*
X-136807321Y269763000D01*
X-136496679Y269763000D01*
X-136192006Y269823604D01*
X-135905011Y269942481D01*
X-135646721Y270115064D01*
X-135427064Y270334721D01*
X-135254481Y270593011D01*
X-135135604Y270880006D01*
X-135075000Y271184679D01*
X-135075000Y271495321D01*
X-135116831Y271705616D01*
X-130916446Y275906000D01*
X-109491498Y275906000D01*
X-109355396Y275849624D01*
X-109176301Y275814000D01*
X-108993699Y275814000D01*
X-108814604Y275849624D01*
X-108645901Y275919504D01*
X-108494072Y276020952D01*
X-108364952Y276150072D01*
X-108263504Y276301901D01*
X-108193624Y276470604D01*
X-108158000Y276649699D01*
X-108158000Y276733096D01*
X-108141062Y276647942D01*
X-108086259Y276515636D01*
X-108006698Y276396564D01*
X-107905436Y276295302D01*
X-107893999Y276287660D01*
X-107893999Y276158225D01*
X-111566223Y272486000D01*
X-117071795Y272486000D01*
X-117094000Y272488187D01*
X-117182608Y272479460D01*
X-117267810Y272453614D01*
X-117346333Y272411643D01*
X-117415159Y272355159D01*
X-117429319Y272337905D01*
X-127303900Y262463323D01*
X-127321159Y262449159D01*
X-127377643Y262380332D01*
X-127414251Y262311842D01*
X-127419614Y262301809D01*
X-127445460Y262216607D01*
X-127454187Y262128000D01*
X-127452000Y262105795D01*
X-127451999Y250514752D01*
X-127557519Y250471044D01*
X-127750294Y250342236D01*
X-127914236Y250178294D01*
X-128043044Y249985519D01*
X-128131769Y249771318D01*
X-128177000Y249543924D01*
X-128177000Y249312076D01*
X-128131769Y249084682D01*
X-128043044Y248870481D01*
X-127914236Y248677706D01*
X-127750294Y248513764D01*
X-127557519Y248384956D01*
X-127343318Y248296231D01*
X-127115924Y248251000D01*
X-126884076Y248251000D01*
X-126656682Y248296231D01*
X-126442481Y248384956D01*
X-126249706Y248513764D01*
X-126085764Y248677706D01*
X-125956956Y248870481D01*
X-125868231Y249084682D01*
X-125823000Y249312076D01*
X-125823000Y249543924D01*
X-125637000Y249543924D01*
X-125637000Y249312076D01*
X-125591769Y249084682D01*
X-125503044Y248870481D01*
X-125374236Y248677706D01*
X-125210294Y248513764D01*
X-125017519Y248384956D01*
X-124803318Y248296231D01*
X-124575924Y248251000D01*
X-124344076Y248251000D01*
X-124116682Y248296231D01*
X-123902481Y248384956D01*
X-123709706Y248513764D01*
X-123545764Y248677706D01*
X-123416956Y248870481D01*
X-123328231Y249084682D01*
X-123283000Y249312076D01*
X-123283000Y249543924D01*
X-123097000Y249543924D01*
X-123097000Y249312076D01*
X-123051769Y249084682D01*
X-122963044Y248870481D01*
X-122834236Y248677706D01*
X-122670294Y248513764D01*
X-122477519Y248384956D01*
X-122263318Y248296231D01*
X-122035924Y248251000D01*
X-121804076Y248251000D01*
X-121576682Y248296231D01*
X-121362481Y248384956D01*
X-121169706Y248513764D01*
X-121005764Y248677706D01*
X-120876956Y248870481D01*
X-120788231Y249084682D01*
X-120743000Y249312076D01*
X-120743000Y249543924D01*
X-120557000Y249543924D01*
X-120557000Y249312076D01*
X-120511769Y249084682D01*
X-120423044Y248870481D01*
X-120294236Y248677706D01*
X-120130294Y248513764D01*
X-119937519Y248384956D01*
X-119723318Y248296231D01*
X-119495924Y248251000D01*
X-119264076Y248251000D01*
X-119036682Y248296231D01*
X-118822481Y248384956D01*
X-118629706Y248513764D01*
X-118465764Y248677706D01*
X-118336956Y248870481D01*
X-118248231Y249084682D01*
X-118203000Y249312076D01*
X-118203000Y249543924D01*
X-118017000Y249543924D01*
X-118017000Y249312076D01*
X-117971769Y249084682D01*
X-117883044Y248870481D01*
X-117754236Y248677706D01*
X-117590294Y248513764D01*
X-117397519Y248384956D01*
X-117183318Y248296231D01*
X-116955924Y248251000D01*
X-116724076Y248251000D01*
X-116496682Y248296231D01*
X-116282481Y248384956D01*
X-116089706Y248513764D01*
X-115925764Y248677706D01*
X-115796956Y248870481D01*
X-115708231Y249084682D01*
X-115663000Y249312076D01*
X-115663000Y249543924D01*
X-115708231Y249771318D01*
X-115796956Y249985519D01*
X-115925764Y250178294D01*
X-116025470Y250278000D01*
X-115478582Y250278000D01*
X-115478582Y248578000D01*
X-115472268Y248513897D01*
X-115453570Y248452257D01*
X-115423206Y248395450D01*
X-115382343Y248345657D01*
X-115332550Y248304794D01*
X-115275743Y248274430D01*
X-115214103Y248255732D01*
X-115150000Y248249418D01*
X-113450000Y248249418D01*
X-113385897Y248255732D01*
X-113324257Y248274430D01*
X-113267450Y248304794D01*
X-113217657Y248345657D01*
X-113176794Y248395450D01*
X-113146430Y248452257D01*
X-113127732Y248513897D01*
X-113121418Y248578000D01*
X-113121418Y250278000D01*
X-113127732Y250342103D01*
X-113146430Y250403743D01*
X-113154686Y250419189D01*
X-90592000Y250419189D01*
X-90592000Y249960811D01*
X-90502574Y249511239D01*
X-90327160Y249087752D01*
X-90072499Y248706624D01*
X-89748376Y248382501D01*
X-89367248Y248127840D01*
X-88943761Y247952426D01*
X-88494189Y247863000D01*
X-88035811Y247863000D01*
X-87586239Y247952426D01*
X-87162752Y248127840D01*
X-86781624Y248382501D01*
X-86457501Y248706624D01*
X-86202840Y249087752D01*
X-86027426Y249511239D01*
X-85938000Y249960811D01*
X-85938000Y250419189D01*
X-86027426Y250868761D01*
X-86202840Y251292248D01*
X-86457501Y251673376D01*
X-86781624Y251997499D01*
X-87162752Y252252160D01*
X-87586239Y252427574D01*
X-88035811Y252517000D01*
X-88494189Y252517000D01*
X-88943761Y252427574D01*
X-89367248Y252252160D01*
X-89748376Y251997499D01*
X-90072499Y251673376D01*
X-90327160Y251292248D01*
X-90502574Y250868761D01*
X-90592000Y250419189D01*
X-113154686Y250419189D01*
X-113176794Y250460550D01*
X-113217657Y250510343D01*
X-113267450Y250551206D01*
X-113324257Y250581570D01*
X-113385897Y250600268D01*
X-113450000Y250606582D01*
X-115150000Y250606582D01*
X-115214103Y250600268D01*
X-115275743Y250581570D01*
X-115332550Y250551206D01*
X-115382343Y250510343D01*
X-115423206Y250460550D01*
X-115453570Y250403743D01*
X-115472268Y250342103D01*
X-115478582Y250278000D01*
X-116025470Y250278000D01*
X-116089706Y250342236D01*
X-116282481Y250471044D01*
X-116496682Y250559769D01*
X-116724076Y250605000D01*
X-116955924Y250605000D01*
X-117183318Y250559769D01*
X-117397519Y250471044D01*
X-117590294Y250342236D01*
X-117754236Y250178294D01*
X-117883044Y249985519D01*
X-117971769Y249771318D01*
X-118017000Y249543924D01*
X-118203000Y249543924D01*
X-118248231Y249771318D01*
X-118336956Y249985519D01*
X-118465764Y250178294D01*
X-118629706Y250342236D01*
X-118822481Y250471044D01*
X-119036682Y250559769D01*
X-119264076Y250605000D01*
X-119495924Y250605000D01*
X-119723318Y250559769D01*
X-119937519Y250471044D01*
X-120130294Y250342236D01*
X-120294236Y250178294D01*
X-120423044Y249985519D01*
X-120511769Y249771318D01*
X-120557000Y249543924D01*
X-120743000Y249543924D01*
X-120788231Y249771318D01*
X-120876956Y249985519D01*
X-121005764Y250178294D01*
X-121169706Y250342236D01*
X-121362481Y250471044D01*
X-121576682Y250559769D01*
X-121804076Y250605000D01*
X-122035924Y250605000D01*
X-122263318Y250559769D01*
X-122477519Y250471044D01*
X-122670294Y250342236D01*
X-122834236Y250178294D01*
X-122963044Y249985519D01*
X-123051769Y249771318D01*
X-123097000Y249543924D01*
X-123283000Y249543924D01*
X-123328231Y249771318D01*
X-123416956Y249985519D01*
X-123545764Y250178294D01*
X-123709706Y250342236D01*
X-123902481Y250471044D01*
X-124008000Y250514751D01*
X-124008000Y254102777D01*
X-120952776Y257158000D01*
X-118026134Y257158000D01*
X-117943436Y257075302D01*
X-117824364Y256995741D01*
X-117692058Y256940938D01*
X-117551603Y256913000D01*
X-117408397Y256913000D01*
X-117267942Y256940938D01*
X-117135636Y256995741D01*
X-117016564Y257075302D01*
X-116915302Y257176564D01*
X-116835741Y257295636D01*
X-116780938Y257427942D01*
X-116753000Y257568397D01*
X-116753000Y257711603D01*
X-116780938Y257852058D01*
X-116835741Y257984364D01*
X-116915302Y258103436D01*
X-117016564Y258204698D01*
X-117135636Y258284259D01*
X-117267942Y258339062D01*
X-117408397Y258367000D01*
X-117551603Y258367000D01*
X-117692058Y258339062D01*
X-117824364Y258284259D01*
X-117943436Y258204698D01*
X-118044698Y258103436D01*
X-118072385Y258062000D01*
X-121117796Y258062000D01*
X-121140001Y258064187D01*
X-121228608Y258055460D01*
X-121313810Y258029614D01*
X-121392333Y257987643D01*
X-121461159Y257931159D01*
X-121475319Y257913905D01*
X-124763900Y254625323D01*
X-124781159Y254611159D01*
X-124837642Y254542333D01*
X-124879614Y254463809D01*
X-124905460Y254378607D01*
X-124914187Y254290000D01*
X-124912000Y254267795D01*
X-124911999Y250514752D01*
X-125017519Y250471044D01*
X-125210294Y250342236D01*
X-125374236Y250178294D01*
X-125503044Y249985519D01*
X-125591769Y249771318D01*
X-125637000Y249543924D01*
X-125823000Y249543924D01*
X-125868231Y249771318D01*
X-125956956Y249985519D01*
X-126085764Y250178294D01*
X-126249706Y250342236D01*
X-126442481Y250471044D01*
X-126548000Y250514751D01*
X-126548000Y261940777D01*
X-116906776Y271582000D01*
X-111401205Y271582000D01*
X-111379000Y271579813D01*
X-111356795Y271582000D01*
X-111290393Y271588540D01*
X-111205190Y271614386D01*
X-111126667Y271656357D01*
X-111057841Y271712841D01*
X-111043677Y271730100D01*
X-107138095Y275635681D01*
X-107120841Y275649841D01*
X-107064357Y275718667D01*
X-107022386Y275797190D01*
X-107006480Y275849624D01*
X-106996540Y275882392D01*
X-106987813Y275971000D01*
X-106990000Y275993205D01*
X-106990000Y276287661D01*
X-106978564Y276295302D01*
X-106877302Y276396564D01*
X-106797741Y276515636D01*
X-106742938Y276647942D01*
X-106715000Y276788397D01*
X-106715000Y276931603D01*
X-106742938Y277072058D01*
X-106797741Y277204364D01*
X-106877302Y277323436D01*
X-106978564Y277424698D01*
X-107097636Y277504259D01*
X-107229942Y277559062D01*
X-107370397Y277587000D01*
X-107513603Y277587000D01*
X-107654058Y277559062D01*
X-107786364Y277504259D01*
X-107905436Y277424698D01*
X-108006698Y277323436D01*
X-108086259Y277204364D01*
X-108141062Y277072058D01*
X-108169000Y276931603D01*
X-108169000Y276887602D01*
X-108193624Y277011396D01*
X-108263504Y277180099D01*
X-108364952Y277331928D01*
X-108494072Y277461048D01*
X-108645901Y277562496D01*
X-108814604Y277632376D01*
X-108993699Y277668000D01*
X-109176301Y277668000D01*
X-109355396Y277632376D01*
X-109524099Y277562496D01*
X-109527835Y277560000D01*
X-131218386Y277560000D01*
X-131259000Y277564000D01*
X-131299614Y277560000D01*
X-131299624Y277560000D01*
X-131421120Y277548034D01*
X-131577010Y277500745D01*
X-131643887Y277464998D01*
X-131720680Y277423952D01*
X-131805303Y277354503D01*
X-131846606Y277320606D01*
X-131872501Y277289053D01*
X-136286384Y272875169D01*
X-136496679Y272917000D01*
X-136807321Y272917000D01*
X-137111994Y272856396D01*
X-137398989Y272737519D01*
X-137657279Y272564936D01*
X-137876936Y272345279D01*
X-138049519Y272086989D01*
X-138168396Y271799994D01*
X-138229000Y271495321D01*
X-140618000Y271495321D01*
X-140618000Y281287785D01*
X-140593841Y281534189D01*
X-140122000Y281534189D01*
X-140122000Y281075811D01*
X-140032574Y280626239D01*
X-139857160Y280202752D01*
X-139602499Y279821624D01*
X-139278376Y279497501D01*
X-138897248Y279242840D01*
X-138473761Y279067426D01*
X-138024189Y278978000D01*
X-137565811Y278978000D01*
X-137116239Y279067426D01*
X-136692752Y279242840D01*
X-136311624Y279497501D01*
X-135987501Y279821624D01*
X-135732840Y280202752D01*
X-135557426Y280626239D01*
X-135468000Y281075811D01*
X-135468000Y281534189D01*
X-135557426Y281983761D01*
X-135606112Y282101301D01*
X-121577000Y282101301D01*
X-121577000Y281918699D01*
X-121541376Y281739604D01*
X-121471496Y281570901D01*
X-121370048Y281419072D01*
X-121240928Y281289952D01*
X-121089099Y281188504D01*
X-120920396Y281118624D01*
X-120741301Y281083000D01*
X-120558699Y281083000D01*
X-120379604Y281118624D01*
X-120210901Y281188504D01*
X-120059072Y281289952D01*
X-119929952Y281419072D01*
X-119828504Y281570901D01*
X-119764127Y281726320D01*
X-119527446Y281963000D01*
X-98474553Y281963000D01*
X-91037501Y274525947D01*
X-91011606Y274494394D01*
X-90980053Y274468499D01*
X-90980052Y274468498D01*
X-90885681Y274391048D01*
X-90785593Y274337550D01*
X-90742010Y274314255D01*
X-90732582Y274311395D01*
X-90732582Y273832000D01*
X-90726268Y273767897D01*
X-90707570Y273706257D01*
X-90677206Y273649450D01*
X-90636343Y273599657D01*
X-90586550Y273558794D01*
X-90529743Y273528430D01*
X-90468103Y273509732D01*
X-90404000Y273503418D01*
X-87904000Y273503418D01*
X-87839897Y273509732D01*
X-87778257Y273528430D01*
X-87721450Y273558794D01*
X-87671657Y273599657D01*
X-87630794Y273649450D01*
X-87600430Y273706257D01*
X-87581732Y273767897D01*
X-87575418Y273832000D01*
X-87575418Y276332000D01*
X-87581732Y276396103D01*
X-87600430Y276457743D01*
X-87630794Y276514550D01*
X-87671657Y276564343D01*
X-87721450Y276605206D01*
X-87778257Y276635570D01*
X-87839897Y276654268D01*
X-87904000Y276660582D01*
X-90404000Y276660582D01*
X-90468103Y276654268D01*
X-90529743Y276635570D01*
X-90586550Y276605206D01*
X-90636343Y276564343D01*
X-90677206Y276514550D01*
X-90680616Y276508170D01*
X-97518495Y283346048D01*
X-97544394Y283377606D01*
X-97670321Y283480952D01*
X-97813990Y283557745D01*
X-97969880Y283605034D01*
X-98091376Y283617000D01*
X-98091386Y283617000D01*
X-98132000Y283621000D01*
X-98172614Y283617000D01*
X-119829386Y283617000D01*
X-119870000Y283621000D01*
X-119910614Y283617000D01*
X-119910624Y283617000D01*
X-120032120Y283605034D01*
X-120140722Y283572090D01*
X-120188011Y283557745D01*
X-120331680Y283480952D01*
X-120426052Y283403503D01*
X-120426059Y283403496D01*
X-120457606Y283377606D01*
X-120483497Y283346058D01*
X-120933680Y282895873D01*
X-121089099Y282831496D01*
X-121240928Y282730048D01*
X-121370048Y282600928D01*
X-121471496Y282449099D01*
X-121541376Y282280396D01*
X-121577000Y282101301D01*
X-135606112Y282101301D01*
X-135732840Y282407248D01*
X-135987501Y282788376D01*
X-136311624Y283112499D01*
X-136692752Y283367160D01*
X-137116239Y283542574D01*
X-137565811Y283632000D01*
X-138024189Y283632000D01*
X-138473761Y283542574D01*
X-138897248Y283367160D01*
X-139278376Y283112499D01*
X-139602499Y282788376D01*
X-139857160Y282407248D01*
X-140032574Y281983761D01*
X-140122000Y281534189D01*
X-140593841Y281534189D01*
X-140562581Y281852998D01*
X-140403435Y282380114D01*
X-140144930Y282866291D01*
X-139796920Y283292994D01*
X-139372656Y283643974D01*
X-138888303Y283905864D01*
X-138362305Y284068686D01*
X-137798106Y284127987D01*
X-137794353Y284128000D01*
X-87012215Y284128000D01*
X-86693682Y284096768D01*
%TA.AperFunction,Conductor*%
D23*
G36*
X-86693682Y284096768D02*
G01*
X-86403844Y284009260D01*
X-86136516Y283867119D01*
X-85901892Y283675765D01*
X-85708905Y283442483D01*
X-85564903Y283176157D01*
X-85475373Y282886935D01*
X-85442000Y282569410D01*
X-85441999Y250207225D01*
X-85497419Y249642002D01*
X-85656566Y249114882D01*
X-85915070Y248628710D01*
X-86263080Y248202006D01*
X-86687342Y247851027D01*
X-87171699Y247589135D01*
X-87697695Y247426313D01*
X-88261894Y247367013D01*
X-88265647Y247367000D01*
X-137777785Y247367000D01*
X-138342998Y247422419D01*
X-138870118Y247581566D01*
X-139356290Y247840070D01*
X-139782994Y248188080D01*
X-140133973Y248612342D01*
X-140395865Y249096699D01*
X-140558687Y249622695D01*
X-140617987Y250186894D01*
X-140618000Y250190647D01*
X-140618000Y262590000D01*
X-138230582Y262590000D01*
X-138230582Y260090000D01*
X-138224268Y260025897D01*
X-138205570Y259964257D01*
X-138175206Y259907450D01*
X-138134343Y259857657D01*
X-138084550Y259816794D01*
X-138027743Y259786430D01*
X-137966103Y259767732D01*
X-137902000Y259761418D01*
X-135402000Y259761418D01*
X-135337897Y259767732D01*
X-135322000Y259772554D01*
X-135321999Y250374506D01*
X-135370294Y250342236D01*
X-135534236Y250178294D01*
X-135663044Y249985519D01*
X-135751769Y249771318D01*
X-135797000Y249543924D01*
X-135797000Y249312076D01*
X-135751769Y249084682D01*
X-135663044Y248870481D01*
X-135534236Y248677706D01*
X-135370294Y248513764D01*
X-135177519Y248384956D01*
X-134963318Y248296231D01*
X-134735924Y248251000D01*
X-134504076Y248251000D01*
X-134276682Y248296231D01*
X-134062481Y248384956D01*
X-133869706Y248513764D01*
X-133705764Y248677706D01*
X-133576956Y248870481D01*
X-133488231Y249084682D01*
X-133443000Y249312076D01*
X-133443000Y249543924D01*
X-133257000Y249543924D01*
X-133257000Y249312076D01*
X-133211769Y249084682D01*
X-133123044Y248870481D01*
X-132994236Y248677706D01*
X-132830294Y248513764D01*
X-132637519Y248384956D01*
X-132423318Y248296231D01*
X-132195924Y248251000D01*
X-131964076Y248251000D01*
X-131736682Y248296231D01*
X-131522481Y248384956D01*
X-131329706Y248513764D01*
X-131165764Y248677706D01*
X-131036956Y248870481D01*
X-130948231Y249084682D01*
X-130903000Y249312076D01*
X-130903000Y249543924D01*
X-130948231Y249771318D01*
X-131036956Y249985519D01*
X-131165764Y250178294D01*
X-131329706Y250342236D01*
X-131522481Y250471044D01*
X-131628000Y250514751D01*
X-131628000Y258011603D01*
X-131446990Y258011603D01*
X-131446990Y257868397D01*
X-131419052Y257727942D01*
X-131364249Y257595636D01*
X-131284688Y257476564D01*
X-131183426Y257375302D01*
X-131171989Y257367660D01*
X-131171990Y250630195D01*
X-131174177Y250607990D01*
X-131165450Y250519383D01*
X-131159460Y250499636D01*
X-131139604Y250434181D01*
X-131097633Y250355658D01*
X-131041149Y250286831D01*
X-131023890Y250272667D01*
X-130628061Y249876838D01*
X-130671769Y249771318D01*
X-130717000Y249543924D01*
X-130717000Y249312076D01*
X-130671769Y249084682D01*
X-130583044Y248870481D01*
X-130454236Y248677706D01*
X-130290294Y248513764D01*
X-130097519Y248384956D01*
X-129883318Y248296231D01*
X-129655924Y248251000D01*
X-129424076Y248251000D01*
X-129196682Y248296231D01*
X-128982481Y248384956D01*
X-128789706Y248513764D01*
X-128625764Y248677706D01*
X-128496956Y248870481D01*
X-128408231Y249084682D01*
X-128363000Y249312076D01*
X-128363000Y249543924D01*
X-128408231Y249771318D01*
X-128496956Y249985519D01*
X-128625764Y250178294D01*
X-128789706Y250342236D01*
X-128982481Y250471044D01*
X-129196682Y250559769D01*
X-129424076Y250605000D01*
X-129655924Y250605000D01*
X-129883318Y250559769D01*
X-129988838Y250516061D01*
X-130267990Y250795213D01*
X-130267990Y257367661D01*
X-130256554Y257375302D01*
X-130155292Y257476564D01*
X-130075731Y257595636D01*
X-130020928Y257727942D01*
X-129992990Y257868397D01*
X-129992990Y258011603D01*
X-130020928Y258152058D01*
X-130075731Y258284364D01*
X-130155292Y258403436D01*
X-130256554Y258504698D01*
X-130375626Y258584259D01*
X-130507932Y258639062D01*
X-130648387Y258667000D01*
X-130791593Y258667000D01*
X-130932048Y258639062D01*
X-131064354Y258584259D01*
X-131183426Y258504698D01*
X-131284688Y258403436D01*
X-131364249Y258284364D01*
X-131419052Y258152058D01*
X-131446990Y258011603D01*
X-131628000Y258011603D01*
X-131628000Y259527777D01*
X-128601089Y262554686D01*
X-128583841Y262568841D01*
X-128527357Y262637667D01*
X-128485386Y262716190D01*
X-128459540Y262801393D01*
X-128453000Y262867795D01*
X-128450813Y262889999D01*
X-128453000Y262912204D01*
X-128453000Y267507661D01*
X-128441564Y267515302D01*
X-128340302Y267616564D01*
X-128260741Y267735636D01*
X-128205938Y267867942D01*
X-128178000Y268008397D01*
X-128178000Y268151603D01*
X-128205938Y268292058D01*
X-128260741Y268424364D01*
X-128340302Y268543436D01*
X-128441564Y268644698D01*
X-128560636Y268724259D01*
X-128692942Y268779062D01*
X-128833397Y268807000D01*
X-128976603Y268807000D01*
X-129117058Y268779062D01*
X-129249364Y268724259D01*
X-129368436Y268644698D01*
X-129469698Y268543436D01*
X-129549259Y268424364D01*
X-129604062Y268292058D01*
X-129632000Y268151603D01*
X-129632000Y268008397D01*
X-129604062Y267867942D01*
X-129549259Y267735636D01*
X-129469698Y267616564D01*
X-129368436Y267515302D01*
X-129357000Y267507661D01*
X-129356999Y263077226D01*
X-132383900Y260050323D01*
X-132401159Y260036159D01*
X-132457643Y259967332D01*
X-132489650Y259907450D01*
X-132499614Y259888809D01*
X-132525460Y259803607D01*
X-132534187Y259715000D01*
X-132532000Y259692795D01*
X-132531999Y250514752D01*
X-132637519Y250471044D01*
X-132830294Y250342236D01*
X-132994236Y250178294D01*
X-133123044Y249985519D01*
X-133211769Y249771318D01*
X-133257000Y249543924D01*
X-133443000Y249543924D01*
X-133488231Y249771318D01*
X-133576956Y249985519D01*
X-133705764Y250178294D01*
X-133869706Y250342236D01*
X-133918000Y250374505D01*
X-133918000Y261329223D01*
X-129818114Y265429108D01*
X-129711564Y265500302D01*
X-129610302Y265601564D01*
X-129530741Y265720636D01*
X-129475938Y265852942D01*
X-129448000Y265993397D01*
X-129448000Y266136603D01*
X-129475938Y266277058D01*
X-129530741Y266409364D01*
X-129610302Y266528436D01*
X-129711564Y266629698D01*
X-129830636Y266709259D01*
X-129962942Y266764062D01*
X-130103397Y266792000D01*
X-130246603Y266792000D01*
X-130387058Y266764062D01*
X-130519364Y266709259D01*
X-130638436Y266629698D01*
X-130739698Y266528436D01*
X-130810892Y266421886D01*
X-135073418Y262159359D01*
X-135073418Y262590000D01*
X-135079732Y262654103D01*
X-135098430Y262715743D01*
X-135128794Y262772550D01*
X-135169657Y262822343D01*
X-135219450Y262863206D01*
X-135276257Y262893570D01*
X-135337897Y262912268D01*
X-135402000Y262918582D01*
X-137902000Y262918582D01*
X-137966103Y262912268D01*
X-138027743Y262893570D01*
X-138084550Y262863206D01*
X-138134343Y262822343D01*
X-138175206Y262772550D01*
X-138205570Y262715743D01*
X-138224268Y262654103D01*
X-138230582Y262590000D01*
X-140618000Y262590000D01*
X-140618000Y266495321D01*
X-138229000Y266495321D01*
X-138229000Y266184679D01*
X-138168396Y265880006D01*
X-138049519Y265593011D01*
X-137876936Y265334721D01*
X-137657279Y265115064D01*
X-137398989Y264942481D01*
X-137111994Y264823604D01*
X-136807321Y264763000D01*
X-136496679Y264763000D01*
X-136192006Y264823604D01*
X-135905011Y264942481D01*
X-135646721Y265115064D01*
X-135427064Y265334721D01*
X-135254481Y265593011D01*
X-135135604Y265880006D01*
X-135075000Y266184679D01*
X-135075000Y266495321D01*
X-135135604Y266799994D01*
X-135254481Y267086989D01*
X-135427064Y267345279D01*
X-135646721Y267564936D01*
X-135905011Y267737519D01*
X-136192006Y267856396D01*
X-136496679Y267917000D01*
X-136807321Y267917000D01*
X-137111994Y267856396D01*
X-137398989Y267737519D01*
X-137657279Y267564936D01*
X-137876936Y267345279D01*
X-138049519Y267086989D01*
X-138168396Y266799994D01*
X-138229000Y266495321D01*
X-140618000Y266495321D01*
X-140618000Y271495321D01*
X-138229000Y271495321D01*
X-138229000Y271184679D01*
X-138168396Y270880006D01*
X-138049519Y270593011D01*
X-137876936Y270334721D01*
X-137657279Y270115064D01*
X-137398989Y269942481D01*
X-137111994Y269823604D01*
X-136807321Y269763000D01*
X-136496679Y269763000D01*
X-136192006Y269823604D01*
X-135905011Y269942481D01*
X-135646721Y270115064D01*
X-135427064Y270334721D01*
X-135254481Y270593011D01*
X-135135604Y270880006D01*
X-135075000Y271184679D01*
X-135075000Y271495321D01*
X-135116831Y271705616D01*
X-130916446Y275906000D01*
X-109491498Y275906000D01*
X-109355396Y275849624D01*
X-109176301Y275814000D01*
X-108993699Y275814000D01*
X-108814604Y275849624D01*
X-108645901Y275919504D01*
X-108494072Y276020952D01*
X-108364952Y276150072D01*
X-108263504Y276301901D01*
X-108193624Y276470604D01*
X-108158000Y276649699D01*
X-108158000Y276733096D01*
X-108141062Y276647942D01*
X-108086259Y276515636D01*
X-108006698Y276396564D01*
X-107905436Y276295302D01*
X-107893999Y276287660D01*
X-107893999Y276158225D01*
X-111566223Y272486000D01*
X-117071795Y272486000D01*
X-117094000Y272488187D01*
X-117182608Y272479460D01*
X-117267810Y272453614D01*
X-117346333Y272411643D01*
X-117415159Y272355159D01*
X-117429319Y272337905D01*
X-127303900Y262463323D01*
X-127321159Y262449159D01*
X-127377643Y262380332D01*
X-127414251Y262311842D01*
X-127419614Y262301809D01*
X-127445460Y262216607D01*
X-127454187Y262128000D01*
X-127452000Y262105795D01*
X-127451999Y250514752D01*
X-127557519Y250471044D01*
X-127750294Y250342236D01*
X-127914236Y250178294D01*
X-128043044Y249985519D01*
X-128131769Y249771318D01*
X-128177000Y249543924D01*
X-128177000Y249312076D01*
X-128131769Y249084682D01*
X-128043044Y248870481D01*
X-127914236Y248677706D01*
X-127750294Y248513764D01*
X-127557519Y248384956D01*
X-127343318Y248296231D01*
X-127115924Y248251000D01*
X-126884076Y248251000D01*
X-126656682Y248296231D01*
X-126442481Y248384956D01*
X-126249706Y248513764D01*
X-126085764Y248677706D01*
X-125956956Y248870481D01*
X-125868231Y249084682D01*
X-125823000Y249312076D01*
X-125823000Y249543924D01*
X-125637000Y249543924D01*
X-125637000Y249312076D01*
X-125591769Y249084682D01*
X-125503044Y248870481D01*
X-125374236Y248677706D01*
X-125210294Y248513764D01*
X-125017519Y248384956D01*
X-124803318Y248296231D01*
X-124575924Y248251000D01*
X-124344076Y248251000D01*
X-124116682Y248296231D01*
X-123902481Y248384956D01*
X-123709706Y248513764D01*
X-123545764Y248677706D01*
X-123416956Y248870481D01*
X-123328231Y249084682D01*
X-123283000Y249312076D01*
X-123283000Y249543924D01*
X-123097000Y249543924D01*
X-123097000Y249312076D01*
X-123051769Y249084682D01*
X-122963044Y248870481D01*
X-122834236Y248677706D01*
X-122670294Y248513764D01*
X-122477519Y248384956D01*
X-122263318Y248296231D01*
X-122035924Y248251000D01*
X-121804076Y248251000D01*
X-121576682Y248296231D01*
X-121362481Y248384956D01*
X-121169706Y248513764D01*
X-121005764Y248677706D01*
X-120876956Y248870481D01*
X-120788231Y249084682D01*
X-120743000Y249312076D01*
X-120743000Y249543924D01*
X-120557000Y249543924D01*
X-120557000Y249312076D01*
X-120511769Y249084682D01*
X-120423044Y248870481D01*
X-120294236Y248677706D01*
X-120130294Y248513764D01*
X-119937519Y248384956D01*
X-119723318Y248296231D01*
X-119495924Y248251000D01*
X-119264076Y248251000D01*
X-119036682Y248296231D01*
X-118822481Y248384956D01*
X-118629706Y248513764D01*
X-118465764Y248677706D01*
X-118336956Y248870481D01*
X-118248231Y249084682D01*
X-118203000Y249312076D01*
X-118203000Y249543924D01*
X-118017000Y249543924D01*
X-118017000Y249312076D01*
X-117971769Y249084682D01*
X-117883044Y248870481D01*
X-117754236Y248677706D01*
X-117590294Y248513764D01*
X-117397519Y248384956D01*
X-117183318Y248296231D01*
X-116955924Y248251000D01*
X-116724076Y248251000D01*
X-116496682Y248296231D01*
X-116282481Y248384956D01*
X-116089706Y248513764D01*
X-115925764Y248677706D01*
X-115796956Y248870481D01*
X-115708231Y249084682D01*
X-115663000Y249312076D01*
X-115663000Y249543924D01*
X-115708231Y249771318D01*
X-115796956Y249985519D01*
X-115925764Y250178294D01*
X-116025470Y250278000D01*
X-115478582Y250278000D01*
X-115478582Y248578000D01*
X-115472268Y248513897D01*
X-115453570Y248452257D01*
X-115423206Y248395450D01*
X-115382343Y248345657D01*
X-115332550Y248304794D01*
X-115275743Y248274430D01*
X-115214103Y248255732D01*
X-115150000Y248249418D01*
X-113450000Y248249418D01*
X-113385897Y248255732D01*
X-113324257Y248274430D01*
X-113267450Y248304794D01*
X-113217657Y248345657D01*
X-113176794Y248395450D01*
X-113146430Y248452257D01*
X-113127732Y248513897D01*
X-113121418Y248578000D01*
X-113121418Y250278000D01*
X-113127732Y250342103D01*
X-113146430Y250403743D01*
X-113154686Y250419189D01*
X-90592000Y250419189D01*
X-90592000Y249960811D01*
X-90502574Y249511239D01*
X-90327160Y249087752D01*
X-90072499Y248706624D01*
X-89748376Y248382501D01*
X-89367248Y248127840D01*
X-88943761Y247952426D01*
X-88494189Y247863000D01*
X-88035811Y247863000D01*
X-87586239Y247952426D01*
X-87162752Y248127840D01*
X-86781624Y248382501D01*
X-86457501Y248706624D01*
X-86202840Y249087752D01*
X-86027426Y249511239D01*
X-85938000Y249960811D01*
X-85938000Y250419189D01*
X-86027426Y250868761D01*
X-86202840Y251292248D01*
X-86457501Y251673376D01*
X-86781624Y251997499D01*
X-87162752Y252252160D01*
X-87586239Y252427574D01*
X-88035811Y252517000D01*
X-88494189Y252517000D01*
X-88943761Y252427574D01*
X-89367248Y252252160D01*
X-89748376Y251997499D01*
X-90072499Y251673376D01*
X-90327160Y251292248D01*
X-90502574Y250868761D01*
X-90592000Y250419189D01*
X-113154686Y250419189D01*
X-113176794Y250460550D01*
X-113217657Y250510343D01*
X-113267450Y250551206D01*
X-113324257Y250581570D01*
X-113385897Y250600268D01*
X-113450000Y250606582D01*
X-115150000Y250606582D01*
X-115214103Y250600268D01*
X-115275743Y250581570D01*
X-115332550Y250551206D01*
X-115382343Y250510343D01*
X-115423206Y250460550D01*
X-115453570Y250403743D01*
X-115472268Y250342103D01*
X-115478582Y250278000D01*
X-116025470Y250278000D01*
X-116089706Y250342236D01*
X-116282481Y250471044D01*
X-116496682Y250559769D01*
X-116724076Y250605000D01*
X-116955924Y250605000D01*
X-117183318Y250559769D01*
X-117397519Y250471044D01*
X-117590294Y250342236D01*
X-117754236Y250178294D01*
X-117883044Y249985519D01*
X-117971769Y249771318D01*
X-118017000Y249543924D01*
X-118203000Y249543924D01*
X-118248231Y249771318D01*
X-118336956Y249985519D01*
X-118465764Y250178294D01*
X-118629706Y250342236D01*
X-118822481Y250471044D01*
X-119036682Y250559769D01*
X-119264076Y250605000D01*
X-119495924Y250605000D01*
X-119723318Y250559769D01*
X-119937519Y250471044D01*
X-120130294Y250342236D01*
X-120294236Y250178294D01*
X-120423044Y249985519D01*
X-120511769Y249771318D01*
X-120557000Y249543924D01*
X-120743000Y249543924D01*
X-120788231Y249771318D01*
X-120876956Y249985519D01*
X-121005764Y250178294D01*
X-121169706Y250342236D01*
X-121362481Y250471044D01*
X-121576682Y250559769D01*
X-121804076Y250605000D01*
X-122035924Y250605000D01*
X-122263318Y250559769D01*
X-122477519Y250471044D01*
X-122670294Y250342236D01*
X-122834236Y250178294D01*
X-122963044Y249985519D01*
X-123051769Y249771318D01*
X-123097000Y249543924D01*
X-123283000Y249543924D01*
X-123328231Y249771318D01*
X-123416956Y249985519D01*
X-123545764Y250178294D01*
X-123709706Y250342236D01*
X-123902481Y250471044D01*
X-124008000Y250514751D01*
X-124008000Y254102777D01*
X-120952776Y257158000D01*
X-118026134Y257158000D01*
X-117943436Y257075302D01*
X-117824364Y256995741D01*
X-117692058Y256940938D01*
X-117551603Y256913000D01*
X-117408397Y256913000D01*
X-117267942Y256940938D01*
X-117135636Y256995741D01*
X-117016564Y257075302D01*
X-116915302Y257176564D01*
X-116835741Y257295636D01*
X-116780938Y257427942D01*
X-116753000Y257568397D01*
X-116753000Y257711603D01*
X-116780938Y257852058D01*
X-116835741Y257984364D01*
X-116915302Y258103436D01*
X-117016564Y258204698D01*
X-117135636Y258284259D01*
X-117267942Y258339062D01*
X-117408397Y258367000D01*
X-117551603Y258367000D01*
X-117692058Y258339062D01*
X-117824364Y258284259D01*
X-117943436Y258204698D01*
X-118044698Y258103436D01*
X-118072385Y258062000D01*
X-121117796Y258062000D01*
X-121140001Y258064187D01*
X-121228608Y258055460D01*
X-121313810Y258029614D01*
X-121392333Y257987643D01*
X-121461159Y257931159D01*
X-121475319Y257913905D01*
X-124763900Y254625323D01*
X-124781159Y254611159D01*
X-124837642Y254542333D01*
X-124879614Y254463809D01*
X-124905460Y254378607D01*
X-124914187Y254290000D01*
X-124912000Y254267795D01*
X-124911999Y250514752D01*
X-125017519Y250471044D01*
X-125210294Y250342236D01*
X-125374236Y250178294D01*
X-125503044Y249985519D01*
X-125591769Y249771318D01*
X-125637000Y249543924D01*
X-125823000Y249543924D01*
X-125868231Y249771318D01*
X-125956956Y249985519D01*
X-126085764Y250178294D01*
X-126249706Y250342236D01*
X-126442481Y250471044D01*
X-126548000Y250514751D01*
X-126548000Y261940777D01*
X-116906776Y271582000D01*
X-111401205Y271582000D01*
X-111379000Y271579813D01*
X-111356795Y271582000D01*
X-111290393Y271588540D01*
X-111205190Y271614386D01*
X-111126667Y271656357D01*
X-111057841Y271712841D01*
X-111043677Y271730100D01*
X-107138095Y275635681D01*
X-107120841Y275649841D01*
X-107064357Y275718667D01*
X-107022386Y275797190D01*
X-107006480Y275849624D01*
X-106996540Y275882392D01*
X-106987813Y275971000D01*
X-106990000Y275993205D01*
X-106990000Y276287661D01*
X-106978564Y276295302D01*
X-106877302Y276396564D01*
X-106797741Y276515636D01*
X-106742938Y276647942D01*
X-106715000Y276788397D01*
X-106715000Y276931603D01*
X-106742938Y277072058D01*
X-106797741Y277204364D01*
X-106877302Y277323436D01*
X-106978564Y277424698D01*
X-107097636Y277504259D01*
X-107229942Y277559062D01*
X-107370397Y277587000D01*
X-107513603Y277587000D01*
X-107654058Y277559062D01*
X-107786364Y277504259D01*
X-107905436Y277424698D01*
X-108006698Y277323436D01*
X-108086259Y277204364D01*
X-108141062Y277072058D01*
X-108169000Y276931603D01*
X-108169000Y276887602D01*
X-108193624Y277011396D01*
X-108263504Y277180099D01*
X-108364952Y277331928D01*
X-108494072Y277461048D01*
X-108645901Y277562496D01*
X-108814604Y277632376D01*
X-108993699Y277668000D01*
X-109176301Y277668000D01*
X-109355396Y277632376D01*
X-109524099Y277562496D01*
X-109527835Y277560000D01*
X-131218386Y277560000D01*
X-131259000Y277564000D01*
X-131299614Y277560000D01*
X-131299624Y277560000D01*
X-131421120Y277548034D01*
X-131577010Y277500745D01*
X-131643887Y277464998D01*
X-131720680Y277423952D01*
X-131805303Y277354503D01*
X-131846606Y277320606D01*
X-131872501Y277289053D01*
X-136286384Y272875169D01*
X-136496679Y272917000D01*
X-136807321Y272917000D01*
X-137111994Y272856396D01*
X-137398989Y272737519D01*
X-137657279Y272564936D01*
X-137876936Y272345279D01*
X-138049519Y272086989D01*
X-138168396Y271799994D01*
X-138229000Y271495321D01*
X-140618000Y271495321D01*
X-140618000Y281287785D01*
X-140593841Y281534189D01*
X-140122000Y281534189D01*
X-140122000Y281075811D01*
X-140032574Y280626239D01*
X-139857160Y280202752D01*
X-139602499Y279821624D01*
X-139278376Y279497501D01*
X-138897248Y279242840D01*
X-138473761Y279067426D01*
X-138024189Y278978000D01*
X-137565811Y278978000D01*
X-137116239Y279067426D01*
X-136692752Y279242840D01*
X-136311624Y279497501D01*
X-135987501Y279821624D01*
X-135732840Y280202752D01*
X-135557426Y280626239D01*
X-135468000Y281075811D01*
X-135468000Y281534189D01*
X-135557426Y281983761D01*
X-135606112Y282101301D01*
X-121577000Y282101301D01*
X-121577000Y281918699D01*
X-121541376Y281739604D01*
X-121471496Y281570901D01*
X-121370048Y281419072D01*
X-121240928Y281289952D01*
X-121089099Y281188504D01*
X-120920396Y281118624D01*
X-120741301Y281083000D01*
X-120558699Y281083000D01*
X-120379604Y281118624D01*
X-120210901Y281188504D01*
X-120059072Y281289952D01*
X-119929952Y281419072D01*
X-119828504Y281570901D01*
X-119764127Y281726320D01*
X-119527446Y281963000D01*
X-98474553Y281963000D01*
X-91037501Y274525947D01*
X-91011606Y274494394D01*
X-90980053Y274468499D01*
X-90980052Y274468498D01*
X-90885681Y274391048D01*
X-90785593Y274337550D01*
X-90742010Y274314255D01*
X-90732582Y274311395D01*
X-90732582Y273832000D01*
X-90726268Y273767897D01*
X-90707570Y273706257D01*
X-90677206Y273649450D01*
X-90636343Y273599657D01*
X-90586550Y273558794D01*
X-90529743Y273528430D01*
X-90468103Y273509732D01*
X-90404000Y273503418D01*
X-87904000Y273503418D01*
X-87839897Y273509732D01*
X-87778257Y273528430D01*
X-87721450Y273558794D01*
X-87671657Y273599657D01*
X-87630794Y273649450D01*
X-87600430Y273706257D01*
X-87581732Y273767897D01*
X-87575418Y273832000D01*
X-87575418Y276332000D01*
X-87581732Y276396103D01*
X-87600430Y276457743D01*
X-87630794Y276514550D01*
X-87671657Y276564343D01*
X-87721450Y276605206D01*
X-87778257Y276635570D01*
X-87839897Y276654268D01*
X-87904000Y276660582D01*
X-90404000Y276660582D01*
X-90468103Y276654268D01*
X-90529743Y276635570D01*
X-90586550Y276605206D01*
X-90636343Y276564343D01*
X-90677206Y276514550D01*
X-90680616Y276508170D01*
X-97518495Y283346048D01*
X-97544394Y283377606D01*
X-97670321Y283480952D01*
X-97813990Y283557745D01*
X-97969880Y283605034D01*
X-98091376Y283617000D01*
X-98091386Y283617000D01*
X-98132000Y283621000D01*
X-98172614Y283617000D01*
X-119829386Y283617000D01*
X-119870000Y283621000D01*
X-119910614Y283617000D01*
X-119910624Y283617000D01*
X-120032120Y283605034D01*
X-120140722Y283572090D01*
X-120188011Y283557745D01*
X-120331680Y283480952D01*
X-120426052Y283403503D01*
X-120426059Y283403496D01*
X-120457606Y283377606D01*
X-120483497Y283346058D01*
X-120933680Y282895873D01*
X-121089099Y282831496D01*
X-121240928Y282730048D01*
X-121370048Y282600928D01*
X-121471496Y282449099D01*
X-121541376Y282280396D01*
X-121577000Y282101301D01*
X-135606112Y282101301D01*
X-135732840Y282407248D01*
X-135987501Y282788376D01*
X-136311624Y283112499D01*
X-136692752Y283367160D01*
X-137116239Y283542574D01*
X-137565811Y283632000D01*
X-138024189Y283632000D01*
X-138473761Y283542574D01*
X-138897248Y283367160D01*
X-139278376Y283112499D01*
X-139602499Y282788376D01*
X-139857160Y282407248D01*
X-140032574Y281983761D01*
X-140122000Y281534189D01*
X-140593841Y281534189D01*
X-140562581Y281852998D01*
X-140403435Y282380114D01*
X-140144930Y282866291D01*
X-139796920Y283292994D01*
X-139372656Y283643974D01*
X-138888303Y283905864D01*
X-138362305Y284068686D01*
X-137798106Y284127987D01*
X-137794353Y284128000D01*
X-87012215Y284128000D01*
X-86693682Y284096768D01*
G37*
%TD.AperFunction*%
%TD*%
M02*
