M48
; DRILL file {KiCad 5.1.10} date Wed Jun 23 21:46:26 2021
; FORMAT={-:-/ absolute / metric / decimal}
; #@! TF.CreationDate,2021-06-23T21:46:26+08:00
; #@! TF.GenerationSoftware,Kicad,Pcbnew,5.1.10
; #@! TF.FileFunction,Plated,1,2,PTH
FMAT,2
METRIC
T1C0.400
T2C0.600
T3C0.700
T4C1.000
T5C1.300
T6C3.000
%
G90
G05
T1
X-130.72Y257.94
X-130.175Y266.065
X-128.905Y268.08
X-117.48Y257.64
X-107.442Y276.86
T2
X-120.65Y282.01
X-109.085Y276.741
T3
X-114.8Y267.86
X-114.8Y266.59
X-114.8Y265.32
X-112.26Y269.13
X-112.26Y267.86
X-112.26Y266.59
X-112.26Y265.32
X-112.26Y264.05
X-109.72Y269.13
X-109.72Y267.86
X-109.72Y266.59
X-109.72Y265.32
X-109.72Y264.05
X-107.18Y269.13
X-107.18Y267.86
X-107.18Y266.59
X-107.18Y265.32
X-107.18Y264.05
X-104.64Y267.86
X-104.64Y266.59
X-104.64Y265.32
T4
X-137.16Y249.428
X-134.62Y249.428
X-132.08Y249.428
X-129.54Y249.428
X-127.0Y249.428
X-124.46Y249.428
X-121.92Y249.428
X-119.38Y249.428
X-116.84Y249.428
X-114.3Y249.428
T5
X-136.652Y271.34
X-136.652Y266.34
X-136.652Y261.34
X-89.154Y280.082
X-89.154Y275.082
T6
X-137.795Y281.305
X-88.265Y250.19
T0
M30
