%TF.GenerationSoftware,KiCad,Pcbnew,5.1.10*%
%TF.CreationDate,2021-06-23T21:46:23+08:00*%
%TF.ProjectId,simplefoc,73696d70-6c65-4666-9f63-2e6b69636164,rev?*%
%TF.SameCoordinates,Original*%
%TF.FileFunction,Legend,Top*%
%TF.FilePolarity,Positive*%
%FSLAX46Y46*%
G04 Gerber Fmt 4.6, Leading zero omitted, Abs format (unit mm)*
G04 Created by KiCad (PCBNEW 5.1.10) date 2021-06-23 21:46:23*
%MOMM*%
%LPD*%
G01*
G04 APERTURE LIST*
%ADD10C,0.150000*%
%ADD11C,0.120000*%
%ADD12C,0.100000*%
G04 APERTURE END LIST*
D10*
X-114419047Y251571190D02*
X-114466666Y251475952D01*
X-114514285Y251428333D01*
X-114609523Y251380714D01*
X-114657142Y251380714D01*
X-114752380Y251428333D01*
X-114800000Y251475952D01*
X-114847619Y251571190D01*
X-114847619Y251761666D01*
X-114800000Y251856904D01*
X-114752380Y251904523D01*
X-114657142Y251952142D01*
X-114609523Y251952142D01*
X-114514285Y251904523D01*
X-114466666Y251856904D01*
X-114419047Y251761666D01*
X-114419047Y251571190D01*
X-114371428Y251475952D01*
X-114323809Y251428333D01*
X-114228571Y251380714D01*
X-114038095Y251380714D01*
X-113942857Y251428333D01*
X-113895238Y251475952D01*
X-113847619Y251571190D01*
X-113847619Y251761666D01*
X-113895238Y251856904D01*
X-113942857Y251904523D01*
X-114038095Y251952142D01*
X-114228571Y251952142D01*
X-114323809Y251904523D01*
X-114371428Y251856904D01*
X-114419047Y251761666D01*
X-114847619Y252237857D02*
X-113847619Y252571190D01*
X-114847619Y252904523D01*
X-133817500Y279773119D02*
X-133817500Y280773119D01*
X-133484166Y280058833D01*
X-133150833Y280773119D01*
X-133150833Y279773119D01*
X-132531785Y279773119D02*
X-132627023Y279820738D01*
X-132674642Y279868357D01*
X-132722261Y279963595D01*
X-132722261Y280249309D01*
X-132674642Y280344547D01*
X-132627023Y280392166D01*
X-132531785Y280439785D01*
X-132388928Y280439785D01*
X-132293690Y280392166D01*
X-132246071Y280344547D01*
X-132198452Y280249309D01*
X-132198452Y279963595D01*
X-132246071Y279868357D01*
X-132293690Y279820738D01*
X-132388928Y279773119D01*
X-132531785Y279773119D01*
X-131912738Y280439785D02*
X-131531785Y280439785D01*
X-131769880Y280773119D02*
X-131769880Y279915976D01*
X-131722261Y279820738D01*
X-131627023Y279773119D01*
X-131531785Y279773119D01*
X-131055595Y279773119D02*
X-131150833Y279820738D01*
X-131198452Y279868357D01*
X-131246071Y279963595D01*
X-131246071Y280249309D01*
X-131198452Y280344547D01*
X-131150833Y280392166D01*
X-131055595Y280439785D01*
X-130912738Y280439785D01*
X-130817500Y280392166D01*
X-130769880Y280344547D01*
X-130722261Y280249309D01*
X-130722261Y279963595D01*
X-130769880Y279868357D01*
X-130817500Y279820738D01*
X-130912738Y279773119D01*
X-131055595Y279773119D01*
X-130293690Y279773119D02*
X-130293690Y280439785D01*
X-130293690Y280249309D02*
X-130246071Y280344547D01*
X-130198452Y280392166D01*
X-130103214Y280439785D01*
X-130007976Y280439785D01*
X-129103214Y279868357D02*
X-129150833Y279820738D01*
X-129293690Y279773119D01*
X-129388928Y279773119D01*
X-129531785Y279820738D01*
X-129627023Y279915976D01*
X-129674642Y280011214D01*
X-129722261Y280201690D01*
X-129722261Y280344547D01*
X-129674642Y280535023D01*
X-129627023Y280630261D01*
X-129531785Y280725500D01*
X-129388928Y280773119D01*
X-129293690Y280773119D01*
X-129150833Y280725500D01*
X-129103214Y280677880D01*
X-128531785Y279773119D02*
X-128627023Y279820738D01*
X-128674642Y279868357D01*
X-128722261Y279963595D01*
X-128722261Y280249309D01*
X-128674642Y280344547D01*
X-128627023Y280392166D01*
X-128531785Y280439785D01*
X-128388928Y280439785D01*
X-128293690Y280392166D01*
X-128246071Y280344547D01*
X-128198452Y280249309D01*
X-128198452Y279963595D01*
X-128246071Y279868357D01*
X-128293690Y279820738D01*
X-128388928Y279773119D01*
X-128531785Y279773119D01*
X-127769880Y280439785D02*
X-127769880Y279773119D01*
X-127769880Y280344547D02*
X-127722261Y280392166D01*
X-127627023Y280439785D01*
X-127484166Y280439785D01*
X-127388928Y280392166D01*
X-127341309Y280296928D01*
X-127341309Y279773119D01*
X-127007976Y280439785D02*
X-126627023Y280439785D01*
X-126865119Y280773119D02*
X-126865119Y279915976D01*
X-126817500Y279820738D01*
X-126722261Y279773119D01*
X-126627023Y279773119D01*
X-126293690Y279773119D02*
X-126293690Y280439785D01*
X-126293690Y280249309D02*
X-126246071Y280344547D01*
X-126198452Y280392166D01*
X-126103214Y280439785D01*
X-126007976Y280439785D01*
X-125531785Y279773119D02*
X-125627023Y279820738D01*
X-125674642Y279868357D01*
X-125722261Y279963595D01*
X-125722261Y280249309D01*
X-125674642Y280344547D01*
X-125627023Y280392166D01*
X-125531785Y280439785D01*
X-125388928Y280439785D01*
X-125293690Y280392166D01*
X-125246071Y280344547D01*
X-125198452Y280249309D01*
X-125198452Y279963595D01*
X-125246071Y279868357D01*
X-125293690Y279820738D01*
X-125388928Y279773119D01*
X-125531785Y279773119D01*
X-124627023Y279773119D02*
X-124722261Y279820738D01*
X-124769880Y279915976D01*
X-124769880Y280773119D01*
X-123579404Y280439785D02*
X-123341309Y279773119D01*
X-123103214Y280439785D01*
X-122531785Y280773119D02*
X-122436547Y280773119D01*
X-122341309Y280725500D01*
X-122293690Y280677880D01*
X-122246071Y280582642D01*
X-122198452Y280392166D01*
X-122198452Y280154071D01*
X-122246071Y279963595D01*
X-122293690Y279868357D01*
X-122341309Y279820738D01*
X-122436547Y279773119D01*
X-122531785Y279773119D01*
X-122627023Y279820738D01*
X-122674642Y279868357D01*
X-122722261Y279963595D01*
X-122769880Y280154071D01*
X-122769880Y280392166D01*
X-122722261Y280582642D01*
X-122674642Y280677880D01*
X-122627023Y280725500D01*
X-122531785Y280773119D01*
X-121769880Y279868357D02*
X-121722261Y279820738D01*
X-121769880Y279773119D01*
X-121817500Y279820738D01*
X-121769880Y279868357D01*
X-121769880Y279773119D01*
X-120769880Y279773119D02*
X-121341309Y279773119D01*
X-121055595Y279773119D02*
X-121055595Y280773119D01*
X-121150833Y280630261D01*
X-121246071Y280535023D01*
X-121341309Y280487404D01*
X-95051500Y279400095D02*
X-95099119Y279304857D01*
X-95099119Y279162000D01*
X-95051500Y279019142D01*
X-94956261Y278923904D01*
X-94861023Y278876285D01*
X-94670547Y278828666D01*
X-94527690Y278828666D01*
X-94337214Y278876285D01*
X-94241976Y278923904D01*
X-94146738Y279019142D01*
X-94099119Y279162000D01*
X-94099119Y279257238D01*
X-94146738Y279400095D01*
X-94194357Y279447714D01*
X-94527690Y279447714D01*
X-94527690Y279257238D01*
X-94099119Y279876285D02*
X-95099119Y279876285D01*
X-94099119Y280447714D01*
X-95099119Y280447714D01*
X-94099119Y280923904D02*
X-95099119Y280923904D01*
X-95099119Y281162000D01*
X-95051500Y281304857D01*
X-94956261Y281400095D01*
X-94861023Y281447714D01*
X-94670547Y281495333D01*
X-94527690Y281495333D01*
X-94337214Y281447714D01*
X-94241976Y281400095D01*
X-94146738Y281304857D01*
X-94099119Y281162000D01*
X-94099119Y280923904D01*
X-94908619Y273558166D02*
X-93908619Y273891500D01*
X-94908619Y274224833D01*
X-94003857Y275129595D02*
X-93956238Y275081976D01*
X-93908619Y274939119D01*
X-93908619Y274843880D01*
X-93956238Y274701023D01*
X-94051476Y274605785D01*
X-94146714Y274558166D01*
X-94337190Y274510547D01*
X-94480047Y274510547D01*
X-94670523Y274558166D01*
X-94765761Y274605785D01*
X-94861000Y274701023D01*
X-94908619Y274843880D01*
X-94908619Y274939119D01*
X-94861000Y275081976D01*
X-94813380Y275129595D01*
X-94003857Y276129595D02*
X-93956238Y276081976D01*
X-93908619Y275939119D01*
X-93908619Y275843880D01*
X-93956238Y275701023D01*
X-94051476Y275605785D01*
X-94146714Y275558166D01*
X-94337190Y275510547D01*
X-94480047Y275510547D01*
X-94670523Y275558166D01*
X-94765761Y275605785D01*
X-94861000Y275701023D01*
X-94908619Y275843880D01*
X-94908619Y275939119D01*
X-94861000Y276081976D01*
X-94813380Y276129595D01*
X-116959047Y251571190D02*
X-117006666Y251475952D01*
X-117054285Y251428333D01*
X-117149523Y251380714D01*
X-117197142Y251380714D01*
X-117292380Y251428333D01*
X-117340000Y251475952D01*
X-117387619Y251571190D01*
X-117387619Y251761666D01*
X-117340000Y251856904D01*
X-117292380Y251904523D01*
X-117197142Y251952142D01*
X-117149523Y251952142D01*
X-117054285Y251904523D01*
X-117006666Y251856904D01*
X-116959047Y251761666D01*
X-116959047Y251571190D01*
X-116911428Y251475952D01*
X-116863809Y251428333D01*
X-116768571Y251380714D01*
X-116578095Y251380714D01*
X-116482857Y251428333D01*
X-116435238Y251475952D01*
X-116387619Y251571190D01*
X-116387619Y251761666D01*
X-116435238Y251856904D01*
X-116482857Y251904523D01*
X-116578095Y251952142D01*
X-116768571Y251952142D01*
X-116863809Y251904523D01*
X-116911428Y251856904D01*
X-116959047Y251761666D01*
X-117387619Y252237857D02*
X-116387619Y252571190D01*
X-117387619Y252904523D01*
X-119451428Y251356904D02*
X-119451428Y251690238D01*
X-118927619Y251833095D02*
X-118927619Y251356904D01*
X-119927619Y251356904D01*
X-119927619Y251833095D01*
X-118927619Y252261666D02*
X-119927619Y252261666D01*
X-118927619Y252833095D01*
X-119927619Y252833095D01*
X-121467619Y251095000D02*
X-122467619Y251095000D01*
X-121467619Y251571190D02*
X-122467619Y251571190D01*
X-121467619Y252142619D01*
X-122467619Y252142619D01*
X-121467619Y253142619D02*
X-121467619Y252571190D01*
X-121467619Y252856904D02*
X-122467619Y252856904D01*
X-122324761Y252761666D01*
X-122229523Y252666428D01*
X-122181904Y252571190D01*
X-124007619Y251095000D02*
X-125007619Y251095000D01*
X-124007619Y251571190D02*
X-125007619Y251571190D01*
X-124007619Y252142619D01*
X-125007619Y252142619D01*
X-124912380Y252571190D02*
X-124960000Y252618809D01*
X-125007619Y252714047D01*
X-125007619Y252952142D01*
X-124960000Y253047380D01*
X-124912380Y253095000D01*
X-124817142Y253142619D01*
X-124721904Y253142619D01*
X-124579047Y253095000D01*
X-124007619Y252523571D01*
X-124007619Y253142619D01*
X-126547619Y251095000D02*
X-127547619Y251095000D01*
X-126547619Y251571190D02*
X-127547619Y251571190D01*
X-126547619Y252142619D01*
X-127547619Y252142619D01*
X-127547619Y252523571D02*
X-127547619Y253142619D01*
X-127166666Y252809285D01*
X-127166666Y252952142D01*
X-127119047Y253047380D01*
X-127071428Y253095000D01*
X-126976190Y253142619D01*
X-126738095Y253142619D01*
X-126642857Y253095000D01*
X-126595238Y253047380D01*
X-126547619Y252952142D01*
X-126547619Y252666428D01*
X-126595238Y252571190D01*
X-126642857Y252523571D01*
X-129182857Y251928333D02*
X-129135238Y251880714D01*
X-129087619Y251737857D01*
X-129087619Y251642619D01*
X-129135238Y251499761D01*
X-129230476Y251404523D01*
X-129325714Y251356904D01*
X-129516190Y251309285D01*
X-129659047Y251309285D01*
X-129849523Y251356904D01*
X-129944761Y251404523D01*
X-130040000Y251499761D01*
X-130087619Y251642619D01*
X-130087619Y251737857D01*
X-130040000Y251880714D01*
X-129992380Y251928333D01*
X-129087619Y252880714D02*
X-129087619Y252309285D01*
X-129087619Y252595000D02*
X-130087619Y252595000D01*
X-129944761Y252499761D01*
X-129849523Y252404523D01*
X-129801904Y252309285D01*
X-131722857Y251928333D02*
X-131675238Y251880714D01*
X-131627619Y251737857D01*
X-131627619Y251642619D01*
X-131675238Y251499761D01*
X-131770476Y251404523D01*
X-131865714Y251356904D01*
X-132056190Y251309285D01*
X-132199047Y251309285D01*
X-132389523Y251356904D01*
X-132484761Y251404523D01*
X-132580000Y251499761D01*
X-132627619Y251642619D01*
X-132627619Y251737857D01*
X-132580000Y251880714D01*
X-132532380Y251928333D01*
X-132532380Y252309285D02*
X-132580000Y252356904D01*
X-132627619Y252452142D01*
X-132627619Y252690238D01*
X-132580000Y252785476D01*
X-132532380Y252833095D01*
X-132437142Y252880714D01*
X-132341904Y252880714D01*
X-132199047Y252833095D01*
X-131627619Y252261666D01*
X-131627619Y252880714D01*
X-135167619Y251206190D02*
X-134167619Y251539523D01*
X-135167619Y251872857D01*
X-134167619Y252206190D02*
X-135167619Y252206190D01*
X-134167619Y252682380D02*
X-135167619Y252682380D01*
X-134167619Y253253809D01*
X-135167619Y253253809D01*
X-134453333Y253682380D02*
X-134453333Y254158571D01*
X-134167619Y253587142D02*
X-135167619Y253920476D01*
X-134167619Y254253809D01*
X-137660000Y251485476D02*
X-137707619Y251409285D01*
X-137707619Y251295000D01*
X-137660000Y251180714D01*
X-137564761Y251104523D01*
X-137469523Y251066428D01*
X-137279047Y251028333D01*
X-137136190Y251028333D01*
X-136945714Y251066428D01*
X-136850476Y251104523D01*
X-136755238Y251180714D01*
X-136707619Y251295000D01*
X-136707619Y251371190D01*
X-136755238Y251485476D01*
X-136802857Y251523571D01*
X-137136190Y251523571D01*
X-137136190Y251371190D01*
X-136707619Y251866428D02*
X-137707619Y251866428D01*
X-136707619Y252323571D01*
X-137707619Y252323571D01*
X-136707619Y252704523D02*
X-137707619Y252704523D01*
X-137707619Y252895000D01*
X-137660000Y253009285D01*
X-137564761Y253085476D01*
X-137469523Y253123571D01*
X-137279047Y253161666D01*
X-137136190Y253161666D01*
X-136945714Y253123571D01*
X-136850476Y253085476D01*
X-136755238Y253009285D01*
X-136707619Y252895000D01*
X-136707619Y252704523D01*
D11*
%TO.C,CAP2*%
X-100554500Y254560000D02*
X-102254500Y254560000D01*
X-106074500Y254560000D02*
X-104374500Y254560000D01*
X-106074500Y250104437D02*
X-106074500Y254560000D01*
X-100554500Y250104437D02*
X-100554500Y254560000D01*
X-101618937Y249040000D02*
X-102254500Y249040000D01*
X-105010063Y249040000D02*
X-104374500Y249040000D01*
X-105010063Y249040000D02*
X-106074500Y250104437D01*
X-101618937Y249040000D02*
X-100554500Y250104437D01*
X-104999500Y248175000D02*
X-104999500Y248800000D01*
X-105312000Y248487500D02*
X-104687000Y248487500D01*
%TO.C,REF\u002A\u002A*%
X-85979000Y250190000D02*
G75*
G03*
X-85979000Y250190000I-2286000J0D01*
G01*
X-135509000Y281305000D02*
G75*
G03*
X-135509000Y281305000I-2286000J0D01*
G01*
%TO.C,C4*%
X-115676000Y281927752D02*
X-115676000Y280505248D01*
X-117496000Y281927752D02*
X-117496000Y280505248D01*
%TO.C,C2*%
X-108606000Y281927752D02*
X-108606000Y280505248D01*
X-106786000Y281927752D02*
X-106786000Y280505248D01*
%TO.C,BAT1*%
X-111270000Y279532000D02*
X-111270000Y280462000D01*
X-111270000Y282692000D02*
X-111270000Y281762000D01*
X-111270000Y282692000D02*
X-113430000Y282692000D01*
X-111270000Y279532000D02*
X-112730000Y279532000D01*
%TO.C,C1*%
X-90064000Y266458248D02*
X-90064000Y267880752D01*
X-88244000Y266458248D02*
X-88244000Y267880752D01*
%TO.C,C3*%
X-99403248Y279294000D02*
X-100825752Y279294000D01*
X-99403248Y277474000D02*
X-100825752Y277474000D01*
%TO.C,CAP1*%
X-99288000Y263358000D02*
X-96938000Y263358000D01*
X-92468000Y263358000D02*
X-94818000Y263358000D01*
X-92468000Y269113563D02*
X-92468000Y263358000D01*
X-99288000Y269113563D02*
X-99288000Y263358000D01*
X-98223563Y270178000D02*
X-96938000Y270178000D01*
X-93532437Y270178000D02*
X-94818000Y270178000D01*
X-93532437Y270178000D02*
X-92468000Y269113563D01*
X-98223563Y270178000D02*
X-99288000Y269113563D01*
X-94030500Y271205500D02*
X-94030500Y270418000D01*
X-93636750Y270811750D02*
X-94424250Y270811750D01*
%TO.C,CBY1*%
X-125533752Y266970000D02*
X-124111248Y266970000D01*
X-125533752Y265150000D02*
X-124111248Y265150000D01*
%TO.C,INA1*%
X-125105500Y262041000D02*
X-127305500Y262041000D01*
X-125105500Y262041000D02*
X-122905500Y262041000D01*
X-125105500Y258821000D02*
X-127305500Y258821000D01*
X-125105500Y258821000D02*
X-121505500Y258821000D01*
%TO.C,INA2*%
X-125105500Y269698000D02*
X-121505500Y269698000D01*
X-125105500Y269698000D02*
X-127305500Y269698000D01*
X-125105500Y272918000D02*
X-122905500Y272918000D01*
X-125105500Y272918000D02*
X-127305500Y272918000D01*
D12*
%TO.C,J1*%
X-85304000Y282682000D02*
X-85304000Y282182000D01*
X-85304000Y282682000D02*
X-85804000Y282682000D01*
X-85304000Y272482000D02*
X-85804000Y272482000D01*
X-85304000Y272482000D02*
X-85304000Y272982000D01*
X-93004000Y272482000D02*
X-93004000Y272982000D01*
X-93004000Y272482000D02*
X-92554000Y272482000D01*
X-93004000Y282682000D02*
X-92554000Y282682000D01*
X-93004000Y282682000D02*
X-93004000Y282182000D01*
%TO.C,J3*%
X-132802000Y273940000D02*
X-132802000Y273440000D01*
X-132802000Y273940000D02*
X-133302000Y273940000D01*
X-132802000Y258740000D02*
X-133302000Y258740000D01*
X-132802000Y258740000D02*
X-132802000Y259240000D01*
X-140502000Y258740000D02*
X-140502000Y259240000D01*
X-140502000Y258740000D02*
X-140052000Y258740000D01*
X-140502000Y273940000D02*
X-140052000Y273940000D01*
X-140502000Y273940000D02*
X-140502000Y273440000D01*
D11*
%TO.C,L1*%
X-92410000Y260498000D02*
X-93910000Y260498000D01*
X-93910000Y260498000D02*
X-93910000Y260228000D01*
X-93910000Y260228000D02*
X-96740000Y260228000D01*
X-92410000Y253598000D02*
X-93910000Y253598000D01*
X-93910000Y253598000D02*
X-93910000Y253868000D01*
X-93910000Y253868000D02*
X-95010000Y253868000D01*
%TO.C,R2*%
X-109072000Y253229064D02*
X-109072000Y251774936D01*
X-110892000Y253229064D02*
X-110892000Y251774936D01*
%TO.C,RCS1*%
X-122740936Y254571000D02*
X-127095064Y254571000D01*
X-122740936Y257991000D02*
X-127095064Y257991000D01*
%TO.C,RCS2*%
X-127095064Y273748000D02*
X-122740936Y273748000D01*
X-127095064Y277168000D02*
X-122740936Y277168000D01*
%TO.C,U1*%
X-117770000Y272190000D02*
X-116020000Y272190000D01*
X-101670000Y272190000D02*
X-103420000Y272190000D01*
X-101670000Y264590000D02*
X-101670000Y260990000D01*
X-101670000Y260990000D02*
X-103420000Y260990000D01*
X-117770000Y272190000D02*
X-117770000Y268590000D01*
X-117770000Y260990000D02*
X-116020000Y260990000D01*
X-116020000Y260990000D02*
X-116020000Y258990000D01*
X-117770000Y264590000D02*
X-117770000Y260990000D01*
X-101670000Y272190000D02*
X-101670000Y268590000D01*
%TO.C,J2*%
X-112970000Y249428000D02*
X-112970000Y248098000D01*
X-112970000Y248098000D02*
X-114300000Y248098000D01*
X-115570000Y248098000D02*
X-138490000Y248098000D01*
X-138490000Y250758000D02*
X-138490000Y248098000D01*
X-115570000Y250758000D02*
X-138490000Y250758000D01*
X-115570000Y250758000D02*
X-115570000Y248098000D01*
%TO.C,CAP2*%
D10*
X-99210857Y251761761D02*
X-99163238Y251714142D01*
X-99115619Y251571285D01*
X-99115619Y251476047D01*
X-99163238Y251333190D01*
X-99258476Y251237952D01*
X-99353714Y251190333D01*
X-99544190Y251142714D01*
X-99687047Y251142714D01*
X-99877523Y251190333D01*
X-99972761Y251237952D01*
X-100068000Y251333190D01*
X-100115619Y251476047D01*
X-100115619Y251571285D01*
X-100068000Y251714142D01*
X-100020380Y251761761D01*
X-99401333Y252142714D02*
X-99401333Y252618904D01*
X-99115619Y252047476D02*
X-100115619Y252380809D01*
X-99115619Y252714142D01*
X-99115619Y253047476D02*
X-100115619Y253047476D01*
X-100115619Y253428428D01*
X-100068000Y253523666D01*
X-100020380Y253571285D01*
X-99925142Y253618904D01*
X-99782285Y253618904D01*
X-99687047Y253571285D01*
X-99639428Y253523666D01*
X-99591809Y253428428D01*
X-99591809Y253047476D01*
X-100020380Y253999857D02*
X-100068000Y254047476D01*
X-100115619Y254142714D01*
X-100115619Y254380809D01*
X-100068000Y254476047D01*
X-100020380Y254523666D01*
X-99925142Y254571285D01*
X-99829904Y254571285D01*
X-99687047Y254523666D01*
X-99115619Y253952238D01*
X-99115619Y254571285D01*
%TO.C,C4*%
X-114378857Y281049833D02*
X-114331238Y281002214D01*
X-114283619Y280859357D01*
X-114283619Y280764119D01*
X-114331238Y280621261D01*
X-114426476Y280526023D01*
X-114521714Y280478404D01*
X-114712190Y280430785D01*
X-114855047Y280430785D01*
X-115045523Y280478404D01*
X-115140761Y280526023D01*
X-115236000Y280621261D01*
X-115283619Y280764119D01*
X-115283619Y280859357D01*
X-115236000Y281002214D01*
X-115188380Y281049833D01*
X-114950285Y281906976D02*
X-114283619Y281906976D01*
X-115331238Y281668880D02*
X-114616952Y281430785D01*
X-114616952Y282049833D01*
%TO.C,C2*%
X-105488857Y281049833D02*
X-105441238Y281002214D01*
X-105393619Y280859357D01*
X-105393619Y280764119D01*
X-105441238Y280621261D01*
X-105536476Y280526023D01*
X-105631714Y280478404D01*
X-105822190Y280430785D01*
X-105965047Y280430785D01*
X-106155523Y280478404D01*
X-106250761Y280526023D01*
X-106346000Y280621261D01*
X-106393619Y280764119D01*
X-106393619Y280859357D01*
X-106346000Y281002214D01*
X-106298380Y281049833D01*
X-106298380Y281430785D02*
X-106346000Y281478404D01*
X-106393619Y281573642D01*
X-106393619Y281811738D01*
X-106346000Y281906976D01*
X-106298380Y281954595D01*
X-106203142Y282002214D01*
X-106107904Y282002214D01*
X-105965047Y281954595D01*
X-105393619Y281383166D01*
X-105393619Y282002214D01*
%TO.C,BAT1*%
X-113228285Y278455428D02*
X-113085428Y278407809D01*
X-113037809Y278360190D01*
X-112990190Y278264952D01*
X-112990190Y278122095D01*
X-113037809Y278026857D01*
X-113085428Y277979238D01*
X-113180666Y277931619D01*
X-113561619Y277931619D01*
X-113561619Y278931619D01*
X-113228285Y278931619D01*
X-113133047Y278884000D01*
X-113085428Y278836380D01*
X-113037809Y278741142D01*
X-113037809Y278645904D01*
X-113085428Y278550666D01*
X-113133047Y278503047D01*
X-113228285Y278455428D01*
X-113561619Y278455428D01*
X-112609238Y278217333D02*
X-112133047Y278217333D01*
X-112704476Y277931619D02*
X-112371142Y278931619D01*
X-112037809Y277931619D01*
X-111847333Y278931619D02*
X-111275904Y278931619D01*
X-111561619Y277931619D02*
X-111561619Y278931619D01*
X-110418761Y277931619D02*
X-110990190Y277931619D01*
X-110704476Y277931619D02*
X-110704476Y278931619D01*
X-110799714Y278788761D01*
X-110894952Y278693523D01*
X-110990190Y278645904D01*
%TO.C,C1*%
X-86764857Y267041333D02*
X-86717238Y266993714D01*
X-86669619Y266850857D01*
X-86669619Y266755619D01*
X-86717238Y266612761D01*
X-86812476Y266517523D01*
X-86907714Y266469904D01*
X-87098190Y266422285D01*
X-87241047Y266422285D01*
X-87431523Y266469904D01*
X-87526761Y266517523D01*
X-87622000Y266612761D01*
X-87669619Y266755619D01*
X-87669619Y266850857D01*
X-87622000Y266993714D01*
X-87574380Y267041333D01*
X-86669619Y267993714D02*
X-86669619Y267422285D01*
X-86669619Y267708000D02*
X-87669619Y267708000D01*
X-87526761Y267612761D01*
X-87431523Y267517523D01*
X-87383904Y267422285D01*
%TO.C,C3*%
X-100281166Y279804857D02*
X-100328785Y279757238D01*
X-100471642Y279709619D01*
X-100566880Y279709619D01*
X-100709738Y279757238D01*
X-100804976Y279852476D01*
X-100852595Y279947714D01*
X-100900214Y280138190D01*
X-100900214Y280281047D01*
X-100852595Y280471523D01*
X-100804976Y280566761D01*
X-100709738Y280662000D01*
X-100566880Y280709619D01*
X-100471642Y280709619D01*
X-100328785Y280662000D01*
X-100281166Y280614380D01*
X-99947833Y280709619D02*
X-99328785Y280709619D01*
X-99662119Y280328666D01*
X-99519261Y280328666D01*
X-99424023Y280281047D01*
X-99376404Y280233428D01*
X-99328785Y280138190D01*
X-99328785Y279900095D01*
X-99376404Y279804857D01*
X-99424023Y279757238D01*
X-99519261Y279709619D01*
X-99804976Y279709619D01*
X-99900214Y279757238D01*
X-99947833Y279804857D01*
%TO.C,CAP1*%
X-91170857Y265672761D02*
X-91123238Y265625142D01*
X-91075619Y265482285D01*
X-91075619Y265387047D01*
X-91123238Y265244190D01*
X-91218476Y265148952D01*
X-91313714Y265101333D01*
X-91504190Y265053714D01*
X-91647047Y265053714D01*
X-91837523Y265101333D01*
X-91932761Y265148952D01*
X-92028000Y265244190D01*
X-92075619Y265387047D01*
X-92075619Y265482285D01*
X-92028000Y265625142D01*
X-91980380Y265672761D01*
X-91361333Y266053714D02*
X-91361333Y266529904D01*
X-91075619Y265958476D02*
X-92075619Y266291809D01*
X-91075619Y266625142D01*
X-91075619Y266958476D02*
X-92075619Y266958476D01*
X-92075619Y267339428D01*
X-92028000Y267434666D01*
X-91980380Y267482285D01*
X-91885142Y267529904D01*
X-91742285Y267529904D01*
X-91647047Y267482285D01*
X-91599428Y267434666D01*
X-91551809Y267339428D01*
X-91551809Y266958476D01*
X-91075619Y268482285D02*
X-91075619Y267910857D01*
X-91075619Y268196571D02*
X-92075619Y268196571D01*
X-91932761Y268101333D01*
X-91837523Y268006095D01*
X-91789904Y267910857D01*
%TO.C,CBY1*%
X-128177857Y264964761D02*
X-128130238Y264917142D01*
X-128082619Y264774285D01*
X-128082619Y264679047D01*
X-128130238Y264536190D01*
X-128225476Y264440952D01*
X-128320714Y264393333D01*
X-128511190Y264345714D01*
X-128654047Y264345714D01*
X-128844523Y264393333D01*
X-128939761Y264440952D01*
X-129035000Y264536190D01*
X-129082619Y264679047D01*
X-129082619Y264774285D01*
X-129035000Y264917142D01*
X-128987380Y264964761D01*
X-128606428Y265726666D02*
X-128558809Y265869523D01*
X-128511190Y265917142D01*
X-128415952Y265964761D01*
X-128273095Y265964761D01*
X-128177857Y265917142D01*
X-128130238Y265869523D01*
X-128082619Y265774285D01*
X-128082619Y265393333D01*
X-129082619Y265393333D01*
X-129082619Y265726666D01*
X-129035000Y265821904D01*
X-128987380Y265869523D01*
X-128892142Y265917142D01*
X-128796904Y265917142D01*
X-128701666Y265869523D01*
X-128654047Y265821904D01*
X-128606428Y265726666D01*
X-128606428Y265393333D01*
X-128558809Y266583809D02*
X-128082619Y266583809D01*
X-129082619Y266250476D02*
X-128558809Y266583809D01*
X-129082619Y266917142D01*
X-128082619Y267774285D02*
X-128082619Y267202857D01*
X-128082619Y267488571D02*
X-129082619Y267488571D01*
X-128939761Y267393333D01*
X-128844523Y267298095D01*
X-128796904Y267202857D01*
%TO.C,INA1*%
X-129553119Y259297428D02*
X-130553119Y259297428D01*
X-129553119Y259773619D02*
X-130553119Y259773619D01*
X-129553119Y260345047D01*
X-130553119Y260345047D01*
X-129838833Y260773619D02*
X-129838833Y261249809D01*
X-129553119Y260678380D02*
X-130553119Y261011714D01*
X-129553119Y261345047D01*
X-129553119Y262202190D02*
X-129553119Y261630761D01*
X-129553119Y261916476D02*
X-130553119Y261916476D01*
X-130410261Y261821238D01*
X-130315023Y261726000D01*
X-130267404Y261630761D01*
%TO.C,INA2*%
X-129573119Y269584428D02*
X-130573119Y269584428D01*
X-129573119Y270060619D02*
X-130573119Y270060619D01*
X-129573119Y270632047D01*
X-130573119Y270632047D01*
X-129858833Y271060619D02*
X-129858833Y271536809D01*
X-129573119Y270965380D02*
X-130573119Y271298714D01*
X-129573119Y271632047D01*
X-130477880Y271917761D02*
X-130525500Y271965380D01*
X-130573119Y272060619D01*
X-130573119Y272298714D01*
X-130525500Y272393952D01*
X-130477880Y272441571D01*
X-130382642Y272489190D01*
X-130287404Y272489190D01*
X-130144547Y272441571D01*
X-129573119Y271870142D01*
X-129573119Y272489190D01*
%TO.C,L1*%
X-91606666Y261095619D02*
X-92082857Y261095619D01*
X-92082857Y262095619D01*
X-90749523Y261095619D02*
X-91320952Y261095619D01*
X-91035238Y261095619D02*
X-91035238Y262095619D01*
X-91130476Y261952761D01*
X-91225714Y261857523D01*
X-91320952Y261809904D01*
%TO.C,R2*%
X-107709619Y252335333D02*
X-108185809Y252002000D01*
X-107709619Y251763904D02*
X-108709619Y251763904D01*
X-108709619Y252144857D01*
X-108662000Y252240095D01*
X-108614380Y252287714D01*
X-108519142Y252335333D01*
X-108376285Y252335333D01*
X-108281047Y252287714D01*
X-108233428Y252240095D01*
X-108185809Y252144857D01*
X-108185809Y251763904D01*
X-108614380Y252716285D02*
X-108662000Y252763904D01*
X-108709619Y252859142D01*
X-108709619Y253097238D01*
X-108662000Y253192476D01*
X-108614380Y253240095D01*
X-108519142Y253287714D01*
X-108423904Y253287714D01*
X-108281047Y253240095D01*
X-107709619Y252668666D01*
X-107709619Y253287714D01*
%TO.C,RCS1*%
X-129341619Y254889142D02*
X-129817809Y254555809D01*
X-129341619Y254317714D02*
X-130341619Y254317714D01*
X-130341619Y254698666D01*
X-130294000Y254793904D01*
X-130246380Y254841523D01*
X-130151142Y254889142D01*
X-130008285Y254889142D01*
X-129913047Y254841523D01*
X-129865428Y254793904D01*
X-129817809Y254698666D01*
X-129817809Y254317714D01*
X-129436857Y255889142D02*
X-129389238Y255841523D01*
X-129341619Y255698666D01*
X-129341619Y255603428D01*
X-129389238Y255460571D01*
X-129484476Y255365333D01*
X-129579714Y255317714D01*
X-129770190Y255270095D01*
X-129913047Y255270095D01*
X-130103523Y255317714D01*
X-130198761Y255365333D01*
X-130294000Y255460571D01*
X-130341619Y255603428D01*
X-130341619Y255698666D01*
X-130294000Y255841523D01*
X-130246380Y255889142D01*
X-129389238Y256270095D02*
X-129341619Y256412952D01*
X-129341619Y256651047D01*
X-129389238Y256746285D01*
X-129436857Y256793904D01*
X-129532095Y256841523D01*
X-129627333Y256841523D01*
X-129722571Y256793904D01*
X-129770190Y256746285D01*
X-129817809Y256651047D01*
X-129865428Y256460571D01*
X-129913047Y256365333D01*
X-129960666Y256317714D01*
X-130055904Y256270095D01*
X-130151142Y256270095D01*
X-130246380Y256317714D01*
X-130294000Y256365333D01*
X-130341619Y256460571D01*
X-130341619Y256698666D01*
X-130294000Y256841523D01*
X-129341619Y257793904D02*
X-129341619Y257222476D01*
X-129341619Y257508190D02*
X-130341619Y257508190D01*
X-130198761Y257412952D01*
X-130103523Y257317714D01*
X-130055904Y257222476D01*
%TO.C,RCS2*%
X-129420619Y274315142D02*
X-129896809Y273981809D01*
X-129420619Y273743714D02*
X-130420619Y273743714D01*
X-130420619Y274124666D01*
X-130373000Y274219904D01*
X-130325380Y274267523D01*
X-130230142Y274315142D01*
X-130087285Y274315142D01*
X-129992047Y274267523D01*
X-129944428Y274219904D01*
X-129896809Y274124666D01*
X-129896809Y273743714D01*
X-129515857Y275315142D02*
X-129468238Y275267523D01*
X-129420619Y275124666D01*
X-129420619Y275029428D01*
X-129468238Y274886571D01*
X-129563476Y274791333D01*
X-129658714Y274743714D01*
X-129849190Y274696095D01*
X-129992047Y274696095D01*
X-130182523Y274743714D01*
X-130277761Y274791333D01*
X-130373000Y274886571D01*
X-130420619Y275029428D01*
X-130420619Y275124666D01*
X-130373000Y275267523D01*
X-130325380Y275315142D01*
X-129468238Y275696095D02*
X-129420619Y275838952D01*
X-129420619Y276077047D01*
X-129468238Y276172285D01*
X-129515857Y276219904D01*
X-129611095Y276267523D01*
X-129706333Y276267523D01*
X-129801571Y276219904D01*
X-129849190Y276172285D01*
X-129896809Y276077047D01*
X-129944428Y275886571D01*
X-129992047Y275791333D01*
X-130039666Y275743714D01*
X-130134904Y275696095D01*
X-130230142Y275696095D01*
X-130325380Y275743714D01*
X-130373000Y275791333D01*
X-130420619Y275886571D01*
X-130420619Y276124666D01*
X-130373000Y276267523D01*
X-130325380Y276648476D02*
X-130373000Y276696095D01*
X-130420619Y276791333D01*
X-130420619Y277029428D01*
X-130373000Y277124666D01*
X-130325380Y277172285D01*
X-130230142Y277219904D01*
X-130134904Y277219904D01*
X-129992047Y277172285D01*
X-129420619Y276600857D01*
X-129420619Y277219904D01*
%TO.C,U1*%
X-119267619Y265828095D02*
X-118458095Y265828095D01*
X-118362857Y265875714D01*
X-118315238Y265923333D01*
X-118267619Y266018571D01*
X-118267619Y266209047D01*
X-118315238Y266304285D01*
X-118362857Y266351904D01*
X-118458095Y266399523D01*
X-119267619Y266399523D01*
X-118267619Y267399523D02*
X-118267619Y266828095D01*
X-118267619Y267113809D02*
X-119267619Y267113809D01*
X-119124761Y267018571D01*
X-119029523Y266923333D01*
X-118981904Y266828095D01*
%TD*%
M02*
