M48
; DRILL file {KiCad 5.1.9} date Fri May  7 09:40:00 2021
; FORMAT={-:-/ absolute / metric / decimal}
; #@! TF.CreationDate,2021-05-07T09:40:00+08:00
; #@! TF.GenerationSoftware,Kicad,Pcbnew,5.1.9
; #@! TF.FileFunction,Plated,1,2,PTH
FMAT,2
METRIC
T1C0.950
T2C1.000
T3C1.700
T4C3.000
%
G90
G05
T1
X147.255Y-62.255
X147.255Y-64.755
X147.255Y-67.255
X147.255Y-69.755
X147.255Y-72.255
X147.255Y-74.755
X147.255Y-83.845
X147.255Y-86.345
X147.255Y-88.845
X147.255Y-91.345
X147.255Y-93.845
X147.255Y-96.345
T2
X95.71Y-44.99
X95.71Y-60.23
X95.71Y-70.39
X95.71Y-72.93
X95.71Y-75.47
X95.71Y-78.01
X95.71Y-80.55
X95.71Y-83.09
X95.71Y-85.63
X95.71Y-88.17
X95.71Y-90.71
X95.71Y-93.25
X95.71Y-95.79
X95.71Y-98.33
X95.71Y-100.87
X95.71Y-103.41
X95.71Y-105.95
X95.71Y-108.49
X95.71Y-111.03
X95.71Y-113.57
X95.71Y-116.11
X95.71Y-118.65
X98.25Y-44.99
X98.25Y-60.23
X100.79Y-44.99
X100.79Y-60.23
X103.33Y-44.99
X103.33Y-60.23
X105.87Y-44.99
X105.87Y-60.23
X108.41Y-44.99
X108.41Y-60.23
X110.95Y-44.99
X110.95Y-60.23
X113.49Y-44.99
X113.49Y-60.23
X118.57Y-70.39
X118.57Y-72.93
X118.57Y-75.47
X118.57Y-78.01
X118.57Y-80.55
X118.57Y-83.09
X118.57Y-85.63
X118.57Y-88.17
X118.57Y-90.71
X118.57Y-93.25
X118.57Y-95.79
X118.57Y-98.33
X118.57Y-100.87
X118.57Y-103.41
X118.57Y-105.95
X118.57Y-108.49
X118.57Y-111.03
X118.57Y-113.57
X118.57Y-116.11
X118.57Y-118.65
X129.46Y-100.87
X129.46Y-103.41
X129.46Y-105.95
X129.46Y-108.49
X129.46Y-111.03
X129.46Y-113.57
X129.46Y-116.11
X129.46Y-118.65
T3
X135.825Y-49.84
X135.825Y-53.8
T4
X89.5Y-44.5
X89.5Y-119.5
X150.5Y-44.5
X150.5Y-119.5
T0
M30
