%TF.GenerationSoftware,KiCad,Pcbnew,5.1.9*%
%TF.CreationDate,2021-05-07T09:39:52+08:00*%
%TF.ProjectId,control_board,636f6e74-726f-46c5-9f62-6f6172642e6b,rev?*%
%TF.SameCoordinates,Original*%
%TF.FileFunction,Copper,L1,Top*%
%TF.FilePolarity,Positive*%
%FSLAX46Y46*%
G04 Gerber Fmt 4.6, Leading zero omitted, Abs format (unit mm)*
G04 Created by KiCad (PCBNEW 5.1.9) date 2021-05-07 09:39:52*
%MOMM*%
%LPD*%
G01*
G04 APERTURE LIST*
%TA.AperFunction,ComponentPad*%
%ADD10C,4.000000*%
%TD*%
%TA.AperFunction,ComponentPad*%
%ADD11O,1.700000X1.700000*%
%TD*%
%TA.AperFunction,ComponentPad*%
%ADD12O,1.950000X1.700000*%
%TD*%
%TA.AperFunction,ComponentPad*%
%ADD13C,2.700000*%
%TD*%
%TA.AperFunction,ComponentPad*%
%ADD14R,1.700000X1.700000*%
%TD*%
%TA.AperFunction,Conductor*%
%ADD15C,1.000000*%
%TD*%
%TA.AperFunction,Conductor*%
%ADD16C,0.500000*%
%TD*%
%TA.AperFunction,Conductor*%
%ADD17C,0.254000*%
%TD*%
%TA.AperFunction,Conductor*%
%ADD18C,0.100000*%
%TD*%
G04 APERTURE END LIST*
D10*
%TO.P,REF\u002A\u002A,1*%
%TO.N,N/C*%
X89500000Y-119500000D03*
%TD*%
D11*
%TO.P,U3,1*%
%TO.N,+6V*%
X113490000Y-44990000D03*
%TO.P,U3,2*%
%TO.N,VCC*%
X110950000Y-44990000D03*
%TO.P,U3,3*%
%TO.N,GND*%
X108410000Y-44990000D03*
%TO.P,U3,4*%
%TO.N,/A1*%
X105870000Y-44990000D03*
%TO.P,U3,5*%
%TO.N,/A2*%
X103330000Y-44990000D03*
%TO.P,U3,6*%
%TO.N,/B2*%
X100790000Y-44990000D03*
%TO.P,U3,7*%
%TO.N,/B1*%
X98250000Y-44990000D03*
%TO.P,U3,8*%
%TO.N,GND*%
X95710000Y-44990000D03*
%TO.P,U3,9*%
%TO.N,/P19*%
X113490000Y-60230000D03*
%TO.P,U3,10*%
%TO.N,/P18*%
X110950000Y-60230000D03*
%TO.P,U3,11*%
%TO.N,/P17*%
X108410000Y-60230000D03*
%TO.P,U3,12*%
%TO.N,/P16*%
X105870000Y-60230000D03*
%TO.P,U3,13*%
%TO.N,/P27*%
X103330000Y-60230000D03*
%TO.P,U3,14*%
%TO.N,/P26*%
X100790000Y-60230000D03*
%TO.P,U3,15*%
%TO.N,/P25*%
X98250000Y-60230000D03*
%TO.P,U3,16*%
%TO.N,GND*%
X95710000Y-60230000D03*
%TD*%
D10*
%TO.P,REF\u002A\u002A,1*%
%TO.N,N/C*%
X150500000Y-119500000D03*
%TD*%
%TO.P,REF\u002A\u002A,1*%
%TO.N,N/C*%
X150500000Y-44500000D03*
%TD*%
%TO.P,REF\u002A\u002A,1*%
%TO.N,N/C*%
X89500000Y-44500000D03*
%TD*%
D12*
%TO.P,J2,6*%
%TO.N,/A1*%
X147255000Y-62255000D03*
%TO.P,J2,5*%
%TO.N,GND*%
X147255000Y-64755000D03*
%TO.P,J2,4*%
%TO.N,/P34*%
X147255000Y-67255000D03*
%TO.P,J2,3*%
%TO.N,/P35*%
X147255000Y-69755000D03*
%TO.P,J2,2*%
%TO.N,VCC*%
X147255000Y-72255000D03*
%TO.P,J2,1*%
%TO.N,/A2*%
%TA.AperFunction,ComponentPad*%
G36*
G01*
X147980000Y-75605000D02*
X146530000Y-75605000D01*
G75*
G02*
X146280000Y-75355000I0J250000D01*
G01*
X146280000Y-74155000D01*
G75*
G02*
X146530000Y-73905000I250000J0D01*
G01*
X147980000Y-73905000D01*
G75*
G02*
X148230000Y-74155000I0J-250000D01*
G01*
X148230000Y-75355000D01*
G75*
G02*
X147980000Y-75605000I-250000J0D01*
G01*
G37*
%TD.AperFunction*%
%TD*%
%TO.P,J3,1*%
%TO.N,/B1*%
%TA.AperFunction,ComponentPad*%
G36*
G01*
X147980000Y-97195000D02*
X146530000Y-97195000D01*
G75*
G02*
X146280000Y-96945000I0J250000D01*
G01*
X146280000Y-95745000D01*
G75*
G02*
X146530000Y-95495000I250000J0D01*
G01*
X147980000Y-95495000D01*
G75*
G02*
X148230000Y-95745000I0J-250000D01*
G01*
X148230000Y-96945000D01*
G75*
G02*
X147980000Y-97195000I-250000J0D01*
G01*
G37*
%TD.AperFunction*%
%TO.P,J3,2*%
%TO.N,VCC*%
X147255000Y-93845000D03*
%TO.P,J3,3*%
%TO.N,/P33*%
X147255000Y-91345000D03*
%TO.P,J3,4*%
%TO.N,/P32*%
X147255000Y-88845000D03*
%TO.P,J3,5*%
%TO.N,GND*%
X147255000Y-86345000D03*
%TO.P,J3,6*%
%TO.N,/B2*%
X147255000Y-83845000D03*
%TD*%
%TO.P,J1,1*%
%TO.N,+6V*%
%TA.AperFunction,ComponentPad*%
G36*
G01*
X136924999Y-55150000D02*
X134725001Y-55150000D01*
G75*
G02*
X134475000Y-54899999I0J250001D01*
G01*
X134475000Y-52700001D01*
G75*
G02*
X134725001Y-52450000I250001J0D01*
G01*
X136924999Y-52450000D01*
G75*
G02*
X137175000Y-52700001I0J-250001D01*
G01*
X137175000Y-54899999D01*
G75*
G02*
X136924999Y-55150000I-250001J0D01*
G01*
G37*
%TD.AperFunction*%
D13*
%TO.P,J1,2*%
%TO.N,GND*%
X135825000Y-49840000D03*
%TD*%
D11*
%TO.P,U1,39*%
%TO.N,N/C*%
X118570000Y-70390000D03*
%TO.P,U1,20*%
%TO.N,GND*%
X118570000Y-72930000D03*
%TO.P,U1,21*%
%TO.N,Net-(U1-Pad21)*%
X118570000Y-75470000D03*
%TO.P,U1,22*%
%TO.N,/P22*%
X118570000Y-78010000D03*
%TO.P,U1,23*%
%TO.N,Net-(U1-Pad23)*%
X118570000Y-80550000D03*
%TO.P,U1,24*%
%TO.N,Net-(U1-Pad24)*%
X118570000Y-83090000D03*
%TO.P,U1,25*%
%TO.N,/P21*%
X118570000Y-85630000D03*
%TO.P,U1,20*%
%TO.N,GND*%
X118570000Y-88170000D03*
%TO.P,U1,27*%
%TO.N,/P19*%
X118570000Y-90710000D03*
%TO.P,U1,28*%
%TO.N,/P18*%
X118570000Y-93250000D03*
%TO.P,U1,29*%
%TO.N,Net-(U1-Pad29)*%
X118570000Y-95790000D03*
%TO.P,U1,30*%
%TO.N,/P17*%
X118570000Y-98330000D03*
%TO.P,U1,31*%
%TO.N,/P16*%
X118570000Y-100870000D03*
%TO.P,U1,32*%
%TO.N,Net-(U1-Pad32)*%
X118570000Y-103410000D03*
%TO.P,U1,33*%
%TO.N,Net-(U1-Pad33)*%
X118570000Y-105950000D03*
%TO.P,U1,34*%
%TO.N,Net-(U1-Pad34)*%
X118570000Y-108490000D03*
%TO.P,U1,35*%
%TO.N,Net-(U1-Pad35)*%
X118570000Y-111030000D03*
%TO.P,U1,36*%
%TO.N,Net-(U1-Pad36)*%
X118570000Y-113570000D03*
%TO.P,U1,37*%
%TO.N,Net-(U1-Pad37)*%
X118570000Y-116110000D03*
D14*
%TO.P,U1,38*%
%TO.N,Net-(U1-Pad38)*%
X118570000Y-118650000D03*
D11*
%TO.P,U1,5*%
%TO.N,Net-(U1-Pad5)*%
X95710000Y-108490000D03*
D14*
%TO.P,U1,1*%
%TO.N,+6V*%
X95710000Y-118650000D03*
D11*
%TO.P,U1,7*%
%TO.N,Net-(U1-Pad7)*%
X95710000Y-103410000D03*
%TO.P,U1,12*%
%TO.N,/P33*%
X95710000Y-90710000D03*
%TO.P,U1,17*%
%TO.N,Net-(U1-Pad17)*%
X95710000Y-78010000D03*
%TO.P,U1,20*%
%TO.N,GND*%
X95710000Y-105950000D03*
%TO.P,U1,15*%
%TO.N,/P34*%
X95710000Y-83090000D03*
%TO.P,U1,2*%
%TO.N,Net-(U1-Pad2)*%
X95710000Y-116110000D03*
%TO.P,U1,13*%
%TO.N,/P32*%
X95710000Y-88170000D03*
%TO.P,U1,16*%
%TO.N,Net-(U1-Pad16)*%
X95710000Y-80550000D03*
%TO.P,U1,10*%
%TO.N,/P26*%
X95710000Y-95790000D03*
%TO.P,U1,9*%
%TO.N,/P27*%
X95710000Y-98330000D03*
%TO.P,U1,19*%
%TO.N,VCC*%
X95710000Y-72930000D03*
%TO.P,U1,4*%
%TO.N,Net-(U1-Pad4)*%
X95710000Y-111030000D03*
%TO.P,U1,8*%
%TO.N,Net-(U1-Pad8)*%
X95710000Y-100870000D03*
%TO.P,U1,14*%
%TO.N,/P35*%
X95710000Y-85630000D03*
%TO.P,U1,40*%
%TO.N,N/C*%
X95710000Y-70390000D03*
%TO.P,U1,3*%
%TO.N,Net-(U1-Pad3)*%
X95710000Y-113570000D03*
%TO.P,U1,18*%
%TO.N,Net-(U1-Pad18)*%
X95710000Y-75470000D03*
%TO.P,U1,11*%
%TO.N,/P25*%
X95710000Y-93250000D03*
%TD*%
%TO.P,U2,1*%
%TO.N,VCC*%
X129460000Y-100870000D03*
%TO.P,U2,2*%
%TO.N,GND*%
X129460000Y-103410000D03*
%TO.P,U2,3*%
%TO.N,/P22*%
X129460000Y-105950000D03*
%TO.P,U2,4*%
%TO.N,/P21*%
X129460000Y-108490000D03*
%TO.P,U2,5*%
%TO.N,Net-(U2-Pad5)*%
X129460000Y-111030000D03*
%TO.P,U2,6*%
%TO.N,Net-(U2-Pad6)*%
X129460000Y-113570000D03*
%TO.P,U2,7*%
%TO.N,Net-(U2-Pad7)*%
X129460000Y-116110000D03*
%TO.P,U2,8*%
%TO.N,Net-(U2-Pad8)*%
X129460000Y-118650000D03*
%TD*%
D15*
%TO.N,+6V*%
X95000000Y-118650000D02*
X95710000Y-118650000D01*
X93180000Y-116830000D02*
X95000000Y-118650000D01*
X94810000Y-67980000D02*
X93180000Y-69610000D01*
X109870000Y-67980000D02*
X94810000Y-67980000D01*
X93180000Y-69610000D02*
X93180000Y-116830000D01*
X124050000Y-53800000D02*
X109870000Y-67980000D01*
X135825000Y-53800000D02*
X124050000Y-53800000D01*
D16*
%TO.N,/P33*%
X123640000Y-67730000D02*
X147255000Y-91345000D01*
X118290000Y-67730000D02*
X123640000Y-67730000D01*
X95710000Y-90310000D02*
X118290000Y-67730000D01*
X95710000Y-90710000D02*
X95710000Y-90310000D01*
%TO.N,/P32*%
X118000046Y-67029989D02*
X123964989Y-67029989D01*
X96860036Y-88170000D02*
X118000046Y-67029989D01*
X95710000Y-88170000D02*
X96860036Y-88170000D01*
X145780000Y-88845000D02*
X147255000Y-88845000D01*
X123964989Y-67029989D02*
X145780000Y-88845000D01*
%TO.N,/P35*%
X145780000Y-69755000D02*
X147255000Y-69755000D01*
X117710092Y-66329978D02*
X142354978Y-66329978D01*
X142354978Y-66329978D02*
X145780000Y-69755000D01*
X98410071Y-85630000D02*
X117710092Y-66329978D01*
X95710000Y-85630000D02*
X98410071Y-85630000D01*
%TO.N,/P34*%
X145780000Y-67255000D02*
X147255000Y-67255000D01*
X117420138Y-65629967D02*
X144154967Y-65629967D01*
X99960106Y-83090000D02*
X117420138Y-65629967D01*
X95710000Y-83090000D02*
X99960106Y-83090000D01*
X144154967Y-65629967D02*
X145780000Y-67255000D01*
%TO.N,VCC*%
X147895000Y-72255000D02*
X147255000Y-72255000D01*
X149270000Y-59340000D02*
X149270000Y-70880000D01*
X137360000Y-47430000D02*
X149270000Y-59340000D01*
X112530000Y-47430000D02*
X137360000Y-47430000D01*
X149270000Y-70880000D02*
X147895000Y-72255000D01*
X110950000Y-45850000D02*
X112530000Y-47430000D01*
X110950000Y-44990000D02*
X110950000Y-45850000D01*
X95710000Y-72930000D02*
X107760000Y-72930000D01*
X121350000Y-59340000D02*
X149270000Y-59340000D01*
X107760000Y-72930000D02*
X121350000Y-59340000D01*
%TD*%
D17*
%TO.N,GND*%
X151416890Y-41894564D02*
X151817893Y-42015635D01*
X152187752Y-42212292D01*
X152512366Y-42477040D01*
X152779374Y-42799799D01*
X152978606Y-43168270D01*
X153102474Y-43568422D01*
X153148000Y-44001578D01*
X153148001Y-119982775D01*
X153105436Y-120416885D01*
X152984365Y-120817896D01*
X152787706Y-121187755D01*
X152522960Y-121512365D01*
X152200201Y-121779374D01*
X151831730Y-121978606D01*
X151431578Y-122102474D01*
X150998422Y-122148000D01*
X89017215Y-122148000D01*
X88583115Y-122105436D01*
X88182104Y-121984365D01*
X87812245Y-121787706D01*
X87487635Y-121522960D01*
X87220626Y-121200201D01*
X87021394Y-120831730D01*
X86897526Y-120431578D01*
X86852000Y-119998422D01*
X86852000Y-119270811D01*
X87173000Y-119270811D01*
X87173000Y-119729189D01*
X87262426Y-120178761D01*
X87437840Y-120602248D01*
X87692501Y-120983376D01*
X88016624Y-121307499D01*
X88397752Y-121562160D01*
X88821239Y-121737574D01*
X89270811Y-121827000D01*
X89729189Y-121827000D01*
X90178761Y-121737574D01*
X90602248Y-121562160D01*
X90983376Y-121307499D01*
X91307499Y-120983376D01*
X91562160Y-120602248D01*
X91737574Y-120178761D01*
X91827000Y-119729189D01*
X91827000Y-119270811D01*
X91737574Y-118821239D01*
X91562160Y-118397752D01*
X91307499Y-118016624D01*
X90983376Y-117692501D01*
X90602248Y-117437840D01*
X90178761Y-117262426D01*
X89729189Y-117173000D01*
X89270811Y-117173000D01*
X88821239Y-117262426D01*
X88397752Y-117437840D01*
X88016624Y-117692501D01*
X87692501Y-118016624D01*
X87437840Y-118397752D01*
X87262426Y-118821239D01*
X87173000Y-119270811D01*
X86852000Y-119270811D01*
X86852000Y-69610000D01*
X92349000Y-69610000D01*
X92353000Y-69650614D01*
X92353001Y-116789376D01*
X92349000Y-116830000D01*
X92364967Y-116992120D01*
X92412256Y-117148010D01*
X92489048Y-117291679D01*
X92566498Y-117386051D01*
X92592395Y-117417606D01*
X92623948Y-117443501D01*
X94386503Y-119206058D01*
X94412394Y-119237606D01*
X94443941Y-119263496D01*
X94443948Y-119263503D01*
X94531418Y-119335288D01*
X94531418Y-119500000D01*
X94537732Y-119564103D01*
X94556430Y-119625743D01*
X94586794Y-119682550D01*
X94627657Y-119732343D01*
X94677450Y-119773206D01*
X94734257Y-119803570D01*
X94795897Y-119822268D01*
X94860000Y-119828582D01*
X96560000Y-119828582D01*
X96624103Y-119822268D01*
X96685743Y-119803570D01*
X96742550Y-119773206D01*
X96792343Y-119732343D01*
X96833206Y-119682550D01*
X96863570Y-119625743D01*
X96882268Y-119564103D01*
X96888582Y-119500000D01*
X96888582Y-117800000D01*
X117391418Y-117800000D01*
X117391418Y-119500000D01*
X117397732Y-119564103D01*
X117416430Y-119625743D01*
X117446794Y-119682550D01*
X117487657Y-119732343D01*
X117537450Y-119773206D01*
X117594257Y-119803570D01*
X117655897Y-119822268D01*
X117720000Y-119828582D01*
X119420000Y-119828582D01*
X119484103Y-119822268D01*
X119545743Y-119803570D01*
X119602550Y-119773206D01*
X119652343Y-119732343D01*
X119693206Y-119682550D01*
X119723570Y-119625743D01*
X119742268Y-119564103D01*
X119748582Y-119500000D01*
X119748582Y-118534076D01*
X128283000Y-118534076D01*
X128283000Y-118765924D01*
X128328231Y-118993318D01*
X128416956Y-119207519D01*
X128545764Y-119400294D01*
X128709706Y-119564236D01*
X128902481Y-119693044D01*
X129116682Y-119781769D01*
X129344076Y-119827000D01*
X129575924Y-119827000D01*
X129803318Y-119781769D01*
X130017519Y-119693044D01*
X130210294Y-119564236D01*
X130374236Y-119400294D01*
X130460753Y-119270811D01*
X148173000Y-119270811D01*
X148173000Y-119729189D01*
X148262426Y-120178761D01*
X148437840Y-120602248D01*
X148692501Y-120983376D01*
X149016624Y-121307499D01*
X149397752Y-121562160D01*
X149821239Y-121737574D01*
X150270811Y-121827000D01*
X150729189Y-121827000D01*
X151178761Y-121737574D01*
X151602248Y-121562160D01*
X151983376Y-121307499D01*
X152307499Y-120983376D01*
X152562160Y-120602248D01*
X152737574Y-120178761D01*
X152827000Y-119729189D01*
X152827000Y-119270811D01*
X152737574Y-118821239D01*
X152562160Y-118397752D01*
X152307499Y-118016624D01*
X151983376Y-117692501D01*
X151602248Y-117437840D01*
X151178761Y-117262426D01*
X150729189Y-117173000D01*
X150270811Y-117173000D01*
X149821239Y-117262426D01*
X149397752Y-117437840D01*
X149016624Y-117692501D01*
X148692501Y-118016624D01*
X148437840Y-118397752D01*
X148262426Y-118821239D01*
X148173000Y-119270811D01*
X130460753Y-119270811D01*
X130503044Y-119207519D01*
X130591769Y-118993318D01*
X130637000Y-118765924D01*
X130637000Y-118534076D01*
X130591769Y-118306682D01*
X130503044Y-118092481D01*
X130374236Y-117899706D01*
X130210294Y-117735764D01*
X130017519Y-117606956D01*
X129803318Y-117518231D01*
X129575924Y-117473000D01*
X129344076Y-117473000D01*
X129116682Y-117518231D01*
X128902481Y-117606956D01*
X128709706Y-117735764D01*
X128545764Y-117899706D01*
X128416956Y-118092481D01*
X128328231Y-118306682D01*
X128283000Y-118534076D01*
X119748582Y-118534076D01*
X119748582Y-117800000D01*
X119742268Y-117735897D01*
X119723570Y-117674257D01*
X119693206Y-117617450D01*
X119652343Y-117567657D01*
X119602550Y-117526794D01*
X119545743Y-117496430D01*
X119484103Y-117477732D01*
X119420000Y-117471418D01*
X117720000Y-117471418D01*
X117655897Y-117477732D01*
X117594257Y-117496430D01*
X117537450Y-117526794D01*
X117487657Y-117567657D01*
X117446794Y-117617450D01*
X117416430Y-117674257D01*
X117397732Y-117735897D01*
X117391418Y-117800000D01*
X96888582Y-117800000D01*
X96882268Y-117735897D01*
X96863570Y-117674257D01*
X96833206Y-117617450D01*
X96792343Y-117567657D01*
X96742550Y-117526794D01*
X96685743Y-117496430D01*
X96624103Y-117477732D01*
X96560000Y-117471418D01*
X94990972Y-117471418D01*
X94007000Y-116487447D01*
X94007000Y-115994076D01*
X94533000Y-115994076D01*
X94533000Y-116225924D01*
X94578231Y-116453318D01*
X94666956Y-116667519D01*
X94795764Y-116860294D01*
X94959706Y-117024236D01*
X95152481Y-117153044D01*
X95366682Y-117241769D01*
X95594076Y-117287000D01*
X95825924Y-117287000D01*
X96053318Y-117241769D01*
X96267519Y-117153044D01*
X96460294Y-117024236D01*
X96624236Y-116860294D01*
X96753044Y-116667519D01*
X96841769Y-116453318D01*
X96887000Y-116225924D01*
X96887000Y-115994076D01*
X117393000Y-115994076D01*
X117393000Y-116225924D01*
X117438231Y-116453318D01*
X117526956Y-116667519D01*
X117655764Y-116860294D01*
X117819706Y-117024236D01*
X118012481Y-117153044D01*
X118226682Y-117241769D01*
X118454076Y-117287000D01*
X118685924Y-117287000D01*
X118913318Y-117241769D01*
X119127519Y-117153044D01*
X119320294Y-117024236D01*
X119484236Y-116860294D01*
X119613044Y-116667519D01*
X119701769Y-116453318D01*
X119747000Y-116225924D01*
X119747000Y-115994076D01*
X128283000Y-115994076D01*
X128283000Y-116225924D01*
X128328231Y-116453318D01*
X128416956Y-116667519D01*
X128545764Y-116860294D01*
X128709706Y-117024236D01*
X128902481Y-117153044D01*
X129116682Y-117241769D01*
X129344076Y-117287000D01*
X129575924Y-117287000D01*
X129803318Y-117241769D01*
X129904022Y-117200056D01*
X139633000Y-117200056D01*
X139633000Y-117559944D01*
X139703211Y-117912916D01*
X139840934Y-118245409D01*
X140040876Y-118544645D01*
X140295355Y-118799124D01*
X140594591Y-118999066D01*
X140927084Y-119136789D01*
X141280056Y-119207000D01*
X141639944Y-119207000D01*
X141992916Y-119136789D01*
X142325409Y-118999066D01*
X142624645Y-118799124D01*
X142879124Y-118544645D01*
X143079066Y-118245409D01*
X143216789Y-117912916D01*
X143287000Y-117559944D01*
X143287000Y-117200056D01*
X143216789Y-116847084D01*
X143079066Y-116514591D01*
X142879124Y-116215355D01*
X142624645Y-115960876D01*
X142325409Y-115760934D01*
X141992916Y-115623211D01*
X141639944Y-115553000D01*
X141280056Y-115553000D01*
X140927084Y-115623211D01*
X140594591Y-115760934D01*
X140295355Y-115960876D01*
X140040876Y-116215355D01*
X139840934Y-116514591D01*
X139703211Y-116847084D01*
X139633000Y-117200056D01*
X129904022Y-117200056D01*
X130017519Y-117153044D01*
X130210294Y-117024236D01*
X130374236Y-116860294D01*
X130503044Y-116667519D01*
X130591769Y-116453318D01*
X130637000Y-116225924D01*
X130637000Y-115994076D01*
X130591769Y-115766682D01*
X130503044Y-115552481D01*
X130374236Y-115359706D01*
X130210294Y-115195764D01*
X130017519Y-115066956D01*
X129803318Y-114978231D01*
X129575924Y-114933000D01*
X129344076Y-114933000D01*
X129116682Y-114978231D01*
X128902481Y-115066956D01*
X128709706Y-115195764D01*
X128545764Y-115359706D01*
X128416956Y-115552481D01*
X128328231Y-115766682D01*
X128283000Y-115994076D01*
X119747000Y-115994076D01*
X119701769Y-115766682D01*
X119613044Y-115552481D01*
X119484236Y-115359706D01*
X119320294Y-115195764D01*
X119127519Y-115066956D01*
X118913318Y-114978231D01*
X118685924Y-114933000D01*
X118454076Y-114933000D01*
X118226682Y-114978231D01*
X118012481Y-115066956D01*
X117819706Y-115195764D01*
X117655764Y-115359706D01*
X117526956Y-115552481D01*
X117438231Y-115766682D01*
X117393000Y-115994076D01*
X96887000Y-115994076D01*
X96841769Y-115766682D01*
X96753044Y-115552481D01*
X96624236Y-115359706D01*
X96460294Y-115195764D01*
X96267519Y-115066956D01*
X96053318Y-114978231D01*
X95825924Y-114933000D01*
X95594076Y-114933000D01*
X95366682Y-114978231D01*
X95152481Y-115066956D01*
X94959706Y-115195764D01*
X94795764Y-115359706D01*
X94666956Y-115552481D01*
X94578231Y-115766682D01*
X94533000Y-115994076D01*
X94007000Y-115994076D01*
X94007000Y-113454076D01*
X94533000Y-113454076D01*
X94533000Y-113685924D01*
X94578231Y-113913318D01*
X94666956Y-114127519D01*
X94795764Y-114320294D01*
X94959706Y-114484236D01*
X95152481Y-114613044D01*
X95366682Y-114701769D01*
X95594076Y-114747000D01*
X95825924Y-114747000D01*
X96053318Y-114701769D01*
X96267519Y-114613044D01*
X96460294Y-114484236D01*
X96624236Y-114320294D01*
X96753044Y-114127519D01*
X96841769Y-113913318D01*
X96887000Y-113685924D01*
X96887000Y-113454076D01*
X117393000Y-113454076D01*
X117393000Y-113685924D01*
X117438231Y-113913318D01*
X117526956Y-114127519D01*
X117655764Y-114320294D01*
X117819706Y-114484236D01*
X118012481Y-114613044D01*
X118226682Y-114701769D01*
X118454076Y-114747000D01*
X118685924Y-114747000D01*
X118913318Y-114701769D01*
X119127519Y-114613044D01*
X119320294Y-114484236D01*
X119484236Y-114320294D01*
X119613044Y-114127519D01*
X119701769Y-113913318D01*
X119747000Y-113685924D01*
X119747000Y-113454076D01*
X128283000Y-113454076D01*
X128283000Y-113685924D01*
X128328231Y-113913318D01*
X128416956Y-114127519D01*
X128545764Y-114320294D01*
X128709706Y-114484236D01*
X128902481Y-114613044D01*
X129116682Y-114701769D01*
X129344076Y-114747000D01*
X129575924Y-114747000D01*
X129803318Y-114701769D01*
X130017519Y-114613044D01*
X130210294Y-114484236D01*
X130374236Y-114320294D01*
X130503044Y-114127519D01*
X130591769Y-113913318D01*
X130637000Y-113685924D01*
X130637000Y-113454076D01*
X130591769Y-113226682D01*
X130503044Y-113012481D01*
X130374236Y-112819706D01*
X130210294Y-112655764D01*
X130017519Y-112526956D01*
X129803318Y-112438231D01*
X129575924Y-112393000D01*
X129344076Y-112393000D01*
X129116682Y-112438231D01*
X128902481Y-112526956D01*
X128709706Y-112655764D01*
X128545764Y-112819706D01*
X128416956Y-113012481D01*
X128328231Y-113226682D01*
X128283000Y-113454076D01*
X119747000Y-113454076D01*
X119701769Y-113226682D01*
X119613044Y-113012481D01*
X119484236Y-112819706D01*
X119320294Y-112655764D01*
X119127519Y-112526956D01*
X118913318Y-112438231D01*
X118685924Y-112393000D01*
X118454076Y-112393000D01*
X118226682Y-112438231D01*
X118012481Y-112526956D01*
X117819706Y-112655764D01*
X117655764Y-112819706D01*
X117526956Y-113012481D01*
X117438231Y-113226682D01*
X117393000Y-113454076D01*
X96887000Y-113454076D01*
X96841769Y-113226682D01*
X96753044Y-113012481D01*
X96624236Y-112819706D01*
X96460294Y-112655764D01*
X96267519Y-112526956D01*
X96053318Y-112438231D01*
X95825924Y-112393000D01*
X95594076Y-112393000D01*
X95366682Y-112438231D01*
X95152481Y-112526956D01*
X94959706Y-112655764D01*
X94795764Y-112819706D01*
X94666956Y-113012481D01*
X94578231Y-113226682D01*
X94533000Y-113454076D01*
X94007000Y-113454076D01*
X94007000Y-110914076D01*
X94533000Y-110914076D01*
X94533000Y-111145924D01*
X94578231Y-111373318D01*
X94666956Y-111587519D01*
X94795764Y-111780294D01*
X94959706Y-111944236D01*
X95152481Y-112073044D01*
X95366682Y-112161769D01*
X95594076Y-112207000D01*
X95825924Y-112207000D01*
X96053318Y-112161769D01*
X96267519Y-112073044D01*
X96460294Y-111944236D01*
X96624236Y-111780294D01*
X96753044Y-111587519D01*
X96841769Y-111373318D01*
X96887000Y-111145924D01*
X96887000Y-110914076D01*
X117393000Y-110914076D01*
X117393000Y-111145924D01*
X117438231Y-111373318D01*
X117526956Y-111587519D01*
X117655764Y-111780294D01*
X117819706Y-111944236D01*
X118012481Y-112073044D01*
X118226682Y-112161769D01*
X118454076Y-112207000D01*
X118685924Y-112207000D01*
X118913318Y-112161769D01*
X119127519Y-112073044D01*
X119320294Y-111944236D01*
X119484236Y-111780294D01*
X119613044Y-111587519D01*
X119701769Y-111373318D01*
X119747000Y-111145924D01*
X119747000Y-110914076D01*
X128283000Y-110914076D01*
X128283000Y-111145924D01*
X128328231Y-111373318D01*
X128416956Y-111587519D01*
X128545764Y-111780294D01*
X128709706Y-111944236D01*
X128902481Y-112073044D01*
X129116682Y-112161769D01*
X129344076Y-112207000D01*
X129575924Y-112207000D01*
X129803318Y-112161769D01*
X130017519Y-112073044D01*
X130210294Y-111944236D01*
X130374236Y-111780294D01*
X130503044Y-111587519D01*
X130591769Y-111373318D01*
X130637000Y-111145924D01*
X130637000Y-110914076D01*
X130591769Y-110686682D01*
X130503044Y-110472481D01*
X130374236Y-110279706D01*
X130210294Y-110115764D01*
X130017519Y-109986956D01*
X129803318Y-109898231D01*
X129575924Y-109853000D01*
X129344076Y-109853000D01*
X129116682Y-109898231D01*
X128902481Y-109986956D01*
X128709706Y-110115764D01*
X128545764Y-110279706D01*
X128416956Y-110472481D01*
X128328231Y-110686682D01*
X128283000Y-110914076D01*
X119747000Y-110914076D01*
X119701769Y-110686682D01*
X119613044Y-110472481D01*
X119484236Y-110279706D01*
X119320294Y-110115764D01*
X119127519Y-109986956D01*
X118913318Y-109898231D01*
X118685924Y-109853000D01*
X118454076Y-109853000D01*
X118226682Y-109898231D01*
X118012481Y-109986956D01*
X117819706Y-110115764D01*
X117655764Y-110279706D01*
X117526956Y-110472481D01*
X117438231Y-110686682D01*
X117393000Y-110914076D01*
X96887000Y-110914076D01*
X96841769Y-110686682D01*
X96753044Y-110472481D01*
X96624236Y-110279706D01*
X96460294Y-110115764D01*
X96267519Y-109986956D01*
X96053318Y-109898231D01*
X95825924Y-109853000D01*
X95594076Y-109853000D01*
X95366682Y-109898231D01*
X95152481Y-109986956D01*
X94959706Y-110115764D01*
X94795764Y-110279706D01*
X94666956Y-110472481D01*
X94578231Y-110686682D01*
X94533000Y-110914076D01*
X94007000Y-110914076D01*
X94007000Y-108374076D01*
X94533000Y-108374076D01*
X94533000Y-108605924D01*
X94578231Y-108833318D01*
X94666956Y-109047519D01*
X94795764Y-109240294D01*
X94959706Y-109404236D01*
X95152481Y-109533044D01*
X95366682Y-109621769D01*
X95594076Y-109667000D01*
X95825924Y-109667000D01*
X96053318Y-109621769D01*
X96267519Y-109533044D01*
X96460294Y-109404236D01*
X96624236Y-109240294D01*
X96753044Y-109047519D01*
X96841769Y-108833318D01*
X96887000Y-108605924D01*
X96887000Y-108374076D01*
X117393000Y-108374076D01*
X117393000Y-108605924D01*
X117438231Y-108833318D01*
X117526956Y-109047519D01*
X117655764Y-109240294D01*
X117819706Y-109404236D01*
X118012481Y-109533044D01*
X118226682Y-109621769D01*
X118454076Y-109667000D01*
X118685924Y-109667000D01*
X118913318Y-109621769D01*
X119127519Y-109533044D01*
X119320294Y-109404236D01*
X119484236Y-109240294D01*
X119613044Y-109047519D01*
X119701769Y-108833318D01*
X119747000Y-108605924D01*
X119747000Y-108374076D01*
X128283000Y-108374076D01*
X128283000Y-108605924D01*
X128328231Y-108833318D01*
X128416956Y-109047519D01*
X128545764Y-109240294D01*
X128709706Y-109404236D01*
X128902481Y-109533044D01*
X129116682Y-109621769D01*
X129344076Y-109667000D01*
X129575924Y-109667000D01*
X129803318Y-109621769D01*
X130017519Y-109533044D01*
X130210294Y-109404236D01*
X130374236Y-109240294D01*
X130503044Y-109047519D01*
X130591769Y-108833318D01*
X130637000Y-108605924D01*
X130637000Y-108374076D01*
X130591769Y-108146682D01*
X130503044Y-107932481D01*
X130374236Y-107739706D01*
X130210294Y-107575764D01*
X130017519Y-107446956D01*
X129803318Y-107358231D01*
X129575924Y-107313000D01*
X129344076Y-107313000D01*
X129116682Y-107358231D01*
X128902481Y-107446956D01*
X128709706Y-107575764D01*
X128545764Y-107739706D01*
X128416956Y-107932481D01*
X128328231Y-108146682D01*
X128283000Y-108374076D01*
X119747000Y-108374076D01*
X119701769Y-108146682D01*
X119613044Y-107932481D01*
X119484236Y-107739706D01*
X119320294Y-107575764D01*
X119127519Y-107446956D01*
X118913318Y-107358231D01*
X118685924Y-107313000D01*
X118454076Y-107313000D01*
X118226682Y-107358231D01*
X118012481Y-107446956D01*
X117819706Y-107575764D01*
X117655764Y-107739706D01*
X117526956Y-107932481D01*
X117438231Y-108146682D01*
X117393000Y-108374076D01*
X96887000Y-108374076D01*
X96841769Y-108146682D01*
X96753044Y-107932481D01*
X96624236Y-107739706D01*
X96460294Y-107575764D01*
X96267519Y-107446956D01*
X96053318Y-107358231D01*
X95825924Y-107313000D01*
X95594076Y-107313000D01*
X95366682Y-107358231D01*
X95152481Y-107446956D01*
X94959706Y-107575764D01*
X94795764Y-107739706D01*
X94666956Y-107932481D01*
X94578231Y-108146682D01*
X94533000Y-108374076D01*
X94007000Y-108374076D01*
X94007000Y-106258485D01*
X94574145Y-106258485D01*
X94594181Y-106324553D01*
X94688693Y-106535042D01*
X94822453Y-106723048D01*
X94990321Y-106881346D01*
X95185846Y-107003853D01*
X95401514Y-107085861D01*
X95583000Y-107038384D01*
X95583000Y-106077000D01*
X95837000Y-106077000D01*
X95837000Y-107038384D01*
X96018486Y-107085861D01*
X96234154Y-107003853D01*
X96429679Y-106881346D01*
X96597547Y-106723048D01*
X96731307Y-106535042D01*
X96825819Y-106324553D01*
X96845855Y-106258485D01*
X96797862Y-106077000D01*
X95837000Y-106077000D01*
X95583000Y-106077000D01*
X94622138Y-106077000D01*
X94574145Y-106258485D01*
X94007000Y-106258485D01*
X94007000Y-105834076D01*
X117393000Y-105834076D01*
X117393000Y-106065924D01*
X117438231Y-106293318D01*
X117526956Y-106507519D01*
X117655764Y-106700294D01*
X117819706Y-106864236D01*
X118012481Y-106993044D01*
X118226682Y-107081769D01*
X118454076Y-107127000D01*
X118685924Y-107127000D01*
X118913318Y-107081769D01*
X119127519Y-106993044D01*
X119320294Y-106864236D01*
X119484236Y-106700294D01*
X119613044Y-106507519D01*
X119701769Y-106293318D01*
X119747000Y-106065924D01*
X119747000Y-105834076D01*
X128283000Y-105834076D01*
X128283000Y-106065924D01*
X128328231Y-106293318D01*
X128416956Y-106507519D01*
X128545764Y-106700294D01*
X128709706Y-106864236D01*
X128902481Y-106993044D01*
X129116682Y-107081769D01*
X129344076Y-107127000D01*
X129575924Y-107127000D01*
X129803318Y-107081769D01*
X130017519Y-106993044D01*
X130210294Y-106864236D01*
X130374236Y-106700294D01*
X130503044Y-106507519D01*
X130591769Y-106293318D01*
X130637000Y-106065924D01*
X130637000Y-105834076D01*
X130591769Y-105606682D01*
X130503044Y-105392481D01*
X130374236Y-105199706D01*
X130210294Y-105035764D01*
X130017519Y-104906956D01*
X129803318Y-104818231D01*
X129575924Y-104773000D01*
X129344076Y-104773000D01*
X129116682Y-104818231D01*
X128902481Y-104906956D01*
X128709706Y-105035764D01*
X128545764Y-105199706D01*
X128416956Y-105392481D01*
X128328231Y-105606682D01*
X128283000Y-105834076D01*
X119747000Y-105834076D01*
X119701769Y-105606682D01*
X119613044Y-105392481D01*
X119484236Y-105199706D01*
X119320294Y-105035764D01*
X119127519Y-104906956D01*
X118913318Y-104818231D01*
X118685924Y-104773000D01*
X118454076Y-104773000D01*
X118226682Y-104818231D01*
X118012481Y-104906956D01*
X117819706Y-105035764D01*
X117655764Y-105199706D01*
X117526956Y-105392481D01*
X117438231Y-105606682D01*
X117393000Y-105834076D01*
X94007000Y-105834076D01*
X94007000Y-105641515D01*
X94574145Y-105641515D01*
X94622138Y-105823000D01*
X95583000Y-105823000D01*
X95583000Y-104861616D01*
X95837000Y-104861616D01*
X95837000Y-105823000D01*
X96797862Y-105823000D01*
X96845855Y-105641515D01*
X96825819Y-105575447D01*
X96731307Y-105364958D01*
X96597547Y-105176952D01*
X96429679Y-105018654D01*
X96234154Y-104896147D01*
X96018486Y-104814139D01*
X95837000Y-104861616D01*
X95583000Y-104861616D01*
X95401514Y-104814139D01*
X95185846Y-104896147D01*
X94990321Y-105018654D01*
X94822453Y-105176952D01*
X94688693Y-105364958D01*
X94594181Y-105575447D01*
X94574145Y-105641515D01*
X94007000Y-105641515D01*
X94007000Y-103294076D01*
X94533000Y-103294076D01*
X94533000Y-103525924D01*
X94578231Y-103753318D01*
X94666956Y-103967519D01*
X94795764Y-104160294D01*
X94959706Y-104324236D01*
X95152481Y-104453044D01*
X95366682Y-104541769D01*
X95594076Y-104587000D01*
X95825924Y-104587000D01*
X96053318Y-104541769D01*
X96267519Y-104453044D01*
X96460294Y-104324236D01*
X96624236Y-104160294D01*
X96753044Y-103967519D01*
X96841769Y-103753318D01*
X96887000Y-103525924D01*
X96887000Y-103294076D01*
X117393000Y-103294076D01*
X117393000Y-103525924D01*
X117438231Y-103753318D01*
X117526956Y-103967519D01*
X117655764Y-104160294D01*
X117819706Y-104324236D01*
X118012481Y-104453044D01*
X118226682Y-104541769D01*
X118454076Y-104587000D01*
X118685924Y-104587000D01*
X118913318Y-104541769D01*
X119127519Y-104453044D01*
X119320294Y-104324236D01*
X119484236Y-104160294D01*
X119613044Y-103967519D01*
X119701769Y-103753318D01*
X119708697Y-103718485D01*
X128324145Y-103718485D01*
X128344181Y-103784553D01*
X128438693Y-103995042D01*
X128572453Y-104183048D01*
X128740321Y-104341346D01*
X128935846Y-104463853D01*
X129151514Y-104545861D01*
X129333000Y-104498384D01*
X129333000Y-103537000D01*
X129587000Y-103537000D01*
X129587000Y-104498384D01*
X129768486Y-104545861D01*
X129984154Y-104463853D01*
X130179679Y-104341346D01*
X130347547Y-104183048D01*
X130481307Y-103995042D01*
X130575819Y-103784553D01*
X130595855Y-103718485D01*
X130547862Y-103537000D01*
X129587000Y-103537000D01*
X129333000Y-103537000D01*
X128372138Y-103537000D01*
X128324145Y-103718485D01*
X119708697Y-103718485D01*
X119747000Y-103525924D01*
X119747000Y-103294076D01*
X119708698Y-103101515D01*
X128324145Y-103101515D01*
X128372138Y-103283000D01*
X129333000Y-103283000D01*
X129333000Y-102321616D01*
X129587000Y-102321616D01*
X129587000Y-103283000D01*
X130547862Y-103283000D01*
X130595855Y-103101515D01*
X130575819Y-103035447D01*
X130481307Y-102824958D01*
X130347547Y-102636952D01*
X130179679Y-102478654D01*
X129984154Y-102356147D01*
X129768486Y-102274139D01*
X129587000Y-102321616D01*
X129333000Y-102321616D01*
X129151514Y-102274139D01*
X128935846Y-102356147D01*
X128740321Y-102478654D01*
X128572453Y-102636952D01*
X128438693Y-102824958D01*
X128344181Y-103035447D01*
X128324145Y-103101515D01*
X119708698Y-103101515D01*
X119701769Y-103066682D01*
X119613044Y-102852481D01*
X119484236Y-102659706D01*
X119320294Y-102495764D01*
X119127519Y-102366956D01*
X118913318Y-102278231D01*
X118685924Y-102233000D01*
X118454076Y-102233000D01*
X118226682Y-102278231D01*
X118012481Y-102366956D01*
X117819706Y-102495764D01*
X117655764Y-102659706D01*
X117526956Y-102852481D01*
X117438231Y-103066682D01*
X117393000Y-103294076D01*
X96887000Y-103294076D01*
X96841769Y-103066682D01*
X96753044Y-102852481D01*
X96624236Y-102659706D01*
X96460294Y-102495764D01*
X96267519Y-102366956D01*
X96053318Y-102278231D01*
X95825924Y-102233000D01*
X95594076Y-102233000D01*
X95366682Y-102278231D01*
X95152481Y-102366956D01*
X94959706Y-102495764D01*
X94795764Y-102659706D01*
X94666956Y-102852481D01*
X94578231Y-103066682D01*
X94533000Y-103294076D01*
X94007000Y-103294076D01*
X94007000Y-100754076D01*
X94533000Y-100754076D01*
X94533000Y-100985924D01*
X94578231Y-101213318D01*
X94666956Y-101427519D01*
X94795764Y-101620294D01*
X94959706Y-101784236D01*
X95152481Y-101913044D01*
X95366682Y-102001769D01*
X95594076Y-102047000D01*
X95825924Y-102047000D01*
X96053318Y-102001769D01*
X96267519Y-101913044D01*
X96460294Y-101784236D01*
X96624236Y-101620294D01*
X96753044Y-101427519D01*
X96841769Y-101213318D01*
X96887000Y-100985924D01*
X96887000Y-100754076D01*
X117393000Y-100754076D01*
X117393000Y-100985924D01*
X117438231Y-101213318D01*
X117526956Y-101427519D01*
X117655764Y-101620294D01*
X117819706Y-101784236D01*
X118012481Y-101913044D01*
X118226682Y-102001769D01*
X118454076Y-102047000D01*
X118685924Y-102047000D01*
X118913318Y-102001769D01*
X119127519Y-101913044D01*
X119320294Y-101784236D01*
X119484236Y-101620294D01*
X119613044Y-101427519D01*
X119701769Y-101213318D01*
X119747000Y-100985924D01*
X119747000Y-100754076D01*
X128283000Y-100754076D01*
X128283000Y-100985924D01*
X128328231Y-101213318D01*
X128416956Y-101427519D01*
X128545764Y-101620294D01*
X128709706Y-101784236D01*
X128902481Y-101913044D01*
X129116682Y-102001769D01*
X129344076Y-102047000D01*
X129575924Y-102047000D01*
X129803318Y-102001769D01*
X129904022Y-101960056D01*
X139633000Y-101960056D01*
X139633000Y-102319944D01*
X139703211Y-102672916D01*
X139840934Y-103005409D01*
X140040876Y-103304645D01*
X140295355Y-103559124D01*
X140594591Y-103759066D01*
X140927084Y-103896789D01*
X141280056Y-103967000D01*
X141639944Y-103967000D01*
X141992916Y-103896789D01*
X142325409Y-103759066D01*
X142624645Y-103559124D01*
X142879124Y-103304645D01*
X143079066Y-103005409D01*
X143216789Y-102672916D01*
X143287000Y-102319944D01*
X143287000Y-101960056D01*
X143216789Y-101607084D01*
X143079066Y-101274591D01*
X142879124Y-100975355D01*
X142624645Y-100720876D01*
X142325409Y-100520934D01*
X141992916Y-100383211D01*
X141639944Y-100313000D01*
X141280056Y-100313000D01*
X140927084Y-100383211D01*
X140594591Y-100520934D01*
X140295355Y-100720876D01*
X140040876Y-100975355D01*
X139840934Y-101274591D01*
X139703211Y-101607084D01*
X139633000Y-101960056D01*
X129904022Y-101960056D01*
X130017519Y-101913044D01*
X130210294Y-101784236D01*
X130374236Y-101620294D01*
X130503044Y-101427519D01*
X130591769Y-101213318D01*
X130637000Y-100985924D01*
X130637000Y-100754076D01*
X130591769Y-100526682D01*
X130503044Y-100312481D01*
X130374236Y-100119706D01*
X130210294Y-99955764D01*
X130017519Y-99826956D01*
X129803318Y-99738231D01*
X129575924Y-99693000D01*
X129344076Y-99693000D01*
X129116682Y-99738231D01*
X128902481Y-99826956D01*
X128709706Y-99955764D01*
X128545764Y-100119706D01*
X128416956Y-100312481D01*
X128328231Y-100526682D01*
X128283000Y-100754076D01*
X119747000Y-100754076D01*
X119701769Y-100526682D01*
X119613044Y-100312481D01*
X119484236Y-100119706D01*
X119320294Y-99955764D01*
X119127519Y-99826956D01*
X118913318Y-99738231D01*
X118685924Y-99693000D01*
X118454076Y-99693000D01*
X118226682Y-99738231D01*
X118012481Y-99826956D01*
X117819706Y-99955764D01*
X117655764Y-100119706D01*
X117526956Y-100312481D01*
X117438231Y-100526682D01*
X117393000Y-100754076D01*
X96887000Y-100754076D01*
X96841769Y-100526682D01*
X96753044Y-100312481D01*
X96624236Y-100119706D01*
X96460294Y-99955764D01*
X96267519Y-99826956D01*
X96053318Y-99738231D01*
X95825924Y-99693000D01*
X95594076Y-99693000D01*
X95366682Y-99738231D01*
X95152481Y-99826956D01*
X94959706Y-99955764D01*
X94795764Y-100119706D01*
X94666956Y-100312481D01*
X94578231Y-100526682D01*
X94533000Y-100754076D01*
X94007000Y-100754076D01*
X94007000Y-98214076D01*
X94533000Y-98214076D01*
X94533000Y-98445924D01*
X94578231Y-98673318D01*
X94666956Y-98887519D01*
X94795764Y-99080294D01*
X94959706Y-99244236D01*
X95152481Y-99373044D01*
X95366682Y-99461769D01*
X95594076Y-99507000D01*
X95825924Y-99507000D01*
X96053318Y-99461769D01*
X96267519Y-99373044D01*
X96460294Y-99244236D01*
X96624236Y-99080294D01*
X96753044Y-98887519D01*
X96841769Y-98673318D01*
X96887000Y-98445924D01*
X96887000Y-98214076D01*
X117393000Y-98214076D01*
X117393000Y-98445924D01*
X117438231Y-98673318D01*
X117526956Y-98887519D01*
X117655764Y-99080294D01*
X117819706Y-99244236D01*
X118012481Y-99373044D01*
X118226682Y-99461769D01*
X118454076Y-99507000D01*
X118685924Y-99507000D01*
X118913318Y-99461769D01*
X119127519Y-99373044D01*
X119320294Y-99244236D01*
X119484236Y-99080294D01*
X119613044Y-98887519D01*
X119701769Y-98673318D01*
X119747000Y-98445924D01*
X119747000Y-98214076D01*
X119701769Y-97986682D01*
X119613044Y-97772481D01*
X119484236Y-97579706D01*
X119320294Y-97415764D01*
X119127519Y-97286956D01*
X118913318Y-97198231D01*
X118685924Y-97153000D01*
X118454076Y-97153000D01*
X118226682Y-97198231D01*
X118012481Y-97286956D01*
X117819706Y-97415764D01*
X117655764Y-97579706D01*
X117526956Y-97772481D01*
X117438231Y-97986682D01*
X117393000Y-98214076D01*
X96887000Y-98214076D01*
X96841769Y-97986682D01*
X96753044Y-97772481D01*
X96624236Y-97579706D01*
X96460294Y-97415764D01*
X96267519Y-97286956D01*
X96053318Y-97198231D01*
X95825924Y-97153000D01*
X95594076Y-97153000D01*
X95366682Y-97198231D01*
X95152481Y-97286956D01*
X94959706Y-97415764D01*
X94795764Y-97579706D01*
X94666956Y-97772481D01*
X94578231Y-97986682D01*
X94533000Y-98214076D01*
X94007000Y-98214076D01*
X94007000Y-95674076D01*
X94533000Y-95674076D01*
X94533000Y-95905924D01*
X94578231Y-96133318D01*
X94666956Y-96347519D01*
X94795764Y-96540294D01*
X94959706Y-96704236D01*
X95152481Y-96833044D01*
X95366682Y-96921769D01*
X95594076Y-96967000D01*
X95825924Y-96967000D01*
X96053318Y-96921769D01*
X96267519Y-96833044D01*
X96460294Y-96704236D01*
X96624236Y-96540294D01*
X96753044Y-96347519D01*
X96841769Y-96133318D01*
X96887000Y-95905924D01*
X96887000Y-95674076D01*
X117393000Y-95674076D01*
X117393000Y-95905924D01*
X117438231Y-96133318D01*
X117526956Y-96347519D01*
X117655764Y-96540294D01*
X117819706Y-96704236D01*
X118012481Y-96833044D01*
X118226682Y-96921769D01*
X118454076Y-96967000D01*
X118685924Y-96967000D01*
X118913318Y-96921769D01*
X119127519Y-96833044D01*
X119320294Y-96704236D01*
X119484236Y-96540294D01*
X119613044Y-96347519D01*
X119701769Y-96133318D01*
X119747000Y-95905924D01*
X119747000Y-95745000D01*
X145951418Y-95745000D01*
X145951418Y-96945000D01*
X145962535Y-97057876D01*
X145995460Y-97166414D01*
X146048927Y-97266443D01*
X146120881Y-97354119D01*
X146208557Y-97426073D01*
X146308586Y-97479540D01*
X146417124Y-97512465D01*
X146530000Y-97523582D01*
X147980000Y-97523582D01*
X148092876Y-97512465D01*
X148201414Y-97479540D01*
X148301443Y-97426073D01*
X148389119Y-97354119D01*
X148461073Y-97266443D01*
X148514540Y-97166414D01*
X148547465Y-97057876D01*
X148558582Y-96945000D01*
X148558582Y-95745000D01*
X148547465Y-95632124D01*
X148514540Y-95523586D01*
X148461073Y-95423557D01*
X148389119Y-95335881D01*
X148301443Y-95263927D01*
X148201414Y-95210460D01*
X148092876Y-95177535D01*
X147980000Y-95166418D01*
X146530000Y-95166418D01*
X146417124Y-95177535D01*
X146308586Y-95210460D01*
X146208557Y-95263927D01*
X146120881Y-95335881D01*
X146048927Y-95423557D01*
X145995460Y-95523586D01*
X145962535Y-95632124D01*
X145951418Y-95745000D01*
X119747000Y-95745000D01*
X119747000Y-95674076D01*
X119701769Y-95446682D01*
X119613044Y-95232481D01*
X119484236Y-95039706D01*
X119320294Y-94875764D01*
X119127519Y-94746956D01*
X118913318Y-94658231D01*
X118685924Y-94613000D01*
X118454076Y-94613000D01*
X118226682Y-94658231D01*
X118012481Y-94746956D01*
X117819706Y-94875764D01*
X117655764Y-95039706D01*
X117526956Y-95232481D01*
X117438231Y-95446682D01*
X117393000Y-95674076D01*
X96887000Y-95674076D01*
X96841769Y-95446682D01*
X96753044Y-95232481D01*
X96624236Y-95039706D01*
X96460294Y-94875764D01*
X96267519Y-94746956D01*
X96053318Y-94658231D01*
X95825924Y-94613000D01*
X95594076Y-94613000D01*
X95366682Y-94658231D01*
X95152481Y-94746956D01*
X94959706Y-94875764D01*
X94795764Y-95039706D01*
X94666956Y-95232481D01*
X94578231Y-95446682D01*
X94533000Y-95674076D01*
X94007000Y-95674076D01*
X94007000Y-93134076D01*
X94533000Y-93134076D01*
X94533000Y-93365924D01*
X94578231Y-93593318D01*
X94666956Y-93807519D01*
X94795764Y-94000294D01*
X94959706Y-94164236D01*
X95152481Y-94293044D01*
X95366682Y-94381769D01*
X95594076Y-94427000D01*
X95825924Y-94427000D01*
X96053318Y-94381769D01*
X96267519Y-94293044D01*
X96460294Y-94164236D01*
X96624236Y-94000294D01*
X96753044Y-93807519D01*
X96841769Y-93593318D01*
X96887000Y-93365924D01*
X96887000Y-93134076D01*
X117393000Y-93134076D01*
X117393000Y-93365924D01*
X117438231Y-93593318D01*
X117526956Y-93807519D01*
X117655764Y-94000294D01*
X117819706Y-94164236D01*
X118012481Y-94293044D01*
X118226682Y-94381769D01*
X118454076Y-94427000D01*
X118685924Y-94427000D01*
X118913318Y-94381769D01*
X119127519Y-94293044D01*
X119320294Y-94164236D01*
X119484236Y-94000294D01*
X119588000Y-93845000D01*
X145947306Y-93845000D01*
X145970031Y-94075732D01*
X146037333Y-94297597D01*
X146146626Y-94502070D01*
X146293709Y-94681291D01*
X146472930Y-94828374D01*
X146677403Y-94937667D01*
X146899268Y-95004969D01*
X147072188Y-95022000D01*
X147437812Y-95022000D01*
X147610732Y-95004969D01*
X147832597Y-94937667D01*
X148037070Y-94828374D01*
X148216291Y-94681291D01*
X148363374Y-94502070D01*
X148472667Y-94297597D01*
X148539969Y-94075732D01*
X148562694Y-93845000D01*
X148539969Y-93614268D01*
X148472667Y-93392403D01*
X148363374Y-93187930D01*
X148216291Y-93008709D01*
X148037070Y-92861626D01*
X147832597Y-92752333D01*
X147610732Y-92685031D01*
X147437812Y-92668000D01*
X147072188Y-92668000D01*
X146899268Y-92685031D01*
X146677403Y-92752333D01*
X146472930Y-92861626D01*
X146293709Y-93008709D01*
X146146626Y-93187930D01*
X146037333Y-93392403D01*
X145970031Y-93614268D01*
X145947306Y-93845000D01*
X119588000Y-93845000D01*
X119613044Y-93807519D01*
X119701769Y-93593318D01*
X119747000Y-93365924D01*
X119747000Y-93134076D01*
X119701769Y-92906682D01*
X119613044Y-92692481D01*
X119484236Y-92499706D01*
X119320294Y-92335764D01*
X119127519Y-92206956D01*
X118913318Y-92118231D01*
X118685924Y-92073000D01*
X118454076Y-92073000D01*
X118226682Y-92118231D01*
X118012481Y-92206956D01*
X117819706Y-92335764D01*
X117655764Y-92499706D01*
X117526956Y-92692481D01*
X117438231Y-92906682D01*
X117393000Y-93134076D01*
X96887000Y-93134076D01*
X96841769Y-92906682D01*
X96753044Y-92692481D01*
X96624236Y-92499706D01*
X96460294Y-92335764D01*
X96267519Y-92206956D01*
X96053318Y-92118231D01*
X95825924Y-92073000D01*
X95594076Y-92073000D01*
X95366682Y-92118231D01*
X95152481Y-92206956D01*
X94959706Y-92335764D01*
X94795764Y-92499706D01*
X94666956Y-92692481D01*
X94578231Y-92906682D01*
X94533000Y-93134076D01*
X94007000Y-93134076D01*
X94007000Y-82974076D01*
X94533000Y-82974076D01*
X94533000Y-83205924D01*
X94578231Y-83433318D01*
X94666956Y-83647519D01*
X94795764Y-83840294D01*
X94959706Y-84004236D01*
X95152481Y-84133044D01*
X95366682Y-84221769D01*
X95594076Y-84267000D01*
X95825924Y-84267000D01*
X96053318Y-84221769D01*
X96267519Y-84133044D01*
X96460294Y-84004236D01*
X96624236Y-83840294D01*
X96740027Y-83667000D01*
X99557070Y-83667000D01*
X98171070Y-85053000D01*
X96740027Y-85053000D01*
X96624236Y-84879706D01*
X96460294Y-84715764D01*
X96267519Y-84586956D01*
X96053318Y-84498231D01*
X95825924Y-84453000D01*
X95594076Y-84453000D01*
X95366682Y-84498231D01*
X95152481Y-84586956D01*
X94959706Y-84715764D01*
X94795764Y-84879706D01*
X94666956Y-85072481D01*
X94578231Y-85286682D01*
X94533000Y-85514076D01*
X94533000Y-85745924D01*
X94578231Y-85973318D01*
X94666956Y-86187519D01*
X94795764Y-86380294D01*
X94959706Y-86544236D01*
X95152481Y-86673044D01*
X95366682Y-86761769D01*
X95594076Y-86807000D01*
X95825924Y-86807000D01*
X96053318Y-86761769D01*
X96267519Y-86673044D01*
X96460294Y-86544236D01*
X96624236Y-86380294D01*
X96740027Y-86207000D01*
X98007035Y-86207000D01*
X96692366Y-87521669D01*
X96624236Y-87419706D01*
X96460294Y-87255764D01*
X96267519Y-87126956D01*
X96053318Y-87038231D01*
X95825924Y-86993000D01*
X95594076Y-86993000D01*
X95366682Y-87038231D01*
X95152481Y-87126956D01*
X94959706Y-87255764D01*
X94795764Y-87419706D01*
X94666956Y-87612481D01*
X94578231Y-87826682D01*
X94533000Y-88054076D01*
X94533000Y-88285924D01*
X94578231Y-88513318D01*
X94666956Y-88727519D01*
X94795764Y-88920294D01*
X94959706Y-89084236D01*
X95152481Y-89213044D01*
X95366682Y-89301769D01*
X95594076Y-89347000D01*
X95825924Y-89347000D01*
X95864715Y-89339284D01*
X95670999Y-89533000D01*
X95594076Y-89533000D01*
X95366682Y-89578231D01*
X95152481Y-89666956D01*
X94959706Y-89795764D01*
X94795764Y-89959706D01*
X94666956Y-90152481D01*
X94578231Y-90366682D01*
X94533000Y-90594076D01*
X94533000Y-90825924D01*
X94578231Y-91053318D01*
X94666956Y-91267519D01*
X94795764Y-91460294D01*
X94959706Y-91624236D01*
X95152481Y-91753044D01*
X95366682Y-91841769D01*
X95594076Y-91887000D01*
X95825924Y-91887000D01*
X96053318Y-91841769D01*
X96267519Y-91753044D01*
X96460294Y-91624236D01*
X96624236Y-91460294D01*
X96753044Y-91267519D01*
X96841769Y-91053318D01*
X96887000Y-90825924D01*
X96887000Y-90594076D01*
X117393000Y-90594076D01*
X117393000Y-90825924D01*
X117438231Y-91053318D01*
X117526956Y-91267519D01*
X117655764Y-91460294D01*
X117819706Y-91624236D01*
X118012481Y-91753044D01*
X118226682Y-91841769D01*
X118454076Y-91887000D01*
X118685924Y-91887000D01*
X118913318Y-91841769D01*
X119127519Y-91753044D01*
X119320294Y-91624236D01*
X119484236Y-91460294D01*
X119613044Y-91267519D01*
X119701769Y-91053318D01*
X119747000Y-90825924D01*
X119747000Y-90594076D01*
X119701769Y-90366682D01*
X119613044Y-90152481D01*
X119484236Y-89959706D01*
X119320294Y-89795764D01*
X119127519Y-89666956D01*
X118913318Y-89578231D01*
X118685924Y-89533000D01*
X118454076Y-89533000D01*
X118226682Y-89578231D01*
X118012481Y-89666956D01*
X117819706Y-89795764D01*
X117655764Y-89959706D01*
X117526956Y-90152481D01*
X117438231Y-90366682D01*
X117393000Y-90594076D01*
X96887000Y-90594076D01*
X96841769Y-90366682D01*
X96753044Y-90152481D01*
X96725197Y-90110804D01*
X98357516Y-88478485D01*
X117434145Y-88478485D01*
X117454181Y-88544553D01*
X117548693Y-88755042D01*
X117682453Y-88943048D01*
X117850321Y-89101346D01*
X118045846Y-89223853D01*
X118261514Y-89305861D01*
X118443000Y-89258384D01*
X118443000Y-88297000D01*
X118697000Y-88297000D01*
X118697000Y-89258384D01*
X118878486Y-89305861D01*
X119094154Y-89223853D01*
X119289679Y-89101346D01*
X119457547Y-88943048D01*
X119591307Y-88755042D01*
X119685819Y-88544553D01*
X119705855Y-88478485D01*
X119657862Y-88297000D01*
X118697000Y-88297000D01*
X118443000Y-88297000D01*
X117482138Y-88297000D01*
X117434145Y-88478485D01*
X98357516Y-88478485D01*
X98974486Y-87861515D01*
X117434145Y-87861515D01*
X117482138Y-88043000D01*
X118443000Y-88043000D01*
X118443000Y-87081616D01*
X118697000Y-87081616D01*
X118697000Y-88043000D01*
X119657862Y-88043000D01*
X119705855Y-87861515D01*
X119685819Y-87795447D01*
X119591307Y-87584958D01*
X119457547Y-87396952D01*
X119289679Y-87238654D01*
X119094154Y-87116147D01*
X118878486Y-87034139D01*
X118697000Y-87081616D01*
X118443000Y-87081616D01*
X118261514Y-87034139D01*
X118045846Y-87116147D01*
X117850321Y-87238654D01*
X117682453Y-87396952D01*
X117548693Y-87584958D01*
X117454181Y-87795447D01*
X117434145Y-87861515D01*
X98974486Y-87861515D01*
X101321925Y-85514076D01*
X117393000Y-85514076D01*
X117393000Y-85745924D01*
X117438231Y-85973318D01*
X117526956Y-86187519D01*
X117655764Y-86380294D01*
X117819706Y-86544236D01*
X118012481Y-86673044D01*
X118226682Y-86761769D01*
X118454076Y-86807000D01*
X118685924Y-86807000D01*
X118913318Y-86761769D01*
X119127519Y-86673044D01*
X119320294Y-86544236D01*
X119484236Y-86380294D01*
X119613044Y-86187519D01*
X119701769Y-85973318D01*
X119747000Y-85745924D01*
X119747000Y-85514076D01*
X119701769Y-85286682D01*
X119613044Y-85072481D01*
X119484236Y-84879706D01*
X119320294Y-84715764D01*
X119127519Y-84586956D01*
X118913318Y-84498231D01*
X118685924Y-84453000D01*
X118454076Y-84453000D01*
X118226682Y-84498231D01*
X118012481Y-84586956D01*
X117819706Y-84715764D01*
X117655764Y-84879706D01*
X117526956Y-85072481D01*
X117438231Y-85286682D01*
X117393000Y-85514076D01*
X101321925Y-85514076D01*
X103861925Y-82974076D01*
X117393000Y-82974076D01*
X117393000Y-83205924D01*
X117438231Y-83433318D01*
X117526956Y-83647519D01*
X117655764Y-83840294D01*
X117819706Y-84004236D01*
X118012481Y-84133044D01*
X118226682Y-84221769D01*
X118454076Y-84267000D01*
X118685924Y-84267000D01*
X118913318Y-84221769D01*
X119127519Y-84133044D01*
X119320294Y-84004236D01*
X119484236Y-83840294D01*
X119613044Y-83647519D01*
X119701769Y-83433318D01*
X119747000Y-83205924D01*
X119747000Y-82974076D01*
X119701769Y-82746682D01*
X119613044Y-82532481D01*
X119484236Y-82339706D01*
X119320294Y-82175764D01*
X119127519Y-82046956D01*
X118913318Y-81958231D01*
X118685924Y-81913000D01*
X118454076Y-81913000D01*
X118226682Y-81958231D01*
X118012481Y-82046956D01*
X117819706Y-82175764D01*
X117655764Y-82339706D01*
X117526956Y-82532481D01*
X117438231Y-82746682D01*
X117393000Y-82974076D01*
X103861925Y-82974076D01*
X106401925Y-80434076D01*
X117393000Y-80434076D01*
X117393000Y-80665924D01*
X117438231Y-80893318D01*
X117526956Y-81107519D01*
X117655764Y-81300294D01*
X117819706Y-81464236D01*
X118012481Y-81593044D01*
X118226682Y-81681769D01*
X118454076Y-81727000D01*
X118685924Y-81727000D01*
X118913318Y-81681769D01*
X119127519Y-81593044D01*
X119320294Y-81464236D01*
X119484236Y-81300294D01*
X119613044Y-81107519D01*
X119701769Y-80893318D01*
X119747000Y-80665924D01*
X119747000Y-80434076D01*
X119701769Y-80206682D01*
X119613044Y-79992481D01*
X119484236Y-79799706D01*
X119320294Y-79635764D01*
X119127519Y-79506956D01*
X118913318Y-79418231D01*
X118685924Y-79373000D01*
X118454076Y-79373000D01*
X118226682Y-79418231D01*
X118012481Y-79506956D01*
X117819706Y-79635764D01*
X117655764Y-79799706D01*
X117526956Y-79992481D01*
X117438231Y-80206682D01*
X117393000Y-80434076D01*
X106401925Y-80434076D01*
X108941925Y-77894076D01*
X117393000Y-77894076D01*
X117393000Y-78125924D01*
X117438231Y-78353318D01*
X117526956Y-78567519D01*
X117655764Y-78760294D01*
X117819706Y-78924236D01*
X118012481Y-79053044D01*
X118226682Y-79141769D01*
X118454076Y-79187000D01*
X118685924Y-79187000D01*
X118913318Y-79141769D01*
X119127519Y-79053044D01*
X119320294Y-78924236D01*
X119484236Y-78760294D01*
X119613044Y-78567519D01*
X119701769Y-78353318D01*
X119747000Y-78125924D01*
X119747000Y-77894076D01*
X119701769Y-77666682D01*
X119613044Y-77452481D01*
X119484236Y-77259706D01*
X119320294Y-77095764D01*
X119127519Y-76966956D01*
X118913318Y-76878231D01*
X118685924Y-76833000D01*
X118454076Y-76833000D01*
X118226682Y-76878231D01*
X118012481Y-76966956D01*
X117819706Y-77095764D01*
X117655764Y-77259706D01*
X117526956Y-77452481D01*
X117438231Y-77666682D01*
X117393000Y-77894076D01*
X108941925Y-77894076D01*
X111481925Y-75354076D01*
X117393000Y-75354076D01*
X117393000Y-75585924D01*
X117438231Y-75813318D01*
X117526956Y-76027519D01*
X117655764Y-76220294D01*
X117819706Y-76384236D01*
X118012481Y-76513044D01*
X118226682Y-76601769D01*
X118454076Y-76647000D01*
X118685924Y-76647000D01*
X118913318Y-76601769D01*
X119127519Y-76513044D01*
X119320294Y-76384236D01*
X119484236Y-76220294D01*
X119613044Y-76027519D01*
X119701769Y-75813318D01*
X119747000Y-75585924D01*
X119747000Y-75354076D01*
X119701769Y-75126682D01*
X119613044Y-74912481D01*
X119484236Y-74719706D01*
X119320294Y-74555764D01*
X119127519Y-74426956D01*
X118913318Y-74338231D01*
X118685924Y-74293000D01*
X118454076Y-74293000D01*
X118226682Y-74338231D01*
X118012481Y-74426956D01*
X117819706Y-74555764D01*
X117655764Y-74719706D01*
X117526956Y-74912481D01*
X117438231Y-75126682D01*
X117393000Y-75354076D01*
X111481925Y-75354076D01*
X113597516Y-73238485D01*
X117434145Y-73238485D01*
X117454181Y-73304553D01*
X117548693Y-73515042D01*
X117682453Y-73703048D01*
X117850321Y-73861346D01*
X118045846Y-73983853D01*
X118261514Y-74065861D01*
X118443000Y-74018384D01*
X118443000Y-73057000D01*
X118697000Y-73057000D01*
X118697000Y-74018384D01*
X118878486Y-74065861D01*
X119094154Y-73983853D01*
X119289679Y-73861346D01*
X119457547Y-73703048D01*
X119591307Y-73515042D01*
X119685819Y-73304553D01*
X119705855Y-73238485D01*
X119657862Y-73057000D01*
X118697000Y-73057000D01*
X118443000Y-73057000D01*
X117482138Y-73057000D01*
X117434145Y-73238485D01*
X113597516Y-73238485D01*
X114214486Y-72621515D01*
X117434145Y-72621515D01*
X117482138Y-72803000D01*
X118443000Y-72803000D01*
X118443000Y-71841616D01*
X118697000Y-71841616D01*
X118697000Y-72803000D01*
X119657862Y-72803000D01*
X119705855Y-72621515D01*
X119685819Y-72555447D01*
X119591307Y-72344958D01*
X119457547Y-72156952D01*
X119289679Y-71998654D01*
X119094154Y-71876147D01*
X118878486Y-71794139D01*
X118697000Y-71841616D01*
X118443000Y-71841616D01*
X118261514Y-71794139D01*
X118045846Y-71876147D01*
X117850321Y-71998654D01*
X117682453Y-72156952D01*
X117548693Y-72344958D01*
X117454181Y-72555447D01*
X117434145Y-72621515D01*
X114214486Y-72621515D01*
X116561925Y-70274076D01*
X117393000Y-70274076D01*
X117393000Y-70505924D01*
X117438231Y-70733318D01*
X117526956Y-70947519D01*
X117655764Y-71140294D01*
X117819706Y-71304236D01*
X118012481Y-71433044D01*
X118226682Y-71521769D01*
X118454076Y-71567000D01*
X118685924Y-71567000D01*
X118913318Y-71521769D01*
X119127519Y-71433044D01*
X119320294Y-71304236D01*
X119484236Y-71140294D01*
X119613044Y-70947519D01*
X119701769Y-70733318D01*
X119747000Y-70505924D01*
X119747000Y-70274076D01*
X119701769Y-70046682D01*
X119613044Y-69832481D01*
X119484236Y-69639706D01*
X119320294Y-69475764D01*
X119127519Y-69346956D01*
X118913318Y-69258231D01*
X118685924Y-69213000D01*
X118454076Y-69213000D01*
X118226682Y-69258231D01*
X118012481Y-69346956D01*
X117819706Y-69475764D01*
X117655764Y-69639706D01*
X117526956Y-69832481D01*
X117438231Y-70046682D01*
X117393000Y-70274076D01*
X116561925Y-70274076D01*
X118529002Y-68307000D01*
X123400999Y-68307000D01*
X146025479Y-90931480D01*
X145970031Y-91114268D01*
X145947306Y-91345000D01*
X145970031Y-91575732D01*
X146037333Y-91797597D01*
X146146626Y-92002070D01*
X146293709Y-92181291D01*
X146472930Y-92328374D01*
X146677403Y-92437667D01*
X146899268Y-92504969D01*
X147072188Y-92522000D01*
X147437812Y-92522000D01*
X147610732Y-92504969D01*
X147832597Y-92437667D01*
X148037070Y-92328374D01*
X148216291Y-92181291D01*
X148363374Y-92002070D01*
X148472667Y-91797597D01*
X148539969Y-91575732D01*
X148562694Y-91345000D01*
X148539969Y-91114268D01*
X148472667Y-90892403D01*
X148363374Y-90687930D01*
X148216291Y-90508709D01*
X148037070Y-90361626D01*
X147832597Y-90252333D01*
X147610732Y-90185031D01*
X147437812Y-90168000D01*
X147072188Y-90168000D01*
X146909977Y-90183976D01*
X146647896Y-89921895D01*
X146677403Y-89937667D01*
X146899268Y-90004969D01*
X147072188Y-90022000D01*
X147437812Y-90022000D01*
X147610732Y-90004969D01*
X147832597Y-89937667D01*
X148037070Y-89828374D01*
X148216291Y-89681291D01*
X148363374Y-89502070D01*
X148472667Y-89297597D01*
X148539969Y-89075732D01*
X148562694Y-88845000D01*
X148539969Y-88614268D01*
X148472667Y-88392403D01*
X148363374Y-88187930D01*
X148216291Y-88008709D01*
X148037070Y-87861626D01*
X147832597Y-87752333D01*
X147610732Y-87685031D01*
X147437812Y-87668000D01*
X147072188Y-87668000D01*
X146899268Y-87685031D01*
X146677403Y-87752333D01*
X146472930Y-87861626D01*
X146293709Y-88008709D01*
X146146626Y-88187930D01*
X146103828Y-88268000D01*
X146019001Y-88268000D01*
X144404486Y-86653485D01*
X145994145Y-86653485D01*
X146060376Y-86835901D01*
X146176699Y-87035142D01*
X146329656Y-87207861D01*
X146513370Y-87347421D01*
X146720781Y-87448458D01*
X146943918Y-87507090D01*
X147128000Y-87440142D01*
X147128000Y-86472000D01*
X147382000Y-86472000D01*
X147382000Y-87440142D01*
X147566082Y-87507090D01*
X147789219Y-87448458D01*
X147996630Y-87347421D01*
X148180344Y-87207861D01*
X148333301Y-87035142D01*
X148449624Y-86835901D01*
X148515855Y-86653485D01*
X148467862Y-86472000D01*
X147382000Y-86472000D01*
X147128000Y-86472000D01*
X146042138Y-86472000D01*
X145994145Y-86653485D01*
X144404486Y-86653485D01*
X143787516Y-86036515D01*
X145994145Y-86036515D01*
X146042138Y-86218000D01*
X147128000Y-86218000D01*
X147128000Y-85249858D01*
X147382000Y-85249858D01*
X147382000Y-86218000D01*
X148467862Y-86218000D01*
X148515855Y-86036515D01*
X148449624Y-85854099D01*
X148333301Y-85654858D01*
X148180344Y-85482139D01*
X147996630Y-85342579D01*
X147789219Y-85241542D01*
X147566082Y-85182910D01*
X147382000Y-85249858D01*
X147128000Y-85249858D01*
X146943918Y-85182910D01*
X146720781Y-85241542D01*
X146513370Y-85342579D01*
X146329656Y-85482139D01*
X146176699Y-85654858D01*
X146060376Y-85854099D01*
X145994145Y-86036515D01*
X143787516Y-86036515D01*
X141596001Y-83845000D01*
X145947306Y-83845000D01*
X145970031Y-84075732D01*
X146037333Y-84297597D01*
X146146626Y-84502070D01*
X146293709Y-84681291D01*
X146472930Y-84828374D01*
X146677403Y-84937667D01*
X146899268Y-85004969D01*
X147072188Y-85022000D01*
X147437812Y-85022000D01*
X147610732Y-85004969D01*
X147832597Y-84937667D01*
X148037070Y-84828374D01*
X148216291Y-84681291D01*
X148363374Y-84502070D01*
X148472667Y-84297597D01*
X148539969Y-84075732D01*
X148562694Y-83845000D01*
X148539969Y-83614268D01*
X148472667Y-83392403D01*
X148363374Y-83187930D01*
X148216291Y-83008709D01*
X148037070Y-82861626D01*
X147832597Y-82752333D01*
X147610732Y-82685031D01*
X147437812Y-82668000D01*
X147072188Y-82668000D01*
X146899268Y-82685031D01*
X146677403Y-82752333D01*
X146472930Y-82861626D01*
X146293709Y-83008709D01*
X146146626Y-83187930D01*
X146037333Y-83392403D01*
X145970031Y-83614268D01*
X145947306Y-83845000D01*
X141596001Y-83845000D01*
X131906001Y-74155000D01*
X145951418Y-74155000D01*
X145951418Y-75355000D01*
X145962535Y-75467876D01*
X145995460Y-75576414D01*
X146048927Y-75676443D01*
X146120881Y-75764119D01*
X146208557Y-75836073D01*
X146308586Y-75889540D01*
X146417124Y-75922465D01*
X146530000Y-75933582D01*
X147980000Y-75933582D01*
X148092876Y-75922465D01*
X148201414Y-75889540D01*
X148301443Y-75836073D01*
X148389119Y-75764119D01*
X148461073Y-75676443D01*
X148514540Y-75576414D01*
X148547465Y-75467876D01*
X148558582Y-75355000D01*
X148558582Y-74155000D01*
X148547465Y-74042124D01*
X148514540Y-73933586D01*
X148461073Y-73833557D01*
X148389119Y-73745881D01*
X148301443Y-73673927D01*
X148201414Y-73620460D01*
X148092876Y-73587535D01*
X147980000Y-73576418D01*
X146530000Y-73576418D01*
X146417124Y-73587535D01*
X146308586Y-73620460D01*
X146208557Y-73673927D01*
X146120881Y-73745881D01*
X146048927Y-73833557D01*
X145995460Y-73933586D01*
X145962535Y-74042124D01*
X145951418Y-74155000D01*
X131906001Y-74155000D01*
X124657979Y-66906978D01*
X142115977Y-66906978D01*
X145351961Y-70142962D01*
X145370026Y-70164974D01*
X145457885Y-70237079D01*
X145527103Y-70274076D01*
X145558123Y-70290657D01*
X145666888Y-70323651D01*
X145780000Y-70334791D01*
X145808339Y-70332000D01*
X146103828Y-70332000D01*
X146146626Y-70412070D01*
X146293709Y-70591291D01*
X146472930Y-70738374D01*
X146677403Y-70847667D01*
X146899268Y-70914969D01*
X147072188Y-70932000D01*
X147437812Y-70932000D01*
X147610732Y-70914969D01*
X147832597Y-70847667D01*
X148037070Y-70738374D01*
X148216291Y-70591291D01*
X148363374Y-70412070D01*
X148472667Y-70207597D01*
X148539969Y-69985732D01*
X148562694Y-69755000D01*
X148539969Y-69524268D01*
X148472667Y-69302403D01*
X148363374Y-69097930D01*
X148216291Y-68918709D01*
X148037070Y-68771626D01*
X147832597Y-68662333D01*
X147610732Y-68595031D01*
X147437812Y-68578000D01*
X147072188Y-68578000D01*
X146899268Y-68595031D01*
X146677403Y-68662333D01*
X146472930Y-68771626D01*
X146293709Y-68918709D01*
X146146626Y-69097930D01*
X146103828Y-69178000D01*
X146019001Y-69178000D01*
X143047968Y-66206967D01*
X143915966Y-66206967D01*
X145351961Y-67642962D01*
X145370026Y-67664974D01*
X145457885Y-67737079D01*
X145558124Y-67790657D01*
X145602782Y-67804204D01*
X145666888Y-67823651D01*
X145724886Y-67829363D01*
X145751664Y-67832000D01*
X145751669Y-67832000D01*
X145780000Y-67834790D01*
X145808331Y-67832000D01*
X146103828Y-67832000D01*
X146146626Y-67912070D01*
X146293709Y-68091291D01*
X146472930Y-68238374D01*
X146677403Y-68347667D01*
X146899268Y-68414969D01*
X147072188Y-68432000D01*
X147437812Y-68432000D01*
X147610732Y-68414969D01*
X147832597Y-68347667D01*
X148037070Y-68238374D01*
X148216291Y-68091291D01*
X148363374Y-67912070D01*
X148472667Y-67707597D01*
X148539969Y-67485732D01*
X148562694Y-67255000D01*
X148539969Y-67024268D01*
X148472667Y-66802403D01*
X148363374Y-66597930D01*
X148216291Y-66418709D01*
X148037070Y-66271626D01*
X147832597Y-66162333D01*
X147610732Y-66095031D01*
X147437812Y-66078000D01*
X147072188Y-66078000D01*
X146899268Y-66095031D01*
X146677403Y-66162333D01*
X146472930Y-66271626D01*
X146293709Y-66418709D01*
X146146626Y-66597930D01*
X146103828Y-66678000D01*
X146019001Y-66678000D01*
X144583006Y-65242005D01*
X144564941Y-65219993D01*
X144477082Y-65147888D01*
X144376843Y-65094310D01*
X144312737Y-65074864D01*
X144275228Y-65063485D01*
X145994145Y-65063485D01*
X146060376Y-65245901D01*
X146176699Y-65445142D01*
X146329656Y-65617861D01*
X146513370Y-65757421D01*
X146720781Y-65858458D01*
X146943918Y-65917090D01*
X147128000Y-65850142D01*
X147128000Y-64882000D01*
X147382000Y-64882000D01*
X147382000Y-65850142D01*
X147566082Y-65917090D01*
X147789219Y-65858458D01*
X147996630Y-65757421D01*
X148180344Y-65617861D01*
X148333301Y-65445142D01*
X148449624Y-65245901D01*
X148515855Y-65063485D01*
X148467862Y-64882000D01*
X147382000Y-64882000D01*
X147128000Y-64882000D01*
X146042138Y-64882000D01*
X145994145Y-65063485D01*
X144275228Y-65063485D01*
X144268078Y-65061316D01*
X144213012Y-65055893D01*
X144183303Y-65052967D01*
X144183298Y-65052967D01*
X144154967Y-65050177D01*
X144126636Y-65052967D01*
X117448469Y-65052967D01*
X117420138Y-65050177D01*
X117391807Y-65052967D01*
X117391802Y-65052967D01*
X117365024Y-65055604D01*
X117307026Y-65061316D01*
X117242920Y-65080763D01*
X117198262Y-65094310D01*
X117098023Y-65147888D01*
X117010164Y-65219993D01*
X116992099Y-65242005D01*
X99721105Y-82513000D01*
X96740027Y-82513000D01*
X96624236Y-82339706D01*
X96460294Y-82175764D01*
X96267519Y-82046956D01*
X96053318Y-81958231D01*
X95825924Y-81913000D01*
X95594076Y-81913000D01*
X95366682Y-81958231D01*
X95152481Y-82046956D01*
X94959706Y-82175764D01*
X94795764Y-82339706D01*
X94666956Y-82532481D01*
X94578231Y-82746682D01*
X94533000Y-82974076D01*
X94007000Y-82974076D01*
X94007000Y-80434076D01*
X94533000Y-80434076D01*
X94533000Y-80665924D01*
X94578231Y-80893318D01*
X94666956Y-81107519D01*
X94795764Y-81300294D01*
X94959706Y-81464236D01*
X95152481Y-81593044D01*
X95366682Y-81681769D01*
X95594076Y-81727000D01*
X95825924Y-81727000D01*
X96053318Y-81681769D01*
X96267519Y-81593044D01*
X96460294Y-81464236D01*
X96624236Y-81300294D01*
X96753044Y-81107519D01*
X96841769Y-80893318D01*
X96887000Y-80665924D01*
X96887000Y-80434076D01*
X96841769Y-80206682D01*
X96753044Y-79992481D01*
X96624236Y-79799706D01*
X96460294Y-79635764D01*
X96267519Y-79506956D01*
X96053318Y-79418231D01*
X95825924Y-79373000D01*
X95594076Y-79373000D01*
X95366682Y-79418231D01*
X95152481Y-79506956D01*
X94959706Y-79635764D01*
X94795764Y-79799706D01*
X94666956Y-79992481D01*
X94578231Y-80206682D01*
X94533000Y-80434076D01*
X94007000Y-80434076D01*
X94007000Y-77894076D01*
X94533000Y-77894076D01*
X94533000Y-78125924D01*
X94578231Y-78353318D01*
X94666956Y-78567519D01*
X94795764Y-78760294D01*
X94959706Y-78924236D01*
X95152481Y-79053044D01*
X95366682Y-79141769D01*
X95594076Y-79187000D01*
X95825924Y-79187000D01*
X96053318Y-79141769D01*
X96267519Y-79053044D01*
X96460294Y-78924236D01*
X96624236Y-78760294D01*
X96753044Y-78567519D01*
X96841769Y-78353318D01*
X96887000Y-78125924D01*
X96887000Y-77894076D01*
X96841769Y-77666682D01*
X96753044Y-77452481D01*
X96624236Y-77259706D01*
X96460294Y-77095764D01*
X96267519Y-76966956D01*
X96053318Y-76878231D01*
X95825924Y-76833000D01*
X95594076Y-76833000D01*
X95366682Y-76878231D01*
X95152481Y-76966956D01*
X94959706Y-77095764D01*
X94795764Y-77259706D01*
X94666956Y-77452481D01*
X94578231Y-77666682D01*
X94533000Y-77894076D01*
X94007000Y-77894076D01*
X94007000Y-75354076D01*
X94533000Y-75354076D01*
X94533000Y-75585924D01*
X94578231Y-75813318D01*
X94666956Y-76027519D01*
X94795764Y-76220294D01*
X94959706Y-76384236D01*
X95152481Y-76513044D01*
X95366682Y-76601769D01*
X95594076Y-76647000D01*
X95825924Y-76647000D01*
X96053318Y-76601769D01*
X96267519Y-76513044D01*
X96460294Y-76384236D01*
X96624236Y-76220294D01*
X96753044Y-76027519D01*
X96841769Y-75813318D01*
X96887000Y-75585924D01*
X96887000Y-75354076D01*
X96841769Y-75126682D01*
X96753044Y-74912481D01*
X96624236Y-74719706D01*
X96460294Y-74555764D01*
X96267519Y-74426956D01*
X96053318Y-74338231D01*
X95825924Y-74293000D01*
X95594076Y-74293000D01*
X95366682Y-74338231D01*
X95152481Y-74426956D01*
X94959706Y-74555764D01*
X94795764Y-74719706D01*
X94666956Y-74912481D01*
X94578231Y-75126682D01*
X94533000Y-75354076D01*
X94007000Y-75354076D01*
X94007000Y-72814076D01*
X94533000Y-72814076D01*
X94533000Y-73045924D01*
X94578231Y-73273318D01*
X94666956Y-73487519D01*
X94795764Y-73680294D01*
X94959706Y-73844236D01*
X95152481Y-73973044D01*
X95366682Y-74061769D01*
X95594076Y-74107000D01*
X95825924Y-74107000D01*
X96053318Y-74061769D01*
X96267519Y-73973044D01*
X96460294Y-73844236D01*
X96624236Y-73680294D01*
X96740027Y-73507000D01*
X107731669Y-73507000D01*
X107760000Y-73509790D01*
X107788331Y-73507000D01*
X107788336Y-73507000D01*
X107818045Y-73504074D01*
X107873111Y-73498651D01*
X107917770Y-73485103D01*
X107981876Y-73465657D01*
X108082115Y-73412079D01*
X108169974Y-73339974D01*
X108188039Y-73317962D01*
X117059486Y-64446515D01*
X145994145Y-64446515D01*
X146042138Y-64628000D01*
X147128000Y-64628000D01*
X147128000Y-63659858D01*
X147382000Y-63659858D01*
X147382000Y-64628000D01*
X148467862Y-64628000D01*
X148515855Y-64446515D01*
X148449624Y-64264099D01*
X148333301Y-64064858D01*
X148180344Y-63892139D01*
X147996630Y-63752579D01*
X147789219Y-63651542D01*
X147566082Y-63592910D01*
X147382000Y-63659858D01*
X147128000Y-63659858D01*
X146943918Y-63592910D01*
X146720781Y-63651542D01*
X146513370Y-63752579D01*
X146329656Y-63892139D01*
X146176699Y-64064858D01*
X146060376Y-64264099D01*
X145994145Y-64446515D01*
X117059486Y-64446515D01*
X119251001Y-62255000D01*
X145947306Y-62255000D01*
X145970031Y-62485732D01*
X146037333Y-62707597D01*
X146146626Y-62912070D01*
X146293709Y-63091291D01*
X146472930Y-63238374D01*
X146677403Y-63347667D01*
X146899268Y-63414969D01*
X147072188Y-63432000D01*
X147437812Y-63432000D01*
X147610732Y-63414969D01*
X147832597Y-63347667D01*
X148037070Y-63238374D01*
X148216291Y-63091291D01*
X148363374Y-62912070D01*
X148472667Y-62707597D01*
X148539969Y-62485732D01*
X148562694Y-62255000D01*
X148539969Y-62024268D01*
X148472667Y-61802403D01*
X148363374Y-61597930D01*
X148216291Y-61418709D01*
X148037070Y-61271626D01*
X147832597Y-61162333D01*
X147610732Y-61095031D01*
X147437812Y-61078000D01*
X147072188Y-61078000D01*
X146899268Y-61095031D01*
X146677403Y-61162333D01*
X146472930Y-61271626D01*
X146293709Y-61418709D01*
X146146626Y-61597930D01*
X146037333Y-61802403D01*
X145970031Y-62024268D01*
X145947306Y-62255000D01*
X119251001Y-62255000D01*
X121589001Y-59917000D01*
X148693000Y-59917000D01*
X148693001Y-70640998D01*
X148050968Y-71283031D01*
X148037070Y-71271626D01*
X147832597Y-71162333D01*
X147610732Y-71095031D01*
X147437812Y-71078000D01*
X147072188Y-71078000D01*
X146899268Y-71095031D01*
X146677403Y-71162333D01*
X146472930Y-71271626D01*
X146293709Y-71418709D01*
X146146626Y-71597930D01*
X146037333Y-71802403D01*
X145970031Y-72024268D01*
X145947306Y-72255000D01*
X145970031Y-72485732D01*
X146037333Y-72707597D01*
X146146626Y-72912070D01*
X146293709Y-73091291D01*
X146472930Y-73238374D01*
X146677403Y-73347667D01*
X146899268Y-73414969D01*
X147072188Y-73432000D01*
X147437812Y-73432000D01*
X147610732Y-73414969D01*
X147832597Y-73347667D01*
X148037070Y-73238374D01*
X148216291Y-73091291D01*
X148363374Y-72912070D01*
X148472667Y-72707597D01*
X148539969Y-72485732D01*
X148546491Y-72419510D01*
X149657962Y-71308039D01*
X149679974Y-71289974D01*
X149752079Y-71202115D01*
X149805657Y-71101876D01*
X149819204Y-71057218D01*
X149838651Y-70993112D01*
X149849791Y-70880000D01*
X149847000Y-70851661D01*
X149847000Y-59368339D01*
X149849791Y-59340000D01*
X149838651Y-59226888D01*
X149805657Y-59118123D01*
X149791816Y-59092228D01*
X149752079Y-59017885D01*
X149679974Y-58930026D01*
X149657962Y-58911961D01*
X137788039Y-47042038D01*
X137769974Y-47020026D01*
X137682115Y-46947921D01*
X137581876Y-46894343D01*
X137517770Y-46874897D01*
X137473111Y-46861349D01*
X137418045Y-46855926D01*
X137388336Y-46853000D01*
X137388331Y-46853000D01*
X137360000Y-46850210D01*
X137331669Y-46853000D01*
X112769001Y-46853000D01*
X111760266Y-45844265D01*
X111864236Y-45740294D01*
X111993044Y-45547519D01*
X112081769Y-45333318D01*
X112127000Y-45105924D01*
X112127000Y-44874076D01*
X112313000Y-44874076D01*
X112313000Y-45105924D01*
X112358231Y-45333318D01*
X112446956Y-45547519D01*
X112575764Y-45740294D01*
X112739706Y-45904236D01*
X112932481Y-46033044D01*
X113146682Y-46121769D01*
X113374076Y-46167000D01*
X113605924Y-46167000D01*
X113833318Y-46121769D01*
X114047519Y-46033044D01*
X114240294Y-45904236D01*
X114404236Y-45740294D01*
X114533044Y-45547519D01*
X114621769Y-45333318D01*
X114667000Y-45105924D01*
X114667000Y-44874076D01*
X114621769Y-44646682D01*
X114533044Y-44432481D01*
X114425020Y-44270811D01*
X148173000Y-44270811D01*
X148173000Y-44729189D01*
X148262426Y-45178761D01*
X148437840Y-45602248D01*
X148692501Y-45983376D01*
X149016624Y-46307499D01*
X149397752Y-46562160D01*
X149821239Y-46737574D01*
X150270811Y-46827000D01*
X150729189Y-46827000D01*
X151178761Y-46737574D01*
X151602248Y-46562160D01*
X151983376Y-46307499D01*
X152307499Y-45983376D01*
X152562160Y-45602248D01*
X152737574Y-45178761D01*
X152827000Y-44729189D01*
X152827000Y-44270811D01*
X152737574Y-43821239D01*
X152562160Y-43397752D01*
X152307499Y-43016624D01*
X151983376Y-42692501D01*
X151602248Y-42437840D01*
X151178761Y-42262426D01*
X150729189Y-42173000D01*
X150270811Y-42173000D01*
X149821239Y-42262426D01*
X149397752Y-42437840D01*
X149016624Y-42692501D01*
X148692501Y-43016624D01*
X148437840Y-43397752D01*
X148262426Y-43821239D01*
X148173000Y-44270811D01*
X114425020Y-44270811D01*
X114404236Y-44239706D01*
X114240294Y-44075764D01*
X114047519Y-43946956D01*
X113833318Y-43858231D01*
X113605924Y-43813000D01*
X113374076Y-43813000D01*
X113146682Y-43858231D01*
X112932481Y-43946956D01*
X112739706Y-44075764D01*
X112575764Y-44239706D01*
X112446956Y-44432481D01*
X112358231Y-44646682D01*
X112313000Y-44874076D01*
X112127000Y-44874076D01*
X112081769Y-44646682D01*
X111993044Y-44432481D01*
X111864236Y-44239706D01*
X111700294Y-44075764D01*
X111507519Y-43946956D01*
X111293318Y-43858231D01*
X111065924Y-43813000D01*
X110834076Y-43813000D01*
X110606682Y-43858231D01*
X110392481Y-43946956D01*
X110199706Y-44075764D01*
X110035764Y-44239706D01*
X109906956Y-44432481D01*
X109818231Y-44646682D01*
X109773000Y-44874076D01*
X109773000Y-45105924D01*
X109818231Y-45333318D01*
X109906956Y-45547519D01*
X110035764Y-45740294D01*
X110199706Y-45904236D01*
X110392481Y-46033044D01*
X110404013Y-46037821D01*
X110414344Y-46071876D01*
X110467922Y-46172115D01*
X110498840Y-46209788D01*
X110521963Y-46237964D01*
X110521966Y-46237967D01*
X110540027Y-46259974D01*
X110562034Y-46278035D01*
X112101961Y-47817962D01*
X112120026Y-47839974D01*
X112207885Y-47912079D01*
X112308124Y-47965657D01*
X112416888Y-47998650D01*
X112501664Y-48007000D01*
X112501670Y-48007000D01*
X112529999Y-48009790D01*
X112558328Y-48007000D01*
X137120999Y-48007000D01*
X147876999Y-58763000D01*
X121378328Y-58763000D01*
X121349999Y-58760210D01*
X121321670Y-58763000D01*
X121321664Y-58763000D01*
X121236888Y-58771350D01*
X121128124Y-58804343D01*
X121027885Y-58857921D01*
X120940026Y-58930026D01*
X120921963Y-58952036D01*
X107520999Y-72353000D01*
X96740027Y-72353000D01*
X96624236Y-72179706D01*
X96460294Y-72015764D01*
X96267519Y-71886956D01*
X96053318Y-71798231D01*
X95825924Y-71753000D01*
X95594076Y-71753000D01*
X95366682Y-71798231D01*
X95152481Y-71886956D01*
X94959706Y-72015764D01*
X94795764Y-72179706D01*
X94666956Y-72372481D01*
X94578231Y-72586682D01*
X94533000Y-72814076D01*
X94007000Y-72814076D01*
X94007000Y-70274076D01*
X94533000Y-70274076D01*
X94533000Y-70505924D01*
X94578231Y-70733318D01*
X94666956Y-70947519D01*
X94795764Y-71140294D01*
X94959706Y-71304236D01*
X95152481Y-71433044D01*
X95366682Y-71521769D01*
X95594076Y-71567000D01*
X95825924Y-71567000D01*
X96053318Y-71521769D01*
X96267519Y-71433044D01*
X96460294Y-71304236D01*
X96624236Y-71140294D01*
X96753044Y-70947519D01*
X96841769Y-70733318D01*
X96887000Y-70505924D01*
X96887000Y-70274076D01*
X96841769Y-70046682D01*
X96753044Y-69832481D01*
X96624236Y-69639706D01*
X96460294Y-69475764D01*
X96267519Y-69346956D01*
X96053318Y-69258231D01*
X95825924Y-69213000D01*
X95594076Y-69213000D01*
X95366682Y-69258231D01*
X95152481Y-69346956D01*
X94959706Y-69475764D01*
X94795764Y-69639706D01*
X94666956Y-69832481D01*
X94578231Y-70046682D01*
X94533000Y-70274076D01*
X94007000Y-70274076D01*
X94007000Y-69952553D01*
X95152554Y-68807000D01*
X109829386Y-68807000D01*
X109870000Y-68811000D01*
X109910614Y-68807000D01*
X109910624Y-68807000D01*
X110032120Y-68795034D01*
X110188010Y-68747745D01*
X110331679Y-68670952D01*
X110457606Y-68567606D01*
X110483505Y-68536048D01*
X124392555Y-54627000D01*
X134146418Y-54627000D01*
X134146418Y-54899999D01*
X134157535Y-55012875D01*
X134190460Y-55121413D01*
X134243927Y-55221442D01*
X134315881Y-55309119D01*
X134403558Y-55381073D01*
X134503587Y-55434540D01*
X134612125Y-55467465D01*
X134725001Y-55478582D01*
X136924999Y-55478582D01*
X137037875Y-55467465D01*
X137146413Y-55434540D01*
X137246442Y-55381073D01*
X137334119Y-55309119D01*
X137406073Y-55221442D01*
X137459540Y-55121413D01*
X137492465Y-55012875D01*
X137503582Y-54899999D01*
X137503582Y-52700001D01*
X137492465Y-52587125D01*
X137459540Y-52478587D01*
X137406073Y-52378558D01*
X137334119Y-52290881D01*
X137246442Y-52218927D01*
X137146413Y-52165460D01*
X137037875Y-52132535D01*
X136924999Y-52121418D01*
X134725001Y-52121418D01*
X134612125Y-52132535D01*
X134503587Y-52165460D01*
X134403558Y-52218927D01*
X134315881Y-52290881D01*
X134243927Y-52378558D01*
X134190460Y-52478587D01*
X134157535Y-52587125D01*
X134146418Y-52700001D01*
X134146418Y-52973000D01*
X124090610Y-52973000D01*
X124049999Y-52969000D01*
X124009388Y-52973000D01*
X124009376Y-52973000D01*
X123887880Y-52984966D01*
X123731990Y-53032255D01*
X123606872Y-53099132D01*
X123588319Y-53109049D01*
X123493947Y-53186498D01*
X123493941Y-53186504D01*
X123462394Y-53212394D01*
X123436504Y-53243941D01*
X109527447Y-67153000D01*
X94850613Y-67153000D01*
X94809999Y-67149000D01*
X94769385Y-67153000D01*
X94769376Y-67153000D01*
X94647880Y-67164966D01*
X94491990Y-67212255D01*
X94425264Y-67247921D01*
X94348320Y-67289048D01*
X94271487Y-67352104D01*
X94222394Y-67392394D01*
X94196499Y-67423947D01*
X92623952Y-68996495D01*
X92592394Y-69022394D01*
X92566498Y-69053949D01*
X92489048Y-69148321D01*
X92454477Y-69213000D01*
X92412255Y-69291991D01*
X92364966Y-69447881D01*
X92353000Y-69569377D01*
X92353000Y-69569386D01*
X92349000Y-69610000D01*
X86852000Y-69610000D01*
X86852000Y-60538486D01*
X94574139Y-60538486D01*
X94656147Y-60754154D01*
X94778654Y-60949679D01*
X94936952Y-61117547D01*
X95124958Y-61251307D01*
X95335447Y-61345819D01*
X95401515Y-61365855D01*
X95583000Y-61317862D01*
X95583000Y-60357000D01*
X95837000Y-60357000D01*
X95837000Y-61317862D01*
X96018485Y-61365855D01*
X96084553Y-61345819D01*
X96295042Y-61251307D01*
X96483048Y-61117547D01*
X96641346Y-60949679D01*
X96763853Y-60754154D01*
X96845861Y-60538486D01*
X96798384Y-60357000D01*
X95837000Y-60357000D01*
X95583000Y-60357000D01*
X94621616Y-60357000D01*
X94574139Y-60538486D01*
X86852000Y-60538486D01*
X86852000Y-60114076D01*
X97073000Y-60114076D01*
X97073000Y-60345924D01*
X97118231Y-60573318D01*
X97206956Y-60787519D01*
X97335764Y-60980294D01*
X97499706Y-61144236D01*
X97692481Y-61273044D01*
X97906682Y-61361769D01*
X98134076Y-61407000D01*
X98365924Y-61407000D01*
X98593318Y-61361769D01*
X98807519Y-61273044D01*
X99000294Y-61144236D01*
X99164236Y-60980294D01*
X99293044Y-60787519D01*
X99381769Y-60573318D01*
X99427000Y-60345924D01*
X99427000Y-60114076D01*
X99613000Y-60114076D01*
X99613000Y-60345924D01*
X99658231Y-60573318D01*
X99746956Y-60787519D01*
X99875764Y-60980294D01*
X100039706Y-61144236D01*
X100232481Y-61273044D01*
X100446682Y-61361769D01*
X100674076Y-61407000D01*
X100905924Y-61407000D01*
X101133318Y-61361769D01*
X101347519Y-61273044D01*
X101540294Y-61144236D01*
X101704236Y-60980294D01*
X101833044Y-60787519D01*
X101921769Y-60573318D01*
X101967000Y-60345924D01*
X101967000Y-60114076D01*
X102153000Y-60114076D01*
X102153000Y-60345924D01*
X102198231Y-60573318D01*
X102286956Y-60787519D01*
X102415764Y-60980294D01*
X102579706Y-61144236D01*
X102772481Y-61273044D01*
X102986682Y-61361769D01*
X103214076Y-61407000D01*
X103445924Y-61407000D01*
X103673318Y-61361769D01*
X103887519Y-61273044D01*
X104080294Y-61144236D01*
X104244236Y-60980294D01*
X104373044Y-60787519D01*
X104461769Y-60573318D01*
X104507000Y-60345924D01*
X104507000Y-60114076D01*
X104693000Y-60114076D01*
X104693000Y-60345924D01*
X104738231Y-60573318D01*
X104826956Y-60787519D01*
X104955764Y-60980294D01*
X105119706Y-61144236D01*
X105312481Y-61273044D01*
X105526682Y-61361769D01*
X105754076Y-61407000D01*
X105985924Y-61407000D01*
X106213318Y-61361769D01*
X106427519Y-61273044D01*
X106620294Y-61144236D01*
X106784236Y-60980294D01*
X106913044Y-60787519D01*
X107001769Y-60573318D01*
X107047000Y-60345924D01*
X107047000Y-60114076D01*
X107233000Y-60114076D01*
X107233000Y-60345924D01*
X107278231Y-60573318D01*
X107366956Y-60787519D01*
X107495764Y-60980294D01*
X107659706Y-61144236D01*
X107852481Y-61273044D01*
X108066682Y-61361769D01*
X108294076Y-61407000D01*
X108525924Y-61407000D01*
X108753318Y-61361769D01*
X108967519Y-61273044D01*
X109160294Y-61144236D01*
X109324236Y-60980294D01*
X109453044Y-60787519D01*
X109541769Y-60573318D01*
X109587000Y-60345924D01*
X109587000Y-60114076D01*
X109773000Y-60114076D01*
X109773000Y-60345924D01*
X109818231Y-60573318D01*
X109906956Y-60787519D01*
X110035764Y-60980294D01*
X110199706Y-61144236D01*
X110392481Y-61273044D01*
X110606682Y-61361769D01*
X110834076Y-61407000D01*
X111065924Y-61407000D01*
X111293318Y-61361769D01*
X111507519Y-61273044D01*
X111700294Y-61144236D01*
X111864236Y-60980294D01*
X111993044Y-60787519D01*
X112081769Y-60573318D01*
X112127000Y-60345924D01*
X112127000Y-60114076D01*
X112313000Y-60114076D01*
X112313000Y-60345924D01*
X112358231Y-60573318D01*
X112446956Y-60787519D01*
X112575764Y-60980294D01*
X112739706Y-61144236D01*
X112932481Y-61273044D01*
X113146682Y-61361769D01*
X113374076Y-61407000D01*
X113605924Y-61407000D01*
X113833318Y-61361769D01*
X114047519Y-61273044D01*
X114240294Y-61144236D01*
X114404236Y-60980294D01*
X114533044Y-60787519D01*
X114621769Y-60573318D01*
X114667000Y-60345924D01*
X114667000Y-60114076D01*
X114621769Y-59886682D01*
X114533044Y-59672481D01*
X114404236Y-59479706D01*
X114240294Y-59315764D01*
X114047519Y-59186956D01*
X113833318Y-59098231D01*
X113605924Y-59053000D01*
X113374076Y-59053000D01*
X113146682Y-59098231D01*
X112932481Y-59186956D01*
X112739706Y-59315764D01*
X112575764Y-59479706D01*
X112446956Y-59672481D01*
X112358231Y-59886682D01*
X112313000Y-60114076D01*
X112127000Y-60114076D01*
X112081769Y-59886682D01*
X111993044Y-59672481D01*
X111864236Y-59479706D01*
X111700294Y-59315764D01*
X111507519Y-59186956D01*
X111293318Y-59098231D01*
X111065924Y-59053000D01*
X110834076Y-59053000D01*
X110606682Y-59098231D01*
X110392481Y-59186956D01*
X110199706Y-59315764D01*
X110035764Y-59479706D01*
X109906956Y-59672481D01*
X109818231Y-59886682D01*
X109773000Y-60114076D01*
X109587000Y-60114076D01*
X109541769Y-59886682D01*
X109453044Y-59672481D01*
X109324236Y-59479706D01*
X109160294Y-59315764D01*
X108967519Y-59186956D01*
X108753318Y-59098231D01*
X108525924Y-59053000D01*
X108294076Y-59053000D01*
X108066682Y-59098231D01*
X107852481Y-59186956D01*
X107659706Y-59315764D01*
X107495764Y-59479706D01*
X107366956Y-59672481D01*
X107278231Y-59886682D01*
X107233000Y-60114076D01*
X107047000Y-60114076D01*
X107001769Y-59886682D01*
X106913044Y-59672481D01*
X106784236Y-59479706D01*
X106620294Y-59315764D01*
X106427519Y-59186956D01*
X106213318Y-59098231D01*
X105985924Y-59053000D01*
X105754076Y-59053000D01*
X105526682Y-59098231D01*
X105312481Y-59186956D01*
X105119706Y-59315764D01*
X104955764Y-59479706D01*
X104826956Y-59672481D01*
X104738231Y-59886682D01*
X104693000Y-60114076D01*
X104507000Y-60114076D01*
X104461769Y-59886682D01*
X104373044Y-59672481D01*
X104244236Y-59479706D01*
X104080294Y-59315764D01*
X103887519Y-59186956D01*
X103673318Y-59098231D01*
X103445924Y-59053000D01*
X103214076Y-59053000D01*
X102986682Y-59098231D01*
X102772481Y-59186956D01*
X102579706Y-59315764D01*
X102415764Y-59479706D01*
X102286956Y-59672481D01*
X102198231Y-59886682D01*
X102153000Y-60114076D01*
X101967000Y-60114076D01*
X101921769Y-59886682D01*
X101833044Y-59672481D01*
X101704236Y-59479706D01*
X101540294Y-59315764D01*
X101347519Y-59186956D01*
X101133318Y-59098231D01*
X100905924Y-59053000D01*
X100674076Y-59053000D01*
X100446682Y-59098231D01*
X100232481Y-59186956D01*
X100039706Y-59315764D01*
X99875764Y-59479706D01*
X99746956Y-59672481D01*
X99658231Y-59886682D01*
X99613000Y-60114076D01*
X99427000Y-60114076D01*
X99381769Y-59886682D01*
X99293044Y-59672481D01*
X99164236Y-59479706D01*
X99000294Y-59315764D01*
X98807519Y-59186956D01*
X98593318Y-59098231D01*
X98365924Y-59053000D01*
X98134076Y-59053000D01*
X97906682Y-59098231D01*
X97692481Y-59186956D01*
X97499706Y-59315764D01*
X97335764Y-59479706D01*
X97206956Y-59672481D01*
X97118231Y-59886682D01*
X97073000Y-60114076D01*
X86852000Y-60114076D01*
X86852000Y-59921514D01*
X94574139Y-59921514D01*
X94621616Y-60103000D01*
X95583000Y-60103000D01*
X95583000Y-59142138D01*
X95837000Y-59142138D01*
X95837000Y-60103000D01*
X96798384Y-60103000D01*
X96845861Y-59921514D01*
X96763853Y-59705846D01*
X96641346Y-59510321D01*
X96483048Y-59342453D01*
X96295042Y-59208693D01*
X96084553Y-59114181D01*
X96018485Y-59094145D01*
X95837000Y-59142138D01*
X95583000Y-59142138D01*
X95401515Y-59094145D01*
X95335447Y-59114181D01*
X95124958Y-59208693D01*
X94936952Y-59342453D01*
X94778654Y-59510321D01*
X94656147Y-59705846D01*
X94574139Y-59921514D01*
X86852000Y-59921514D01*
X86852000Y-51059990D01*
X134784615Y-51059990D01*
X134940078Y-51274057D01*
X135236852Y-51419141D01*
X135556228Y-51503540D01*
X135885933Y-51524010D01*
X136213296Y-51479765D01*
X136525738Y-51372505D01*
X136709922Y-51274057D01*
X136865385Y-51059990D01*
X135825000Y-50019605D01*
X134784615Y-51059990D01*
X86852000Y-51059990D01*
X86852000Y-49900933D01*
X134140990Y-49900933D01*
X134185235Y-50228296D01*
X134292495Y-50540738D01*
X134390943Y-50724922D01*
X134605010Y-50880385D01*
X135645395Y-49840000D01*
X136004605Y-49840000D01*
X137044990Y-50880385D01*
X137259057Y-50724922D01*
X137404141Y-50428148D01*
X137488540Y-50108772D01*
X137509010Y-49779067D01*
X137464765Y-49451704D01*
X137357505Y-49139262D01*
X137259057Y-48955078D01*
X137044990Y-48799615D01*
X136004605Y-49840000D01*
X135645395Y-49840000D01*
X134605010Y-48799615D01*
X134390943Y-48955078D01*
X134245859Y-49251852D01*
X134161460Y-49571228D01*
X134140990Y-49900933D01*
X86852000Y-49900933D01*
X86852000Y-48620010D01*
X134784615Y-48620010D01*
X135825000Y-49660395D01*
X136865385Y-48620010D01*
X136709922Y-48405943D01*
X136413148Y-48260859D01*
X136093772Y-48176460D01*
X135764067Y-48155990D01*
X135436704Y-48200235D01*
X135124262Y-48307495D01*
X134940078Y-48405943D01*
X134784615Y-48620010D01*
X86852000Y-48620010D01*
X86852000Y-44270811D01*
X87173000Y-44270811D01*
X87173000Y-44729189D01*
X87262426Y-45178761D01*
X87437840Y-45602248D01*
X87692501Y-45983376D01*
X88016624Y-46307499D01*
X88397752Y-46562160D01*
X88821239Y-46737574D01*
X89270811Y-46827000D01*
X89729189Y-46827000D01*
X90178761Y-46737574D01*
X90602248Y-46562160D01*
X90983376Y-46307499D01*
X91307499Y-45983376D01*
X91562160Y-45602248D01*
X91687982Y-45298486D01*
X94574139Y-45298486D01*
X94656147Y-45514154D01*
X94778654Y-45709679D01*
X94936952Y-45877547D01*
X95124958Y-46011307D01*
X95335447Y-46105819D01*
X95401515Y-46125855D01*
X95583000Y-46077862D01*
X95583000Y-45117000D01*
X95837000Y-45117000D01*
X95837000Y-46077862D01*
X96018485Y-46125855D01*
X96084553Y-46105819D01*
X96295042Y-46011307D01*
X96483048Y-45877547D01*
X96641346Y-45709679D01*
X96763853Y-45514154D01*
X96845861Y-45298486D01*
X96798384Y-45117000D01*
X95837000Y-45117000D01*
X95583000Y-45117000D01*
X94621616Y-45117000D01*
X94574139Y-45298486D01*
X91687982Y-45298486D01*
X91737574Y-45178761D01*
X91798180Y-44874076D01*
X97073000Y-44874076D01*
X97073000Y-45105924D01*
X97118231Y-45333318D01*
X97206956Y-45547519D01*
X97335764Y-45740294D01*
X97499706Y-45904236D01*
X97692481Y-46033044D01*
X97906682Y-46121769D01*
X98134076Y-46167000D01*
X98365924Y-46167000D01*
X98593318Y-46121769D01*
X98807519Y-46033044D01*
X99000294Y-45904236D01*
X99164236Y-45740294D01*
X99293044Y-45547519D01*
X99381769Y-45333318D01*
X99427000Y-45105924D01*
X99427000Y-44874076D01*
X99613000Y-44874076D01*
X99613000Y-45105924D01*
X99658231Y-45333318D01*
X99746956Y-45547519D01*
X99875764Y-45740294D01*
X100039706Y-45904236D01*
X100232481Y-46033044D01*
X100446682Y-46121769D01*
X100674076Y-46167000D01*
X100905924Y-46167000D01*
X101133318Y-46121769D01*
X101347519Y-46033044D01*
X101540294Y-45904236D01*
X101704236Y-45740294D01*
X101833044Y-45547519D01*
X101921769Y-45333318D01*
X101967000Y-45105924D01*
X101967000Y-44874076D01*
X102153000Y-44874076D01*
X102153000Y-45105924D01*
X102198231Y-45333318D01*
X102286956Y-45547519D01*
X102415764Y-45740294D01*
X102579706Y-45904236D01*
X102772481Y-46033044D01*
X102986682Y-46121769D01*
X103214076Y-46167000D01*
X103445924Y-46167000D01*
X103673318Y-46121769D01*
X103887519Y-46033044D01*
X104080294Y-45904236D01*
X104244236Y-45740294D01*
X104373044Y-45547519D01*
X104461769Y-45333318D01*
X104507000Y-45105924D01*
X104507000Y-44874076D01*
X104693000Y-44874076D01*
X104693000Y-45105924D01*
X104738231Y-45333318D01*
X104826956Y-45547519D01*
X104955764Y-45740294D01*
X105119706Y-45904236D01*
X105312481Y-46033044D01*
X105526682Y-46121769D01*
X105754076Y-46167000D01*
X105985924Y-46167000D01*
X106213318Y-46121769D01*
X106427519Y-46033044D01*
X106620294Y-45904236D01*
X106784236Y-45740294D01*
X106913044Y-45547519D01*
X107001769Y-45333318D01*
X107008697Y-45298486D01*
X107274139Y-45298486D01*
X107356147Y-45514154D01*
X107478654Y-45709679D01*
X107636952Y-45877547D01*
X107824958Y-46011307D01*
X108035447Y-46105819D01*
X108101515Y-46125855D01*
X108283000Y-46077862D01*
X108283000Y-45117000D01*
X108537000Y-45117000D01*
X108537000Y-46077862D01*
X108718485Y-46125855D01*
X108784553Y-46105819D01*
X108995042Y-46011307D01*
X109183048Y-45877547D01*
X109341346Y-45709679D01*
X109463853Y-45514154D01*
X109545861Y-45298486D01*
X109498384Y-45117000D01*
X108537000Y-45117000D01*
X108283000Y-45117000D01*
X107321616Y-45117000D01*
X107274139Y-45298486D01*
X107008697Y-45298486D01*
X107047000Y-45105924D01*
X107047000Y-44874076D01*
X107008698Y-44681514D01*
X107274139Y-44681514D01*
X107321616Y-44863000D01*
X108283000Y-44863000D01*
X108283000Y-43902138D01*
X108537000Y-43902138D01*
X108537000Y-44863000D01*
X109498384Y-44863000D01*
X109545861Y-44681514D01*
X109463853Y-44465846D01*
X109341346Y-44270321D01*
X109183048Y-44102453D01*
X108995042Y-43968693D01*
X108784553Y-43874181D01*
X108718485Y-43854145D01*
X108537000Y-43902138D01*
X108283000Y-43902138D01*
X108101515Y-43854145D01*
X108035447Y-43874181D01*
X107824958Y-43968693D01*
X107636952Y-44102453D01*
X107478654Y-44270321D01*
X107356147Y-44465846D01*
X107274139Y-44681514D01*
X107008698Y-44681514D01*
X107001769Y-44646682D01*
X106913044Y-44432481D01*
X106784236Y-44239706D01*
X106620294Y-44075764D01*
X106427519Y-43946956D01*
X106213318Y-43858231D01*
X105985924Y-43813000D01*
X105754076Y-43813000D01*
X105526682Y-43858231D01*
X105312481Y-43946956D01*
X105119706Y-44075764D01*
X104955764Y-44239706D01*
X104826956Y-44432481D01*
X104738231Y-44646682D01*
X104693000Y-44874076D01*
X104507000Y-44874076D01*
X104461769Y-44646682D01*
X104373044Y-44432481D01*
X104244236Y-44239706D01*
X104080294Y-44075764D01*
X103887519Y-43946956D01*
X103673318Y-43858231D01*
X103445924Y-43813000D01*
X103214076Y-43813000D01*
X102986682Y-43858231D01*
X102772481Y-43946956D01*
X102579706Y-44075764D01*
X102415764Y-44239706D01*
X102286956Y-44432481D01*
X102198231Y-44646682D01*
X102153000Y-44874076D01*
X101967000Y-44874076D01*
X101921769Y-44646682D01*
X101833044Y-44432481D01*
X101704236Y-44239706D01*
X101540294Y-44075764D01*
X101347519Y-43946956D01*
X101133318Y-43858231D01*
X100905924Y-43813000D01*
X100674076Y-43813000D01*
X100446682Y-43858231D01*
X100232481Y-43946956D01*
X100039706Y-44075764D01*
X99875764Y-44239706D01*
X99746956Y-44432481D01*
X99658231Y-44646682D01*
X99613000Y-44874076D01*
X99427000Y-44874076D01*
X99381769Y-44646682D01*
X99293044Y-44432481D01*
X99164236Y-44239706D01*
X99000294Y-44075764D01*
X98807519Y-43946956D01*
X98593318Y-43858231D01*
X98365924Y-43813000D01*
X98134076Y-43813000D01*
X97906682Y-43858231D01*
X97692481Y-43946956D01*
X97499706Y-44075764D01*
X97335764Y-44239706D01*
X97206956Y-44432481D01*
X97118231Y-44646682D01*
X97073000Y-44874076D01*
X91798180Y-44874076D01*
X91827000Y-44729189D01*
X91827000Y-44681514D01*
X94574139Y-44681514D01*
X94621616Y-44863000D01*
X95583000Y-44863000D01*
X95583000Y-43902138D01*
X95837000Y-43902138D01*
X95837000Y-44863000D01*
X96798384Y-44863000D01*
X96845861Y-44681514D01*
X96763853Y-44465846D01*
X96641346Y-44270321D01*
X96483048Y-44102453D01*
X96295042Y-43968693D01*
X96084553Y-43874181D01*
X96018485Y-43854145D01*
X95837000Y-43902138D01*
X95583000Y-43902138D01*
X95401515Y-43854145D01*
X95335447Y-43874181D01*
X95124958Y-43968693D01*
X94936952Y-44102453D01*
X94778654Y-44270321D01*
X94656147Y-44465846D01*
X94574139Y-44681514D01*
X91827000Y-44681514D01*
X91827000Y-44270811D01*
X91737574Y-43821239D01*
X91562160Y-43397752D01*
X91307499Y-43016624D01*
X90983376Y-42692501D01*
X90602248Y-42437840D01*
X90178761Y-42262426D01*
X89729189Y-42173000D01*
X89270811Y-42173000D01*
X88821239Y-42262426D01*
X88397752Y-42437840D01*
X88016624Y-42692501D01*
X87692501Y-43016624D01*
X87437840Y-43397752D01*
X87262426Y-43821239D01*
X87173000Y-44270811D01*
X86852000Y-44270811D01*
X86852000Y-44017215D01*
X86894564Y-43583110D01*
X87015635Y-43182107D01*
X87212292Y-42812248D01*
X87477040Y-42487634D01*
X87799799Y-42220626D01*
X88168270Y-42021394D01*
X88568422Y-41897526D01*
X89001578Y-41852000D01*
X150982785Y-41852000D01*
X151416890Y-41894564D01*
%TA.AperFunction,Conductor*%
D18*
G36*
X151416890Y-41894564D02*
G01*
X151817893Y-42015635D01*
X152187752Y-42212292D01*
X152512366Y-42477040D01*
X152779374Y-42799799D01*
X152978606Y-43168270D01*
X153102474Y-43568422D01*
X153148000Y-44001578D01*
X153148001Y-119982775D01*
X153105436Y-120416885D01*
X152984365Y-120817896D01*
X152787706Y-121187755D01*
X152522960Y-121512365D01*
X152200201Y-121779374D01*
X151831730Y-121978606D01*
X151431578Y-122102474D01*
X150998422Y-122148000D01*
X89017215Y-122148000D01*
X88583115Y-122105436D01*
X88182104Y-121984365D01*
X87812245Y-121787706D01*
X87487635Y-121522960D01*
X87220626Y-121200201D01*
X87021394Y-120831730D01*
X86897526Y-120431578D01*
X86852000Y-119998422D01*
X86852000Y-119270811D01*
X87173000Y-119270811D01*
X87173000Y-119729189D01*
X87262426Y-120178761D01*
X87437840Y-120602248D01*
X87692501Y-120983376D01*
X88016624Y-121307499D01*
X88397752Y-121562160D01*
X88821239Y-121737574D01*
X89270811Y-121827000D01*
X89729189Y-121827000D01*
X90178761Y-121737574D01*
X90602248Y-121562160D01*
X90983376Y-121307499D01*
X91307499Y-120983376D01*
X91562160Y-120602248D01*
X91737574Y-120178761D01*
X91827000Y-119729189D01*
X91827000Y-119270811D01*
X91737574Y-118821239D01*
X91562160Y-118397752D01*
X91307499Y-118016624D01*
X90983376Y-117692501D01*
X90602248Y-117437840D01*
X90178761Y-117262426D01*
X89729189Y-117173000D01*
X89270811Y-117173000D01*
X88821239Y-117262426D01*
X88397752Y-117437840D01*
X88016624Y-117692501D01*
X87692501Y-118016624D01*
X87437840Y-118397752D01*
X87262426Y-118821239D01*
X87173000Y-119270811D01*
X86852000Y-119270811D01*
X86852000Y-69610000D01*
X92349000Y-69610000D01*
X92353000Y-69650614D01*
X92353001Y-116789376D01*
X92349000Y-116830000D01*
X92364967Y-116992120D01*
X92412256Y-117148010D01*
X92489048Y-117291679D01*
X92566498Y-117386051D01*
X92592395Y-117417606D01*
X92623948Y-117443501D01*
X94386503Y-119206058D01*
X94412394Y-119237606D01*
X94443941Y-119263496D01*
X94443948Y-119263503D01*
X94531418Y-119335288D01*
X94531418Y-119500000D01*
X94537732Y-119564103D01*
X94556430Y-119625743D01*
X94586794Y-119682550D01*
X94627657Y-119732343D01*
X94677450Y-119773206D01*
X94734257Y-119803570D01*
X94795897Y-119822268D01*
X94860000Y-119828582D01*
X96560000Y-119828582D01*
X96624103Y-119822268D01*
X96685743Y-119803570D01*
X96742550Y-119773206D01*
X96792343Y-119732343D01*
X96833206Y-119682550D01*
X96863570Y-119625743D01*
X96882268Y-119564103D01*
X96888582Y-119500000D01*
X96888582Y-117800000D01*
X117391418Y-117800000D01*
X117391418Y-119500000D01*
X117397732Y-119564103D01*
X117416430Y-119625743D01*
X117446794Y-119682550D01*
X117487657Y-119732343D01*
X117537450Y-119773206D01*
X117594257Y-119803570D01*
X117655897Y-119822268D01*
X117720000Y-119828582D01*
X119420000Y-119828582D01*
X119484103Y-119822268D01*
X119545743Y-119803570D01*
X119602550Y-119773206D01*
X119652343Y-119732343D01*
X119693206Y-119682550D01*
X119723570Y-119625743D01*
X119742268Y-119564103D01*
X119748582Y-119500000D01*
X119748582Y-118534076D01*
X128283000Y-118534076D01*
X128283000Y-118765924D01*
X128328231Y-118993318D01*
X128416956Y-119207519D01*
X128545764Y-119400294D01*
X128709706Y-119564236D01*
X128902481Y-119693044D01*
X129116682Y-119781769D01*
X129344076Y-119827000D01*
X129575924Y-119827000D01*
X129803318Y-119781769D01*
X130017519Y-119693044D01*
X130210294Y-119564236D01*
X130374236Y-119400294D01*
X130460753Y-119270811D01*
X148173000Y-119270811D01*
X148173000Y-119729189D01*
X148262426Y-120178761D01*
X148437840Y-120602248D01*
X148692501Y-120983376D01*
X149016624Y-121307499D01*
X149397752Y-121562160D01*
X149821239Y-121737574D01*
X150270811Y-121827000D01*
X150729189Y-121827000D01*
X151178761Y-121737574D01*
X151602248Y-121562160D01*
X151983376Y-121307499D01*
X152307499Y-120983376D01*
X152562160Y-120602248D01*
X152737574Y-120178761D01*
X152827000Y-119729189D01*
X152827000Y-119270811D01*
X152737574Y-118821239D01*
X152562160Y-118397752D01*
X152307499Y-118016624D01*
X151983376Y-117692501D01*
X151602248Y-117437840D01*
X151178761Y-117262426D01*
X150729189Y-117173000D01*
X150270811Y-117173000D01*
X149821239Y-117262426D01*
X149397752Y-117437840D01*
X149016624Y-117692501D01*
X148692501Y-118016624D01*
X148437840Y-118397752D01*
X148262426Y-118821239D01*
X148173000Y-119270811D01*
X130460753Y-119270811D01*
X130503044Y-119207519D01*
X130591769Y-118993318D01*
X130637000Y-118765924D01*
X130637000Y-118534076D01*
X130591769Y-118306682D01*
X130503044Y-118092481D01*
X130374236Y-117899706D01*
X130210294Y-117735764D01*
X130017519Y-117606956D01*
X129803318Y-117518231D01*
X129575924Y-117473000D01*
X129344076Y-117473000D01*
X129116682Y-117518231D01*
X128902481Y-117606956D01*
X128709706Y-117735764D01*
X128545764Y-117899706D01*
X128416956Y-118092481D01*
X128328231Y-118306682D01*
X128283000Y-118534076D01*
X119748582Y-118534076D01*
X119748582Y-117800000D01*
X119742268Y-117735897D01*
X119723570Y-117674257D01*
X119693206Y-117617450D01*
X119652343Y-117567657D01*
X119602550Y-117526794D01*
X119545743Y-117496430D01*
X119484103Y-117477732D01*
X119420000Y-117471418D01*
X117720000Y-117471418D01*
X117655897Y-117477732D01*
X117594257Y-117496430D01*
X117537450Y-117526794D01*
X117487657Y-117567657D01*
X117446794Y-117617450D01*
X117416430Y-117674257D01*
X117397732Y-117735897D01*
X117391418Y-117800000D01*
X96888582Y-117800000D01*
X96882268Y-117735897D01*
X96863570Y-117674257D01*
X96833206Y-117617450D01*
X96792343Y-117567657D01*
X96742550Y-117526794D01*
X96685743Y-117496430D01*
X96624103Y-117477732D01*
X96560000Y-117471418D01*
X94990972Y-117471418D01*
X94007000Y-116487447D01*
X94007000Y-115994076D01*
X94533000Y-115994076D01*
X94533000Y-116225924D01*
X94578231Y-116453318D01*
X94666956Y-116667519D01*
X94795764Y-116860294D01*
X94959706Y-117024236D01*
X95152481Y-117153044D01*
X95366682Y-117241769D01*
X95594076Y-117287000D01*
X95825924Y-117287000D01*
X96053318Y-117241769D01*
X96267519Y-117153044D01*
X96460294Y-117024236D01*
X96624236Y-116860294D01*
X96753044Y-116667519D01*
X96841769Y-116453318D01*
X96887000Y-116225924D01*
X96887000Y-115994076D01*
X117393000Y-115994076D01*
X117393000Y-116225924D01*
X117438231Y-116453318D01*
X117526956Y-116667519D01*
X117655764Y-116860294D01*
X117819706Y-117024236D01*
X118012481Y-117153044D01*
X118226682Y-117241769D01*
X118454076Y-117287000D01*
X118685924Y-117287000D01*
X118913318Y-117241769D01*
X119127519Y-117153044D01*
X119320294Y-117024236D01*
X119484236Y-116860294D01*
X119613044Y-116667519D01*
X119701769Y-116453318D01*
X119747000Y-116225924D01*
X119747000Y-115994076D01*
X128283000Y-115994076D01*
X128283000Y-116225924D01*
X128328231Y-116453318D01*
X128416956Y-116667519D01*
X128545764Y-116860294D01*
X128709706Y-117024236D01*
X128902481Y-117153044D01*
X129116682Y-117241769D01*
X129344076Y-117287000D01*
X129575924Y-117287000D01*
X129803318Y-117241769D01*
X129904022Y-117200056D01*
X139633000Y-117200056D01*
X139633000Y-117559944D01*
X139703211Y-117912916D01*
X139840934Y-118245409D01*
X140040876Y-118544645D01*
X140295355Y-118799124D01*
X140594591Y-118999066D01*
X140927084Y-119136789D01*
X141280056Y-119207000D01*
X141639944Y-119207000D01*
X141992916Y-119136789D01*
X142325409Y-118999066D01*
X142624645Y-118799124D01*
X142879124Y-118544645D01*
X143079066Y-118245409D01*
X143216789Y-117912916D01*
X143287000Y-117559944D01*
X143287000Y-117200056D01*
X143216789Y-116847084D01*
X143079066Y-116514591D01*
X142879124Y-116215355D01*
X142624645Y-115960876D01*
X142325409Y-115760934D01*
X141992916Y-115623211D01*
X141639944Y-115553000D01*
X141280056Y-115553000D01*
X140927084Y-115623211D01*
X140594591Y-115760934D01*
X140295355Y-115960876D01*
X140040876Y-116215355D01*
X139840934Y-116514591D01*
X139703211Y-116847084D01*
X139633000Y-117200056D01*
X129904022Y-117200056D01*
X130017519Y-117153044D01*
X130210294Y-117024236D01*
X130374236Y-116860294D01*
X130503044Y-116667519D01*
X130591769Y-116453318D01*
X130637000Y-116225924D01*
X130637000Y-115994076D01*
X130591769Y-115766682D01*
X130503044Y-115552481D01*
X130374236Y-115359706D01*
X130210294Y-115195764D01*
X130017519Y-115066956D01*
X129803318Y-114978231D01*
X129575924Y-114933000D01*
X129344076Y-114933000D01*
X129116682Y-114978231D01*
X128902481Y-115066956D01*
X128709706Y-115195764D01*
X128545764Y-115359706D01*
X128416956Y-115552481D01*
X128328231Y-115766682D01*
X128283000Y-115994076D01*
X119747000Y-115994076D01*
X119701769Y-115766682D01*
X119613044Y-115552481D01*
X119484236Y-115359706D01*
X119320294Y-115195764D01*
X119127519Y-115066956D01*
X118913318Y-114978231D01*
X118685924Y-114933000D01*
X118454076Y-114933000D01*
X118226682Y-114978231D01*
X118012481Y-115066956D01*
X117819706Y-115195764D01*
X117655764Y-115359706D01*
X117526956Y-115552481D01*
X117438231Y-115766682D01*
X117393000Y-115994076D01*
X96887000Y-115994076D01*
X96841769Y-115766682D01*
X96753044Y-115552481D01*
X96624236Y-115359706D01*
X96460294Y-115195764D01*
X96267519Y-115066956D01*
X96053318Y-114978231D01*
X95825924Y-114933000D01*
X95594076Y-114933000D01*
X95366682Y-114978231D01*
X95152481Y-115066956D01*
X94959706Y-115195764D01*
X94795764Y-115359706D01*
X94666956Y-115552481D01*
X94578231Y-115766682D01*
X94533000Y-115994076D01*
X94007000Y-115994076D01*
X94007000Y-113454076D01*
X94533000Y-113454076D01*
X94533000Y-113685924D01*
X94578231Y-113913318D01*
X94666956Y-114127519D01*
X94795764Y-114320294D01*
X94959706Y-114484236D01*
X95152481Y-114613044D01*
X95366682Y-114701769D01*
X95594076Y-114747000D01*
X95825924Y-114747000D01*
X96053318Y-114701769D01*
X96267519Y-114613044D01*
X96460294Y-114484236D01*
X96624236Y-114320294D01*
X96753044Y-114127519D01*
X96841769Y-113913318D01*
X96887000Y-113685924D01*
X96887000Y-113454076D01*
X117393000Y-113454076D01*
X117393000Y-113685924D01*
X117438231Y-113913318D01*
X117526956Y-114127519D01*
X117655764Y-114320294D01*
X117819706Y-114484236D01*
X118012481Y-114613044D01*
X118226682Y-114701769D01*
X118454076Y-114747000D01*
X118685924Y-114747000D01*
X118913318Y-114701769D01*
X119127519Y-114613044D01*
X119320294Y-114484236D01*
X119484236Y-114320294D01*
X119613044Y-114127519D01*
X119701769Y-113913318D01*
X119747000Y-113685924D01*
X119747000Y-113454076D01*
X128283000Y-113454076D01*
X128283000Y-113685924D01*
X128328231Y-113913318D01*
X128416956Y-114127519D01*
X128545764Y-114320294D01*
X128709706Y-114484236D01*
X128902481Y-114613044D01*
X129116682Y-114701769D01*
X129344076Y-114747000D01*
X129575924Y-114747000D01*
X129803318Y-114701769D01*
X130017519Y-114613044D01*
X130210294Y-114484236D01*
X130374236Y-114320294D01*
X130503044Y-114127519D01*
X130591769Y-113913318D01*
X130637000Y-113685924D01*
X130637000Y-113454076D01*
X130591769Y-113226682D01*
X130503044Y-113012481D01*
X130374236Y-112819706D01*
X130210294Y-112655764D01*
X130017519Y-112526956D01*
X129803318Y-112438231D01*
X129575924Y-112393000D01*
X129344076Y-112393000D01*
X129116682Y-112438231D01*
X128902481Y-112526956D01*
X128709706Y-112655764D01*
X128545764Y-112819706D01*
X128416956Y-113012481D01*
X128328231Y-113226682D01*
X128283000Y-113454076D01*
X119747000Y-113454076D01*
X119701769Y-113226682D01*
X119613044Y-113012481D01*
X119484236Y-112819706D01*
X119320294Y-112655764D01*
X119127519Y-112526956D01*
X118913318Y-112438231D01*
X118685924Y-112393000D01*
X118454076Y-112393000D01*
X118226682Y-112438231D01*
X118012481Y-112526956D01*
X117819706Y-112655764D01*
X117655764Y-112819706D01*
X117526956Y-113012481D01*
X117438231Y-113226682D01*
X117393000Y-113454076D01*
X96887000Y-113454076D01*
X96841769Y-113226682D01*
X96753044Y-113012481D01*
X96624236Y-112819706D01*
X96460294Y-112655764D01*
X96267519Y-112526956D01*
X96053318Y-112438231D01*
X95825924Y-112393000D01*
X95594076Y-112393000D01*
X95366682Y-112438231D01*
X95152481Y-112526956D01*
X94959706Y-112655764D01*
X94795764Y-112819706D01*
X94666956Y-113012481D01*
X94578231Y-113226682D01*
X94533000Y-113454076D01*
X94007000Y-113454076D01*
X94007000Y-110914076D01*
X94533000Y-110914076D01*
X94533000Y-111145924D01*
X94578231Y-111373318D01*
X94666956Y-111587519D01*
X94795764Y-111780294D01*
X94959706Y-111944236D01*
X95152481Y-112073044D01*
X95366682Y-112161769D01*
X95594076Y-112207000D01*
X95825924Y-112207000D01*
X96053318Y-112161769D01*
X96267519Y-112073044D01*
X96460294Y-111944236D01*
X96624236Y-111780294D01*
X96753044Y-111587519D01*
X96841769Y-111373318D01*
X96887000Y-111145924D01*
X96887000Y-110914076D01*
X117393000Y-110914076D01*
X117393000Y-111145924D01*
X117438231Y-111373318D01*
X117526956Y-111587519D01*
X117655764Y-111780294D01*
X117819706Y-111944236D01*
X118012481Y-112073044D01*
X118226682Y-112161769D01*
X118454076Y-112207000D01*
X118685924Y-112207000D01*
X118913318Y-112161769D01*
X119127519Y-112073044D01*
X119320294Y-111944236D01*
X119484236Y-111780294D01*
X119613044Y-111587519D01*
X119701769Y-111373318D01*
X119747000Y-111145924D01*
X119747000Y-110914076D01*
X128283000Y-110914076D01*
X128283000Y-111145924D01*
X128328231Y-111373318D01*
X128416956Y-111587519D01*
X128545764Y-111780294D01*
X128709706Y-111944236D01*
X128902481Y-112073044D01*
X129116682Y-112161769D01*
X129344076Y-112207000D01*
X129575924Y-112207000D01*
X129803318Y-112161769D01*
X130017519Y-112073044D01*
X130210294Y-111944236D01*
X130374236Y-111780294D01*
X130503044Y-111587519D01*
X130591769Y-111373318D01*
X130637000Y-111145924D01*
X130637000Y-110914076D01*
X130591769Y-110686682D01*
X130503044Y-110472481D01*
X130374236Y-110279706D01*
X130210294Y-110115764D01*
X130017519Y-109986956D01*
X129803318Y-109898231D01*
X129575924Y-109853000D01*
X129344076Y-109853000D01*
X129116682Y-109898231D01*
X128902481Y-109986956D01*
X128709706Y-110115764D01*
X128545764Y-110279706D01*
X128416956Y-110472481D01*
X128328231Y-110686682D01*
X128283000Y-110914076D01*
X119747000Y-110914076D01*
X119701769Y-110686682D01*
X119613044Y-110472481D01*
X119484236Y-110279706D01*
X119320294Y-110115764D01*
X119127519Y-109986956D01*
X118913318Y-109898231D01*
X118685924Y-109853000D01*
X118454076Y-109853000D01*
X118226682Y-109898231D01*
X118012481Y-109986956D01*
X117819706Y-110115764D01*
X117655764Y-110279706D01*
X117526956Y-110472481D01*
X117438231Y-110686682D01*
X117393000Y-110914076D01*
X96887000Y-110914076D01*
X96841769Y-110686682D01*
X96753044Y-110472481D01*
X96624236Y-110279706D01*
X96460294Y-110115764D01*
X96267519Y-109986956D01*
X96053318Y-109898231D01*
X95825924Y-109853000D01*
X95594076Y-109853000D01*
X95366682Y-109898231D01*
X95152481Y-109986956D01*
X94959706Y-110115764D01*
X94795764Y-110279706D01*
X94666956Y-110472481D01*
X94578231Y-110686682D01*
X94533000Y-110914076D01*
X94007000Y-110914076D01*
X94007000Y-108374076D01*
X94533000Y-108374076D01*
X94533000Y-108605924D01*
X94578231Y-108833318D01*
X94666956Y-109047519D01*
X94795764Y-109240294D01*
X94959706Y-109404236D01*
X95152481Y-109533044D01*
X95366682Y-109621769D01*
X95594076Y-109667000D01*
X95825924Y-109667000D01*
X96053318Y-109621769D01*
X96267519Y-109533044D01*
X96460294Y-109404236D01*
X96624236Y-109240294D01*
X96753044Y-109047519D01*
X96841769Y-108833318D01*
X96887000Y-108605924D01*
X96887000Y-108374076D01*
X117393000Y-108374076D01*
X117393000Y-108605924D01*
X117438231Y-108833318D01*
X117526956Y-109047519D01*
X117655764Y-109240294D01*
X117819706Y-109404236D01*
X118012481Y-109533044D01*
X118226682Y-109621769D01*
X118454076Y-109667000D01*
X118685924Y-109667000D01*
X118913318Y-109621769D01*
X119127519Y-109533044D01*
X119320294Y-109404236D01*
X119484236Y-109240294D01*
X119613044Y-109047519D01*
X119701769Y-108833318D01*
X119747000Y-108605924D01*
X119747000Y-108374076D01*
X128283000Y-108374076D01*
X128283000Y-108605924D01*
X128328231Y-108833318D01*
X128416956Y-109047519D01*
X128545764Y-109240294D01*
X128709706Y-109404236D01*
X128902481Y-109533044D01*
X129116682Y-109621769D01*
X129344076Y-109667000D01*
X129575924Y-109667000D01*
X129803318Y-109621769D01*
X130017519Y-109533044D01*
X130210294Y-109404236D01*
X130374236Y-109240294D01*
X130503044Y-109047519D01*
X130591769Y-108833318D01*
X130637000Y-108605924D01*
X130637000Y-108374076D01*
X130591769Y-108146682D01*
X130503044Y-107932481D01*
X130374236Y-107739706D01*
X130210294Y-107575764D01*
X130017519Y-107446956D01*
X129803318Y-107358231D01*
X129575924Y-107313000D01*
X129344076Y-107313000D01*
X129116682Y-107358231D01*
X128902481Y-107446956D01*
X128709706Y-107575764D01*
X128545764Y-107739706D01*
X128416956Y-107932481D01*
X128328231Y-108146682D01*
X128283000Y-108374076D01*
X119747000Y-108374076D01*
X119701769Y-108146682D01*
X119613044Y-107932481D01*
X119484236Y-107739706D01*
X119320294Y-107575764D01*
X119127519Y-107446956D01*
X118913318Y-107358231D01*
X118685924Y-107313000D01*
X118454076Y-107313000D01*
X118226682Y-107358231D01*
X118012481Y-107446956D01*
X117819706Y-107575764D01*
X117655764Y-107739706D01*
X117526956Y-107932481D01*
X117438231Y-108146682D01*
X117393000Y-108374076D01*
X96887000Y-108374076D01*
X96841769Y-108146682D01*
X96753044Y-107932481D01*
X96624236Y-107739706D01*
X96460294Y-107575764D01*
X96267519Y-107446956D01*
X96053318Y-107358231D01*
X95825924Y-107313000D01*
X95594076Y-107313000D01*
X95366682Y-107358231D01*
X95152481Y-107446956D01*
X94959706Y-107575764D01*
X94795764Y-107739706D01*
X94666956Y-107932481D01*
X94578231Y-108146682D01*
X94533000Y-108374076D01*
X94007000Y-108374076D01*
X94007000Y-106258485D01*
X94574145Y-106258485D01*
X94594181Y-106324553D01*
X94688693Y-106535042D01*
X94822453Y-106723048D01*
X94990321Y-106881346D01*
X95185846Y-107003853D01*
X95401514Y-107085861D01*
X95583000Y-107038384D01*
X95583000Y-106077000D01*
X95837000Y-106077000D01*
X95837000Y-107038384D01*
X96018486Y-107085861D01*
X96234154Y-107003853D01*
X96429679Y-106881346D01*
X96597547Y-106723048D01*
X96731307Y-106535042D01*
X96825819Y-106324553D01*
X96845855Y-106258485D01*
X96797862Y-106077000D01*
X95837000Y-106077000D01*
X95583000Y-106077000D01*
X94622138Y-106077000D01*
X94574145Y-106258485D01*
X94007000Y-106258485D01*
X94007000Y-105834076D01*
X117393000Y-105834076D01*
X117393000Y-106065924D01*
X117438231Y-106293318D01*
X117526956Y-106507519D01*
X117655764Y-106700294D01*
X117819706Y-106864236D01*
X118012481Y-106993044D01*
X118226682Y-107081769D01*
X118454076Y-107127000D01*
X118685924Y-107127000D01*
X118913318Y-107081769D01*
X119127519Y-106993044D01*
X119320294Y-106864236D01*
X119484236Y-106700294D01*
X119613044Y-106507519D01*
X119701769Y-106293318D01*
X119747000Y-106065924D01*
X119747000Y-105834076D01*
X128283000Y-105834076D01*
X128283000Y-106065924D01*
X128328231Y-106293318D01*
X128416956Y-106507519D01*
X128545764Y-106700294D01*
X128709706Y-106864236D01*
X128902481Y-106993044D01*
X129116682Y-107081769D01*
X129344076Y-107127000D01*
X129575924Y-107127000D01*
X129803318Y-107081769D01*
X130017519Y-106993044D01*
X130210294Y-106864236D01*
X130374236Y-106700294D01*
X130503044Y-106507519D01*
X130591769Y-106293318D01*
X130637000Y-106065924D01*
X130637000Y-105834076D01*
X130591769Y-105606682D01*
X130503044Y-105392481D01*
X130374236Y-105199706D01*
X130210294Y-105035764D01*
X130017519Y-104906956D01*
X129803318Y-104818231D01*
X129575924Y-104773000D01*
X129344076Y-104773000D01*
X129116682Y-104818231D01*
X128902481Y-104906956D01*
X128709706Y-105035764D01*
X128545764Y-105199706D01*
X128416956Y-105392481D01*
X128328231Y-105606682D01*
X128283000Y-105834076D01*
X119747000Y-105834076D01*
X119701769Y-105606682D01*
X119613044Y-105392481D01*
X119484236Y-105199706D01*
X119320294Y-105035764D01*
X119127519Y-104906956D01*
X118913318Y-104818231D01*
X118685924Y-104773000D01*
X118454076Y-104773000D01*
X118226682Y-104818231D01*
X118012481Y-104906956D01*
X117819706Y-105035764D01*
X117655764Y-105199706D01*
X117526956Y-105392481D01*
X117438231Y-105606682D01*
X117393000Y-105834076D01*
X94007000Y-105834076D01*
X94007000Y-105641515D01*
X94574145Y-105641515D01*
X94622138Y-105823000D01*
X95583000Y-105823000D01*
X95583000Y-104861616D01*
X95837000Y-104861616D01*
X95837000Y-105823000D01*
X96797862Y-105823000D01*
X96845855Y-105641515D01*
X96825819Y-105575447D01*
X96731307Y-105364958D01*
X96597547Y-105176952D01*
X96429679Y-105018654D01*
X96234154Y-104896147D01*
X96018486Y-104814139D01*
X95837000Y-104861616D01*
X95583000Y-104861616D01*
X95401514Y-104814139D01*
X95185846Y-104896147D01*
X94990321Y-105018654D01*
X94822453Y-105176952D01*
X94688693Y-105364958D01*
X94594181Y-105575447D01*
X94574145Y-105641515D01*
X94007000Y-105641515D01*
X94007000Y-103294076D01*
X94533000Y-103294076D01*
X94533000Y-103525924D01*
X94578231Y-103753318D01*
X94666956Y-103967519D01*
X94795764Y-104160294D01*
X94959706Y-104324236D01*
X95152481Y-104453044D01*
X95366682Y-104541769D01*
X95594076Y-104587000D01*
X95825924Y-104587000D01*
X96053318Y-104541769D01*
X96267519Y-104453044D01*
X96460294Y-104324236D01*
X96624236Y-104160294D01*
X96753044Y-103967519D01*
X96841769Y-103753318D01*
X96887000Y-103525924D01*
X96887000Y-103294076D01*
X117393000Y-103294076D01*
X117393000Y-103525924D01*
X117438231Y-103753318D01*
X117526956Y-103967519D01*
X117655764Y-104160294D01*
X117819706Y-104324236D01*
X118012481Y-104453044D01*
X118226682Y-104541769D01*
X118454076Y-104587000D01*
X118685924Y-104587000D01*
X118913318Y-104541769D01*
X119127519Y-104453044D01*
X119320294Y-104324236D01*
X119484236Y-104160294D01*
X119613044Y-103967519D01*
X119701769Y-103753318D01*
X119708697Y-103718485D01*
X128324145Y-103718485D01*
X128344181Y-103784553D01*
X128438693Y-103995042D01*
X128572453Y-104183048D01*
X128740321Y-104341346D01*
X128935846Y-104463853D01*
X129151514Y-104545861D01*
X129333000Y-104498384D01*
X129333000Y-103537000D01*
X129587000Y-103537000D01*
X129587000Y-104498384D01*
X129768486Y-104545861D01*
X129984154Y-104463853D01*
X130179679Y-104341346D01*
X130347547Y-104183048D01*
X130481307Y-103995042D01*
X130575819Y-103784553D01*
X130595855Y-103718485D01*
X130547862Y-103537000D01*
X129587000Y-103537000D01*
X129333000Y-103537000D01*
X128372138Y-103537000D01*
X128324145Y-103718485D01*
X119708697Y-103718485D01*
X119747000Y-103525924D01*
X119747000Y-103294076D01*
X119708698Y-103101515D01*
X128324145Y-103101515D01*
X128372138Y-103283000D01*
X129333000Y-103283000D01*
X129333000Y-102321616D01*
X129587000Y-102321616D01*
X129587000Y-103283000D01*
X130547862Y-103283000D01*
X130595855Y-103101515D01*
X130575819Y-103035447D01*
X130481307Y-102824958D01*
X130347547Y-102636952D01*
X130179679Y-102478654D01*
X129984154Y-102356147D01*
X129768486Y-102274139D01*
X129587000Y-102321616D01*
X129333000Y-102321616D01*
X129151514Y-102274139D01*
X128935846Y-102356147D01*
X128740321Y-102478654D01*
X128572453Y-102636952D01*
X128438693Y-102824958D01*
X128344181Y-103035447D01*
X128324145Y-103101515D01*
X119708698Y-103101515D01*
X119701769Y-103066682D01*
X119613044Y-102852481D01*
X119484236Y-102659706D01*
X119320294Y-102495764D01*
X119127519Y-102366956D01*
X118913318Y-102278231D01*
X118685924Y-102233000D01*
X118454076Y-102233000D01*
X118226682Y-102278231D01*
X118012481Y-102366956D01*
X117819706Y-102495764D01*
X117655764Y-102659706D01*
X117526956Y-102852481D01*
X117438231Y-103066682D01*
X117393000Y-103294076D01*
X96887000Y-103294076D01*
X96841769Y-103066682D01*
X96753044Y-102852481D01*
X96624236Y-102659706D01*
X96460294Y-102495764D01*
X96267519Y-102366956D01*
X96053318Y-102278231D01*
X95825924Y-102233000D01*
X95594076Y-102233000D01*
X95366682Y-102278231D01*
X95152481Y-102366956D01*
X94959706Y-102495764D01*
X94795764Y-102659706D01*
X94666956Y-102852481D01*
X94578231Y-103066682D01*
X94533000Y-103294076D01*
X94007000Y-103294076D01*
X94007000Y-100754076D01*
X94533000Y-100754076D01*
X94533000Y-100985924D01*
X94578231Y-101213318D01*
X94666956Y-101427519D01*
X94795764Y-101620294D01*
X94959706Y-101784236D01*
X95152481Y-101913044D01*
X95366682Y-102001769D01*
X95594076Y-102047000D01*
X95825924Y-102047000D01*
X96053318Y-102001769D01*
X96267519Y-101913044D01*
X96460294Y-101784236D01*
X96624236Y-101620294D01*
X96753044Y-101427519D01*
X96841769Y-101213318D01*
X96887000Y-100985924D01*
X96887000Y-100754076D01*
X117393000Y-100754076D01*
X117393000Y-100985924D01*
X117438231Y-101213318D01*
X117526956Y-101427519D01*
X117655764Y-101620294D01*
X117819706Y-101784236D01*
X118012481Y-101913044D01*
X118226682Y-102001769D01*
X118454076Y-102047000D01*
X118685924Y-102047000D01*
X118913318Y-102001769D01*
X119127519Y-101913044D01*
X119320294Y-101784236D01*
X119484236Y-101620294D01*
X119613044Y-101427519D01*
X119701769Y-101213318D01*
X119747000Y-100985924D01*
X119747000Y-100754076D01*
X128283000Y-100754076D01*
X128283000Y-100985924D01*
X128328231Y-101213318D01*
X128416956Y-101427519D01*
X128545764Y-101620294D01*
X128709706Y-101784236D01*
X128902481Y-101913044D01*
X129116682Y-102001769D01*
X129344076Y-102047000D01*
X129575924Y-102047000D01*
X129803318Y-102001769D01*
X129904022Y-101960056D01*
X139633000Y-101960056D01*
X139633000Y-102319944D01*
X139703211Y-102672916D01*
X139840934Y-103005409D01*
X140040876Y-103304645D01*
X140295355Y-103559124D01*
X140594591Y-103759066D01*
X140927084Y-103896789D01*
X141280056Y-103967000D01*
X141639944Y-103967000D01*
X141992916Y-103896789D01*
X142325409Y-103759066D01*
X142624645Y-103559124D01*
X142879124Y-103304645D01*
X143079066Y-103005409D01*
X143216789Y-102672916D01*
X143287000Y-102319944D01*
X143287000Y-101960056D01*
X143216789Y-101607084D01*
X143079066Y-101274591D01*
X142879124Y-100975355D01*
X142624645Y-100720876D01*
X142325409Y-100520934D01*
X141992916Y-100383211D01*
X141639944Y-100313000D01*
X141280056Y-100313000D01*
X140927084Y-100383211D01*
X140594591Y-100520934D01*
X140295355Y-100720876D01*
X140040876Y-100975355D01*
X139840934Y-101274591D01*
X139703211Y-101607084D01*
X139633000Y-101960056D01*
X129904022Y-101960056D01*
X130017519Y-101913044D01*
X130210294Y-101784236D01*
X130374236Y-101620294D01*
X130503044Y-101427519D01*
X130591769Y-101213318D01*
X130637000Y-100985924D01*
X130637000Y-100754076D01*
X130591769Y-100526682D01*
X130503044Y-100312481D01*
X130374236Y-100119706D01*
X130210294Y-99955764D01*
X130017519Y-99826956D01*
X129803318Y-99738231D01*
X129575924Y-99693000D01*
X129344076Y-99693000D01*
X129116682Y-99738231D01*
X128902481Y-99826956D01*
X128709706Y-99955764D01*
X128545764Y-100119706D01*
X128416956Y-100312481D01*
X128328231Y-100526682D01*
X128283000Y-100754076D01*
X119747000Y-100754076D01*
X119701769Y-100526682D01*
X119613044Y-100312481D01*
X119484236Y-100119706D01*
X119320294Y-99955764D01*
X119127519Y-99826956D01*
X118913318Y-99738231D01*
X118685924Y-99693000D01*
X118454076Y-99693000D01*
X118226682Y-99738231D01*
X118012481Y-99826956D01*
X117819706Y-99955764D01*
X117655764Y-100119706D01*
X117526956Y-100312481D01*
X117438231Y-100526682D01*
X117393000Y-100754076D01*
X96887000Y-100754076D01*
X96841769Y-100526682D01*
X96753044Y-100312481D01*
X96624236Y-100119706D01*
X96460294Y-99955764D01*
X96267519Y-99826956D01*
X96053318Y-99738231D01*
X95825924Y-99693000D01*
X95594076Y-99693000D01*
X95366682Y-99738231D01*
X95152481Y-99826956D01*
X94959706Y-99955764D01*
X94795764Y-100119706D01*
X94666956Y-100312481D01*
X94578231Y-100526682D01*
X94533000Y-100754076D01*
X94007000Y-100754076D01*
X94007000Y-98214076D01*
X94533000Y-98214076D01*
X94533000Y-98445924D01*
X94578231Y-98673318D01*
X94666956Y-98887519D01*
X94795764Y-99080294D01*
X94959706Y-99244236D01*
X95152481Y-99373044D01*
X95366682Y-99461769D01*
X95594076Y-99507000D01*
X95825924Y-99507000D01*
X96053318Y-99461769D01*
X96267519Y-99373044D01*
X96460294Y-99244236D01*
X96624236Y-99080294D01*
X96753044Y-98887519D01*
X96841769Y-98673318D01*
X96887000Y-98445924D01*
X96887000Y-98214076D01*
X117393000Y-98214076D01*
X117393000Y-98445924D01*
X117438231Y-98673318D01*
X117526956Y-98887519D01*
X117655764Y-99080294D01*
X117819706Y-99244236D01*
X118012481Y-99373044D01*
X118226682Y-99461769D01*
X118454076Y-99507000D01*
X118685924Y-99507000D01*
X118913318Y-99461769D01*
X119127519Y-99373044D01*
X119320294Y-99244236D01*
X119484236Y-99080294D01*
X119613044Y-98887519D01*
X119701769Y-98673318D01*
X119747000Y-98445924D01*
X119747000Y-98214076D01*
X119701769Y-97986682D01*
X119613044Y-97772481D01*
X119484236Y-97579706D01*
X119320294Y-97415764D01*
X119127519Y-97286956D01*
X118913318Y-97198231D01*
X118685924Y-97153000D01*
X118454076Y-97153000D01*
X118226682Y-97198231D01*
X118012481Y-97286956D01*
X117819706Y-97415764D01*
X117655764Y-97579706D01*
X117526956Y-97772481D01*
X117438231Y-97986682D01*
X117393000Y-98214076D01*
X96887000Y-98214076D01*
X96841769Y-97986682D01*
X96753044Y-97772481D01*
X96624236Y-97579706D01*
X96460294Y-97415764D01*
X96267519Y-97286956D01*
X96053318Y-97198231D01*
X95825924Y-97153000D01*
X95594076Y-97153000D01*
X95366682Y-97198231D01*
X95152481Y-97286956D01*
X94959706Y-97415764D01*
X94795764Y-97579706D01*
X94666956Y-97772481D01*
X94578231Y-97986682D01*
X94533000Y-98214076D01*
X94007000Y-98214076D01*
X94007000Y-95674076D01*
X94533000Y-95674076D01*
X94533000Y-95905924D01*
X94578231Y-96133318D01*
X94666956Y-96347519D01*
X94795764Y-96540294D01*
X94959706Y-96704236D01*
X95152481Y-96833044D01*
X95366682Y-96921769D01*
X95594076Y-96967000D01*
X95825924Y-96967000D01*
X96053318Y-96921769D01*
X96267519Y-96833044D01*
X96460294Y-96704236D01*
X96624236Y-96540294D01*
X96753044Y-96347519D01*
X96841769Y-96133318D01*
X96887000Y-95905924D01*
X96887000Y-95674076D01*
X117393000Y-95674076D01*
X117393000Y-95905924D01*
X117438231Y-96133318D01*
X117526956Y-96347519D01*
X117655764Y-96540294D01*
X117819706Y-96704236D01*
X118012481Y-96833044D01*
X118226682Y-96921769D01*
X118454076Y-96967000D01*
X118685924Y-96967000D01*
X118913318Y-96921769D01*
X119127519Y-96833044D01*
X119320294Y-96704236D01*
X119484236Y-96540294D01*
X119613044Y-96347519D01*
X119701769Y-96133318D01*
X119747000Y-95905924D01*
X119747000Y-95745000D01*
X145951418Y-95745000D01*
X145951418Y-96945000D01*
X145962535Y-97057876D01*
X145995460Y-97166414D01*
X146048927Y-97266443D01*
X146120881Y-97354119D01*
X146208557Y-97426073D01*
X146308586Y-97479540D01*
X146417124Y-97512465D01*
X146530000Y-97523582D01*
X147980000Y-97523582D01*
X148092876Y-97512465D01*
X148201414Y-97479540D01*
X148301443Y-97426073D01*
X148389119Y-97354119D01*
X148461073Y-97266443D01*
X148514540Y-97166414D01*
X148547465Y-97057876D01*
X148558582Y-96945000D01*
X148558582Y-95745000D01*
X148547465Y-95632124D01*
X148514540Y-95523586D01*
X148461073Y-95423557D01*
X148389119Y-95335881D01*
X148301443Y-95263927D01*
X148201414Y-95210460D01*
X148092876Y-95177535D01*
X147980000Y-95166418D01*
X146530000Y-95166418D01*
X146417124Y-95177535D01*
X146308586Y-95210460D01*
X146208557Y-95263927D01*
X146120881Y-95335881D01*
X146048927Y-95423557D01*
X145995460Y-95523586D01*
X145962535Y-95632124D01*
X145951418Y-95745000D01*
X119747000Y-95745000D01*
X119747000Y-95674076D01*
X119701769Y-95446682D01*
X119613044Y-95232481D01*
X119484236Y-95039706D01*
X119320294Y-94875764D01*
X119127519Y-94746956D01*
X118913318Y-94658231D01*
X118685924Y-94613000D01*
X118454076Y-94613000D01*
X118226682Y-94658231D01*
X118012481Y-94746956D01*
X117819706Y-94875764D01*
X117655764Y-95039706D01*
X117526956Y-95232481D01*
X117438231Y-95446682D01*
X117393000Y-95674076D01*
X96887000Y-95674076D01*
X96841769Y-95446682D01*
X96753044Y-95232481D01*
X96624236Y-95039706D01*
X96460294Y-94875764D01*
X96267519Y-94746956D01*
X96053318Y-94658231D01*
X95825924Y-94613000D01*
X95594076Y-94613000D01*
X95366682Y-94658231D01*
X95152481Y-94746956D01*
X94959706Y-94875764D01*
X94795764Y-95039706D01*
X94666956Y-95232481D01*
X94578231Y-95446682D01*
X94533000Y-95674076D01*
X94007000Y-95674076D01*
X94007000Y-93134076D01*
X94533000Y-93134076D01*
X94533000Y-93365924D01*
X94578231Y-93593318D01*
X94666956Y-93807519D01*
X94795764Y-94000294D01*
X94959706Y-94164236D01*
X95152481Y-94293044D01*
X95366682Y-94381769D01*
X95594076Y-94427000D01*
X95825924Y-94427000D01*
X96053318Y-94381769D01*
X96267519Y-94293044D01*
X96460294Y-94164236D01*
X96624236Y-94000294D01*
X96753044Y-93807519D01*
X96841769Y-93593318D01*
X96887000Y-93365924D01*
X96887000Y-93134076D01*
X117393000Y-93134076D01*
X117393000Y-93365924D01*
X117438231Y-93593318D01*
X117526956Y-93807519D01*
X117655764Y-94000294D01*
X117819706Y-94164236D01*
X118012481Y-94293044D01*
X118226682Y-94381769D01*
X118454076Y-94427000D01*
X118685924Y-94427000D01*
X118913318Y-94381769D01*
X119127519Y-94293044D01*
X119320294Y-94164236D01*
X119484236Y-94000294D01*
X119588000Y-93845000D01*
X145947306Y-93845000D01*
X145970031Y-94075732D01*
X146037333Y-94297597D01*
X146146626Y-94502070D01*
X146293709Y-94681291D01*
X146472930Y-94828374D01*
X146677403Y-94937667D01*
X146899268Y-95004969D01*
X147072188Y-95022000D01*
X147437812Y-95022000D01*
X147610732Y-95004969D01*
X147832597Y-94937667D01*
X148037070Y-94828374D01*
X148216291Y-94681291D01*
X148363374Y-94502070D01*
X148472667Y-94297597D01*
X148539969Y-94075732D01*
X148562694Y-93845000D01*
X148539969Y-93614268D01*
X148472667Y-93392403D01*
X148363374Y-93187930D01*
X148216291Y-93008709D01*
X148037070Y-92861626D01*
X147832597Y-92752333D01*
X147610732Y-92685031D01*
X147437812Y-92668000D01*
X147072188Y-92668000D01*
X146899268Y-92685031D01*
X146677403Y-92752333D01*
X146472930Y-92861626D01*
X146293709Y-93008709D01*
X146146626Y-93187930D01*
X146037333Y-93392403D01*
X145970031Y-93614268D01*
X145947306Y-93845000D01*
X119588000Y-93845000D01*
X119613044Y-93807519D01*
X119701769Y-93593318D01*
X119747000Y-93365924D01*
X119747000Y-93134076D01*
X119701769Y-92906682D01*
X119613044Y-92692481D01*
X119484236Y-92499706D01*
X119320294Y-92335764D01*
X119127519Y-92206956D01*
X118913318Y-92118231D01*
X118685924Y-92073000D01*
X118454076Y-92073000D01*
X118226682Y-92118231D01*
X118012481Y-92206956D01*
X117819706Y-92335764D01*
X117655764Y-92499706D01*
X117526956Y-92692481D01*
X117438231Y-92906682D01*
X117393000Y-93134076D01*
X96887000Y-93134076D01*
X96841769Y-92906682D01*
X96753044Y-92692481D01*
X96624236Y-92499706D01*
X96460294Y-92335764D01*
X96267519Y-92206956D01*
X96053318Y-92118231D01*
X95825924Y-92073000D01*
X95594076Y-92073000D01*
X95366682Y-92118231D01*
X95152481Y-92206956D01*
X94959706Y-92335764D01*
X94795764Y-92499706D01*
X94666956Y-92692481D01*
X94578231Y-92906682D01*
X94533000Y-93134076D01*
X94007000Y-93134076D01*
X94007000Y-82974076D01*
X94533000Y-82974076D01*
X94533000Y-83205924D01*
X94578231Y-83433318D01*
X94666956Y-83647519D01*
X94795764Y-83840294D01*
X94959706Y-84004236D01*
X95152481Y-84133044D01*
X95366682Y-84221769D01*
X95594076Y-84267000D01*
X95825924Y-84267000D01*
X96053318Y-84221769D01*
X96267519Y-84133044D01*
X96460294Y-84004236D01*
X96624236Y-83840294D01*
X96740027Y-83667000D01*
X99557070Y-83667000D01*
X98171070Y-85053000D01*
X96740027Y-85053000D01*
X96624236Y-84879706D01*
X96460294Y-84715764D01*
X96267519Y-84586956D01*
X96053318Y-84498231D01*
X95825924Y-84453000D01*
X95594076Y-84453000D01*
X95366682Y-84498231D01*
X95152481Y-84586956D01*
X94959706Y-84715764D01*
X94795764Y-84879706D01*
X94666956Y-85072481D01*
X94578231Y-85286682D01*
X94533000Y-85514076D01*
X94533000Y-85745924D01*
X94578231Y-85973318D01*
X94666956Y-86187519D01*
X94795764Y-86380294D01*
X94959706Y-86544236D01*
X95152481Y-86673044D01*
X95366682Y-86761769D01*
X95594076Y-86807000D01*
X95825924Y-86807000D01*
X96053318Y-86761769D01*
X96267519Y-86673044D01*
X96460294Y-86544236D01*
X96624236Y-86380294D01*
X96740027Y-86207000D01*
X98007035Y-86207000D01*
X96692366Y-87521669D01*
X96624236Y-87419706D01*
X96460294Y-87255764D01*
X96267519Y-87126956D01*
X96053318Y-87038231D01*
X95825924Y-86993000D01*
X95594076Y-86993000D01*
X95366682Y-87038231D01*
X95152481Y-87126956D01*
X94959706Y-87255764D01*
X94795764Y-87419706D01*
X94666956Y-87612481D01*
X94578231Y-87826682D01*
X94533000Y-88054076D01*
X94533000Y-88285924D01*
X94578231Y-88513318D01*
X94666956Y-88727519D01*
X94795764Y-88920294D01*
X94959706Y-89084236D01*
X95152481Y-89213044D01*
X95366682Y-89301769D01*
X95594076Y-89347000D01*
X95825924Y-89347000D01*
X95864715Y-89339284D01*
X95670999Y-89533000D01*
X95594076Y-89533000D01*
X95366682Y-89578231D01*
X95152481Y-89666956D01*
X94959706Y-89795764D01*
X94795764Y-89959706D01*
X94666956Y-90152481D01*
X94578231Y-90366682D01*
X94533000Y-90594076D01*
X94533000Y-90825924D01*
X94578231Y-91053318D01*
X94666956Y-91267519D01*
X94795764Y-91460294D01*
X94959706Y-91624236D01*
X95152481Y-91753044D01*
X95366682Y-91841769D01*
X95594076Y-91887000D01*
X95825924Y-91887000D01*
X96053318Y-91841769D01*
X96267519Y-91753044D01*
X96460294Y-91624236D01*
X96624236Y-91460294D01*
X96753044Y-91267519D01*
X96841769Y-91053318D01*
X96887000Y-90825924D01*
X96887000Y-90594076D01*
X117393000Y-90594076D01*
X117393000Y-90825924D01*
X117438231Y-91053318D01*
X117526956Y-91267519D01*
X117655764Y-91460294D01*
X117819706Y-91624236D01*
X118012481Y-91753044D01*
X118226682Y-91841769D01*
X118454076Y-91887000D01*
X118685924Y-91887000D01*
X118913318Y-91841769D01*
X119127519Y-91753044D01*
X119320294Y-91624236D01*
X119484236Y-91460294D01*
X119613044Y-91267519D01*
X119701769Y-91053318D01*
X119747000Y-90825924D01*
X119747000Y-90594076D01*
X119701769Y-90366682D01*
X119613044Y-90152481D01*
X119484236Y-89959706D01*
X119320294Y-89795764D01*
X119127519Y-89666956D01*
X118913318Y-89578231D01*
X118685924Y-89533000D01*
X118454076Y-89533000D01*
X118226682Y-89578231D01*
X118012481Y-89666956D01*
X117819706Y-89795764D01*
X117655764Y-89959706D01*
X117526956Y-90152481D01*
X117438231Y-90366682D01*
X117393000Y-90594076D01*
X96887000Y-90594076D01*
X96841769Y-90366682D01*
X96753044Y-90152481D01*
X96725197Y-90110804D01*
X98357516Y-88478485D01*
X117434145Y-88478485D01*
X117454181Y-88544553D01*
X117548693Y-88755042D01*
X117682453Y-88943048D01*
X117850321Y-89101346D01*
X118045846Y-89223853D01*
X118261514Y-89305861D01*
X118443000Y-89258384D01*
X118443000Y-88297000D01*
X118697000Y-88297000D01*
X118697000Y-89258384D01*
X118878486Y-89305861D01*
X119094154Y-89223853D01*
X119289679Y-89101346D01*
X119457547Y-88943048D01*
X119591307Y-88755042D01*
X119685819Y-88544553D01*
X119705855Y-88478485D01*
X119657862Y-88297000D01*
X118697000Y-88297000D01*
X118443000Y-88297000D01*
X117482138Y-88297000D01*
X117434145Y-88478485D01*
X98357516Y-88478485D01*
X98974486Y-87861515D01*
X117434145Y-87861515D01*
X117482138Y-88043000D01*
X118443000Y-88043000D01*
X118443000Y-87081616D01*
X118697000Y-87081616D01*
X118697000Y-88043000D01*
X119657862Y-88043000D01*
X119705855Y-87861515D01*
X119685819Y-87795447D01*
X119591307Y-87584958D01*
X119457547Y-87396952D01*
X119289679Y-87238654D01*
X119094154Y-87116147D01*
X118878486Y-87034139D01*
X118697000Y-87081616D01*
X118443000Y-87081616D01*
X118261514Y-87034139D01*
X118045846Y-87116147D01*
X117850321Y-87238654D01*
X117682453Y-87396952D01*
X117548693Y-87584958D01*
X117454181Y-87795447D01*
X117434145Y-87861515D01*
X98974486Y-87861515D01*
X101321925Y-85514076D01*
X117393000Y-85514076D01*
X117393000Y-85745924D01*
X117438231Y-85973318D01*
X117526956Y-86187519D01*
X117655764Y-86380294D01*
X117819706Y-86544236D01*
X118012481Y-86673044D01*
X118226682Y-86761769D01*
X118454076Y-86807000D01*
X118685924Y-86807000D01*
X118913318Y-86761769D01*
X119127519Y-86673044D01*
X119320294Y-86544236D01*
X119484236Y-86380294D01*
X119613044Y-86187519D01*
X119701769Y-85973318D01*
X119747000Y-85745924D01*
X119747000Y-85514076D01*
X119701769Y-85286682D01*
X119613044Y-85072481D01*
X119484236Y-84879706D01*
X119320294Y-84715764D01*
X119127519Y-84586956D01*
X118913318Y-84498231D01*
X118685924Y-84453000D01*
X118454076Y-84453000D01*
X118226682Y-84498231D01*
X118012481Y-84586956D01*
X117819706Y-84715764D01*
X117655764Y-84879706D01*
X117526956Y-85072481D01*
X117438231Y-85286682D01*
X117393000Y-85514076D01*
X101321925Y-85514076D01*
X103861925Y-82974076D01*
X117393000Y-82974076D01*
X117393000Y-83205924D01*
X117438231Y-83433318D01*
X117526956Y-83647519D01*
X117655764Y-83840294D01*
X117819706Y-84004236D01*
X118012481Y-84133044D01*
X118226682Y-84221769D01*
X118454076Y-84267000D01*
X118685924Y-84267000D01*
X118913318Y-84221769D01*
X119127519Y-84133044D01*
X119320294Y-84004236D01*
X119484236Y-83840294D01*
X119613044Y-83647519D01*
X119701769Y-83433318D01*
X119747000Y-83205924D01*
X119747000Y-82974076D01*
X119701769Y-82746682D01*
X119613044Y-82532481D01*
X119484236Y-82339706D01*
X119320294Y-82175764D01*
X119127519Y-82046956D01*
X118913318Y-81958231D01*
X118685924Y-81913000D01*
X118454076Y-81913000D01*
X118226682Y-81958231D01*
X118012481Y-82046956D01*
X117819706Y-82175764D01*
X117655764Y-82339706D01*
X117526956Y-82532481D01*
X117438231Y-82746682D01*
X117393000Y-82974076D01*
X103861925Y-82974076D01*
X106401925Y-80434076D01*
X117393000Y-80434076D01*
X117393000Y-80665924D01*
X117438231Y-80893318D01*
X117526956Y-81107519D01*
X117655764Y-81300294D01*
X117819706Y-81464236D01*
X118012481Y-81593044D01*
X118226682Y-81681769D01*
X118454076Y-81727000D01*
X118685924Y-81727000D01*
X118913318Y-81681769D01*
X119127519Y-81593044D01*
X119320294Y-81464236D01*
X119484236Y-81300294D01*
X119613044Y-81107519D01*
X119701769Y-80893318D01*
X119747000Y-80665924D01*
X119747000Y-80434076D01*
X119701769Y-80206682D01*
X119613044Y-79992481D01*
X119484236Y-79799706D01*
X119320294Y-79635764D01*
X119127519Y-79506956D01*
X118913318Y-79418231D01*
X118685924Y-79373000D01*
X118454076Y-79373000D01*
X118226682Y-79418231D01*
X118012481Y-79506956D01*
X117819706Y-79635764D01*
X117655764Y-79799706D01*
X117526956Y-79992481D01*
X117438231Y-80206682D01*
X117393000Y-80434076D01*
X106401925Y-80434076D01*
X108941925Y-77894076D01*
X117393000Y-77894076D01*
X117393000Y-78125924D01*
X117438231Y-78353318D01*
X117526956Y-78567519D01*
X117655764Y-78760294D01*
X117819706Y-78924236D01*
X118012481Y-79053044D01*
X118226682Y-79141769D01*
X118454076Y-79187000D01*
X118685924Y-79187000D01*
X118913318Y-79141769D01*
X119127519Y-79053044D01*
X119320294Y-78924236D01*
X119484236Y-78760294D01*
X119613044Y-78567519D01*
X119701769Y-78353318D01*
X119747000Y-78125924D01*
X119747000Y-77894076D01*
X119701769Y-77666682D01*
X119613044Y-77452481D01*
X119484236Y-77259706D01*
X119320294Y-77095764D01*
X119127519Y-76966956D01*
X118913318Y-76878231D01*
X118685924Y-76833000D01*
X118454076Y-76833000D01*
X118226682Y-76878231D01*
X118012481Y-76966956D01*
X117819706Y-77095764D01*
X117655764Y-77259706D01*
X117526956Y-77452481D01*
X117438231Y-77666682D01*
X117393000Y-77894076D01*
X108941925Y-77894076D01*
X111481925Y-75354076D01*
X117393000Y-75354076D01*
X117393000Y-75585924D01*
X117438231Y-75813318D01*
X117526956Y-76027519D01*
X117655764Y-76220294D01*
X117819706Y-76384236D01*
X118012481Y-76513044D01*
X118226682Y-76601769D01*
X118454076Y-76647000D01*
X118685924Y-76647000D01*
X118913318Y-76601769D01*
X119127519Y-76513044D01*
X119320294Y-76384236D01*
X119484236Y-76220294D01*
X119613044Y-76027519D01*
X119701769Y-75813318D01*
X119747000Y-75585924D01*
X119747000Y-75354076D01*
X119701769Y-75126682D01*
X119613044Y-74912481D01*
X119484236Y-74719706D01*
X119320294Y-74555764D01*
X119127519Y-74426956D01*
X118913318Y-74338231D01*
X118685924Y-74293000D01*
X118454076Y-74293000D01*
X118226682Y-74338231D01*
X118012481Y-74426956D01*
X117819706Y-74555764D01*
X117655764Y-74719706D01*
X117526956Y-74912481D01*
X117438231Y-75126682D01*
X117393000Y-75354076D01*
X111481925Y-75354076D01*
X113597516Y-73238485D01*
X117434145Y-73238485D01*
X117454181Y-73304553D01*
X117548693Y-73515042D01*
X117682453Y-73703048D01*
X117850321Y-73861346D01*
X118045846Y-73983853D01*
X118261514Y-74065861D01*
X118443000Y-74018384D01*
X118443000Y-73057000D01*
X118697000Y-73057000D01*
X118697000Y-74018384D01*
X118878486Y-74065861D01*
X119094154Y-73983853D01*
X119289679Y-73861346D01*
X119457547Y-73703048D01*
X119591307Y-73515042D01*
X119685819Y-73304553D01*
X119705855Y-73238485D01*
X119657862Y-73057000D01*
X118697000Y-73057000D01*
X118443000Y-73057000D01*
X117482138Y-73057000D01*
X117434145Y-73238485D01*
X113597516Y-73238485D01*
X114214486Y-72621515D01*
X117434145Y-72621515D01*
X117482138Y-72803000D01*
X118443000Y-72803000D01*
X118443000Y-71841616D01*
X118697000Y-71841616D01*
X118697000Y-72803000D01*
X119657862Y-72803000D01*
X119705855Y-72621515D01*
X119685819Y-72555447D01*
X119591307Y-72344958D01*
X119457547Y-72156952D01*
X119289679Y-71998654D01*
X119094154Y-71876147D01*
X118878486Y-71794139D01*
X118697000Y-71841616D01*
X118443000Y-71841616D01*
X118261514Y-71794139D01*
X118045846Y-71876147D01*
X117850321Y-71998654D01*
X117682453Y-72156952D01*
X117548693Y-72344958D01*
X117454181Y-72555447D01*
X117434145Y-72621515D01*
X114214486Y-72621515D01*
X116561925Y-70274076D01*
X117393000Y-70274076D01*
X117393000Y-70505924D01*
X117438231Y-70733318D01*
X117526956Y-70947519D01*
X117655764Y-71140294D01*
X117819706Y-71304236D01*
X118012481Y-71433044D01*
X118226682Y-71521769D01*
X118454076Y-71567000D01*
X118685924Y-71567000D01*
X118913318Y-71521769D01*
X119127519Y-71433044D01*
X119320294Y-71304236D01*
X119484236Y-71140294D01*
X119613044Y-70947519D01*
X119701769Y-70733318D01*
X119747000Y-70505924D01*
X119747000Y-70274076D01*
X119701769Y-70046682D01*
X119613044Y-69832481D01*
X119484236Y-69639706D01*
X119320294Y-69475764D01*
X119127519Y-69346956D01*
X118913318Y-69258231D01*
X118685924Y-69213000D01*
X118454076Y-69213000D01*
X118226682Y-69258231D01*
X118012481Y-69346956D01*
X117819706Y-69475764D01*
X117655764Y-69639706D01*
X117526956Y-69832481D01*
X117438231Y-70046682D01*
X117393000Y-70274076D01*
X116561925Y-70274076D01*
X118529002Y-68307000D01*
X123400999Y-68307000D01*
X146025479Y-90931480D01*
X145970031Y-91114268D01*
X145947306Y-91345000D01*
X145970031Y-91575732D01*
X146037333Y-91797597D01*
X146146626Y-92002070D01*
X146293709Y-92181291D01*
X146472930Y-92328374D01*
X146677403Y-92437667D01*
X146899268Y-92504969D01*
X147072188Y-92522000D01*
X147437812Y-92522000D01*
X147610732Y-92504969D01*
X147832597Y-92437667D01*
X148037070Y-92328374D01*
X148216291Y-92181291D01*
X148363374Y-92002070D01*
X148472667Y-91797597D01*
X148539969Y-91575732D01*
X148562694Y-91345000D01*
X148539969Y-91114268D01*
X148472667Y-90892403D01*
X148363374Y-90687930D01*
X148216291Y-90508709D01*
X148037070Y-90361626D01*
X147832597Y-90252333D01*
X147610732Y-90185031D01*
X147437812Y-90168000D01*
X147072188Y-90168000D01*
X146909977Y-90183976D01*
X146647896Y-89921895D01*
X146677403Y-89937667D01*
X146899268Y-90004969D01*
X147072188Y-90022000D01*
X147437812Y-90022000D01*
X147610732Y-90004969D01*
X147832597Y-89937667D01*
X148037070Y-89828374D01*
X148216291Y-89681291D01*
X148363374Y-89502070D01*
X148472667Y-89297597D01*
X148539969Y-89075732D01*
X148562694Y-88845000D01*
X148539969Y-88614268D01*
X148472667Y-88392403D01*
X148363374Y-88187930D01*
X148216291Y-88008709D01*
X148037070Y-87861626D01*
X147832597Y-87752333D01*
X147610732Y-87685031D01*
X147437812Y-87668000D01*
X147072188Y-87668000D01*
X146899268Y-87685031D01*
X146677403Y-87752333D01*
X146472930Y-87861626D01*
X146293709Y-88008709D01*
X146146626Y-88187930D01*
X146103828Y-88268000D01*
X146019001Y-88268000D01*
X144404486Y-86653485D01*
X145994145Y-86653485D01*
X146060376Y-86835901D01*
X146176699Y-87035142D01*
X146329656Y-87207861D01*
X146513370Y-87347421D01*
X146720781Y-87448458D01*
X146943918Y-87507090D01*
X147128000Y-87440142D01*
X147128000Y-86472000D01*
X147382000Y-86472000D01*
X147382000Y-87440142D01*
X147566082Y-87507090D01*
X147789219Y-87448458D01*
X147996630Y-87347421D01*
X148180344Y-87207861D01*
X148333301Y-87035142D01*
X148449624Y-86835901D01*
X148515855Y-86653485D01*
X148467862Y-86472000D01*
X147382000Y-86472000D01*
X147128000Y-86472000D01*
X146042138Y-86472000D01*
X145994145Y-86653485D01*
X144404486Y-86653485D01*
X143787516Y-86036515D01*
X145994145Y-86036515D01*
X146042138Y-86218000D01*
X147128000Y-86218000D01*
X147128000Y-85249858D01*
X147382000Y-85249858D01*
X147382000Y-86218000D01*
X148467862Y-86218000D01*
X148515855Y-86036515D01*
X148449624Y-85854099D01*
X148333301Y-85654858D01*
X148180344Y-85482139D01*
X147996630Y-85342579D01*
X147789219Y-85241542D01*
X147566082Y-85182910D01*
X147382000Y-85249858D01*
X147128000Y-85249858D01*
X146943918Y-85182910D01*
X146720781Y-85241542D01*
X146513370Y-85342579D01*
X146329656Y-85482139D01*
X146176699Y-85654858D01*
X146060376Y-85854099D01*
X145994145Y-86036515D01*
X143787516Y-86036515D01*
X141596001Y-83845000D01*
X145947306Y-83845000D01*
X145970031Y-84075732D01*
X146037333Y-84297597D01*
X146146626Y-84502070D01*
X146293709Y-84681291D01*
X146472930Y-84828374D01*
X146677403Y-84937667D01*
X146899268Y-85004969D01*
X147072188Y-85022000D01*
X147437812Y-85022000D01*
X147610732Y-85004969D01*
X147832597Y-84937667D01*
X148037070Y-84828374D01*
X148216291Y-84681291D01*
X148363374Y-84502070D01*
X148472667Y-84297597D01*
X148539969Y-84075732D01*
X148562694Y-83845000D01*
X148539969Y-83614268D01*
X148472667Y-83392403D01*
X148363374Y-83187930D01*
X148216291Y-83008709D01*
X148037070Y-82861626D01*
X147832597Y-82752333D01*
X147610732Y-82685031D01*
X147437812Y-82668000D01*
X147072188Y-82668000D01*
X146899268Y-82685031D01*
X146677403Y-82752333D01*
X146472930Y-82861626D01*
X146293709Y-83008709D01*
X146146626Y-83187930D01*
X146037333Y-83392403D01*
X145970031Y-83614268D01*
X145947306Y-83845000D01*
X141596001Y-83845000D01*
X131906001Y-74155000D01*
X145951418Y-74155000D01*
X145951418Y-75355000D01*
X145962535Y-75467876D01*
X145995460Y-75576414D01*
X146048927Y-75676443D01*
X146120881Y-75764119D01*
X146208557Y-75836073D01*
X146308586Y-75889540D01*
X146417124Y-75922465D01*
X146530000Y-75933582D01*
X147980000Y-75933582D01*
X148092876Y-75922465D01*
X148201414Y-75889540D01*
X148301443Y-75836073D01*
X148389119Y-75764119D01*
X148461073Y-75676443D01*
X148514540Y-75576414D01*
X148547465Y-75467876D01*
X148558582Y-75355000D01*
X148558582Y-74155000D01*
X148547465Y-74042124D01*
X148514540Y-73933586D01*
X148461073Y-73833557D01*
X148389119Y-73745881D01*
X148301443Y-73673927D01*
X148201414Y-73620460D01*
X148092876Y-73587535D01*
X147980000Y-73576418D01*
X146530000Y-73576418D01*
X146417124Y-73587535D01*
X146308586Y-73620460D01*
X146208557Y-73673927D01*
X146120881Y-73745881D01*
X146048927Y-73833557D01*
X145995460Y-73933586D01*
X145962535Y-74042124D01*
X145951418Y-74155000D01*
X131906001Y-74155000D01*
X124657979Y-66906978D01*
X142115977Y-66906978D01*
X145351961Y-70142962D01*
X145370026Y-70164974D01*
X145457885Y-70237079D01*
X145527103Y-70274076D01*
X145558123Y-70290657D01*
X145666888Y-70323651D01*
X145780000Y-70334791D01*
X145808339Y-70332000D01*
X146103828Y-70332000D01*
X146146626Y-70412070D01*
X146293709Y-70591291D01*
X146472930Y-70738374D01*
X146677403Y-70847667D01*
X146899268Y-70914969D01*
X147072188Y-70932000D01*
X147437812Y-70932000D01*
X147610732Y-70914969D01*
X147832597Y-70847667D01*
X148037070Y-70738374D01*
X148216291Y-70591291D01*
X148363374Y-70412070D01*
X148472667Y-70207597D01*
X148539969Y-69985732D01*
X148562694Y-69755000D01*
X148539969Y-69524268D01*
X148472667Y-69302403D01*
X148363374Y-69097930D01*
X148216291Y-68918709D01*
X148037070Y-68771626D01*
X147832597Y-68662333D01*
X147610732Y-68595031D01*
X147437812Y-68578000D01*
X147072188Y-68578000D01*
X146899268Y-68595031D01*
X146677403Y-68662333D01*
X146472930Y-68771626D01*
X146293709Y-68918709D01*
X146146626Y-69097930D01*
X146103828Y-69178000D01*
X146019001Y-69178000D01*
X143047968Y-66206967D01*
X143915966Y-66206967D01*
X145351961Y-67642962D01*
X145370026Y-67664974D01*
X145457885Y-67737079D01*
X145558124Y-67790657D01*
X145602782Y-67804204D01*
X145666888Y-67823651D01*
X145724886Y-67829363D01*
X145751664Y-67832000D01*
X145751669Y-67832000D01*
X145780000Y-67834790D01*
X145808331Y-67832000D01*
X146103828Y-67832000D01*
X146146626Y-67912070D01*
X146293709Y-68091291D01*
X146472930Y-68238374D01*
X146677403Y-68347667D01*
X146899268Y-68414969D01*
X147072188Y-68432000D01*
X147437812Y-68432000D01*
X147610732Y-68414969D01*
X147832597Y-68347667D01*
X148037070Y-68238374D01*
X148216291Y-68091291D01*
X148363374Y-67912070D01*
X148472667Y-67707597D01*
X148539969Y-67485732D01*
X148562694Y-67255000D01*
X148539969Y-67024268D01*
X148472667Y-66802403D01*
X148363374Y-66597930D01*
X148216291Y-66418709D01*
X148037070Y-66271626D01*
X147832597Y-66162333D01*
X147610732Y-66095031D01*
X147437812Y-66078000D01*
X147072188Y-66078000D01*
X146899268Y-66095031D01*
X146677403Y-66162333D01*
X146472930Y-66271626D01*
X146293709Y-66418709D01*
X146146626Y-66597930D01*
X146103828Y-66678000D01*
X146019001Y-66678000D01*
X144583006Y-65242005D01*
X144564941Y-65219993D01*
X144477082Y-65147888D01*
X144376843Y-65094310D01*
X144312737Y-65074864D01*
X144275228Y-65063485D01*
X145994145Y-65063485D01*
X146060376Y-65245901D01*
X146176699Y-65445142D01*
X146329656Y-65617861D01*
X146513370Y-65757421D01*
X146720781Y-65858458D01*
X146943918Y-65917090D01*
X147128000Y-65850142D01*
X147128000Y-64882000D01*
X147382000Y-64882000D01*
X147382000Y-65850142D01*
X147566082Y-65917090D01*
X147789219Y-65858458D01*
X147996630Y-65757421D01*
X148180344Y-65617861D01*
X148333301Y-65445142D01*
X148449624Y-65245901D01*
X148515855Y-65063485D01*
X148467862Y-64882000D01*
X147382000Y-64882000D01*
X147128000Y-64882000D01*
X146042138Y-64882000D01*
X145994145Y-65063485D01*
X144275228Y-65063485D01*
X144268078Y-65061316D01*
X144213012Y-65055893D01*
X144183303Y-65052967D01*
X144183298Y-65052967D01*
X144154967Y-65050177D01*
X144126636Y-65052967D01*
X117448469Y-65052967D01*
X117420138Y-65050177D01*
X117391807Y-65052967D01*
X117391802Y-65052967D01*
X117365024Y-65055604D01*
X117307026Y-65061316D01*
X117242920Y-65080763D01*
X117198262Y-65094310D01*
X117098023Y-65147888D01*
X117010164Y-65219993D01*
X116992099Y-65242005D01*
X99721105Y-82513000D01*
X96740027Y-82513000D01*
X96624236Y-82339706D01*
X96460294Y-82175764D01*
X96267519Y-82046956D01*
X96053318Y-81958231D01*
X95825924Y-81913000D01*
X95594076Y-81913000D01*
X95366682Y-81958231D01*
X95152481Y-82046956D01*
X94959706Y-82175764D01*
X94795764Y-82339706D01*
X94666956Y-82532481D01*
X94578231Y-82746682D01*
X94533000Y-82974076D01*
X94007000Y-82974076D01*
X94007000Y-80434076D01*
X94533000Y-80434076D01*
X94533000Y-80665924D01*
X94578231Y-80893318D01*
X94666956Y-81107519D01*
X94795764Y-81300294D01*
X94959706Y-81464236D01*
X95152481Y-81593044D01*
X95366682Y-81681769D01*
X95594076Y-81727000D01*
X95825924Y-81727000D01*
X96053318Y-81681769D01*
X96267519Y-81593044D01*
X96460294Y-81464236D01*
X96624236Y-81300294D01*
X96753044Y-81107519D01*
X96841769Y-80893318D01*
X96887000Y-80665924D01*
X96887000Y-80434076D01*
X96841769Y-80206682D01*
X96753044Y-79992481D01*
X96624236Y-79799706D01*
X96460294Y-79635764D01*
X96267519Y-79506956D01*
X96053318Y-79418231D01*
X95825924Y-79373000D01*
X95594076Y-79373000D01*
X95366682Y-79418231D01*
X95152481Y-79506956D01*
X94959706Y-79635764D01*
X94795764Y-79799706D01*
X94666956Y-79992481D01*
X94578231Y-80206682D01*
X94533000Y-80434076D01*
X94007000Y-80434076D01*
X94007000Y-77894076D01*
X94533000Y-77894076D01*
X94533000Y-78125924D01*
X94578231Y-78353318D01*
X94666956Y-78567519D01*
X94795764Y-78760294D01*
X94959706Y-78924236D01*
X95152481Y-79053044D01*
X95366682Y-79141769D01*
X95594076Y-79187000D01*
X95825924Y-79187000D01*
X96053318Y-79141769D01*
X96267519Y-79053044D01*
X96460294Y-78924236D01*
X96624236Y-78760294D01*
X96753044Y-78567519D01*
X96841769Y-78353318D01*
X96887000Y-78125924D01*
X96887000Y-77894076D01*
X96841769Y-77666682D01*
X96753044Y-77452481D01*
X96624236Y-77259706D01*
X96460294Y-77095764D01*
X96267519Y-76966956D01*
X96053318Y-76878231D01*
X95825924Y-76833000D01*
X95594076Y-76833000D01*
X95366682Y-76878231D01*
X95152481Y-76966956D01*
X94959706Y-77095764D01*
X94795764Y-77259706D01*
X94666956Y-77452481D01*
X94578231Y-77666682D01*
X94533000Y-77894076D01*
X94007000Y-77894076D01*
X94007000Y-75354076D01*
X94533000Y-75354076D01*
X94533000Y-75585924D01*
X94578231Y-75813318D01*
X94666956Y-76027519D01*
X94795764Y-76220294D01*
X94959706Y-76384236D01*
X95152481Y-76513044D01*
X95366682Y-76601769D01*
X95594076Y-76647000D01*
X95825924Y-76647000D01*
X96053318Y-76601769D01*
X96267519Y-76513044D01*
X96460294Y-76384236D01*
X96624236Y-76220294D01*
X96753044Y-76027519D01*
X96841769Y-75813318D01*
X96887000Y-75585924D01*
X96887000Y-75354076D01*
X96841769Y-75126682D01*
X96753044Y-74912481D01*
X96624236Y-74719706D01*
X96460294Y-74555764D01*
X96267519Y-74426956D01*
X96053318Y-74338231D01*
X95825924Y-74293000D01*
X95594076Y-74293000D01*
X95366682Y-74338231D01*
X95152481Y-74426956D01*
X94959706Y-74555764D01*
X94795764Y-74719706D01*
X94666956Y-74912481D01*
X94578231Y-75126682D01*
X94533000Y-75354076D01*
X94007000Y-75354076D01*
X94007000Y-72814076D01*
X94533000Y-72814076D01*
X94533000Y-73045924D01*
X94578231Y-73273318D01*
X94666956Y-73487519D01*
X94795764Y-73680294D01*
X94959706Y-73844236D01*
X95152481Y-73973044D01*
X95366682Y-74061769D01*
X95594076Y-74107000D01*
X95825924Y-74107000D01*
X96053318Y-74061769D01*
X96267519Y-73973044D01*
X96460294Y-73844236D01*
X96624236Y-73680294D01*
X96740027Y-73507000D01*
X107731669Y-73507000D01*
X107760000Y-73509790D01*
X107788331Y-73507000D01*
X107788336Y-73507000D01*
X107818045Y-73504074D01*
X107873111Y-73498651D01*
X107917770Y-73485103D01*
X107981876Y-73465657D01*
X108082115Y-73412079D01*
X108169974Y-73339974D01*
X108188039Y-73317962D01*
X117059486Y-64446515D01*
X145994145Y-64446515D01*
X146042138Y-64628000D01*
X147128000Y-64628000D01*
X147128000Y-63659858D01*
X147382000Y-63659858D01*
X147382000Y-64628000D01*
X148467862Y-64628000D01*
X148515855Y-64446515D01*
X148449624Y-64264099D01*
X148333301Y-64064858D01*
X148180344Y-63892139D01*
X147996630Y-63752579D01*
X147789219Y-63651542D01*
X147566082Y-63592910D01*
X147382000Y-63659858D01*
X147128000Y-63659858D01*
X146943918Y-63592910D01*
X146720781Y-63651542D01*
X146513370Y-63752579D01*
X146329656Y-63892139D01*
X146176699Y-64064858D01*
X146060376Y-64264099D01*
X145994145Y-64446515D01*
X117059486Y-64446515D01*
X119251001Y-62255000D01*
X145947306Y-62255000D01*
X145970031Y-62485732D01*
X146037333Y-62707597D01*
X146146626Y-62912070D01*
X146293709Y-63091291D01*
X146472930Y-63238374D01*
X146677403Y-63347667D01*
X146899268Y-63414969D01*
X147072188Y-63432000D01*
X147437812Y-63432000D01*
X147610732Y-63414969D01*
X147832597Y-63347667D01*
X148037070Y-63238374D01*
X148216291Y-63091291D01*
X148363374Y-62912070D01*
X148472667Y-62707597D01*
X148539969Y-62485732D01*
X148562694Y-62255000D01*
X148539969Y-62024268D01*
X148472667Y-61802403D01*
X148363374Y-61597930D01*
X148216291Y-61418709D01*
X148037070Y-61271626D01*
X147832597Y-61162333D01*
X147610732Y-61095031D01*
X147437812Y-61078000D01*
X147072188Y-61078000D01*
X146899268Y-61095031D01*
X146677403Y-61162333D01*
X146472930Y-61271626D01*
X146293709Y-61418709D01*
X146146626Y-61597930D01*
X146037333Y-61802403D01*
X145970031Y-62024268D01*
X145947306Y-62255000D01*
X119251001Y-62255000D01*
X121589001Y-59917000D01*
X148693000Y-59917000D01*
X148693001Y-70640998D01*
X148050968Y-71283031D01*
X148037070Y-71271626D01*
X147832597Y-71162333D01*
X147610732Y-71095031D01*
X147437812Y-71078000D01*
X147072188Y-71078000D01*
X146899268Y-71095031D01*
X146677403Y-71162333D01*
X146472930Y-71271626D01*
X146293709Y-71418709D01*
X146146626Y-71597930D01*
X146037333Y-71802403D01*
X145970031Y-72024268D01*
X145947306Y-72255000D01*
X145970031Y-72485732D01*
X146037333Y-72707597D01*
X146146626Y-72912070D01*
X146293709Y-73091291D01*
X146472930Y-73238374D01*
X146677403Y-73347667D01*
X146899268Y-73414969D01*
X147072188Y-73432000D01*
X147437812Y-73432000D01*
X147610732Y-73414969D01*
X147832597Y-73347667D01*
X148037070Y-73238374D01*
X148216291Y-73091291D01*
X148363374Y-72912070D01*
X148472667Y-72707597D01*
X148539969Y-72485732D01*
X148546491Y-72419510D01*
X149657962Y-71308039D01*
X149679974Y-71289974D01*
X149752079Y-71202115D01*
X149805657Y-71101876D01*
X149819204Y-71057218D01*
X149838651Y-70993112D01*
X149849791Y-70880000D01*
X149847000Y-70851661D01*
X149847000Y-59368339D01*
X149849791Y-59340000D01*
X149838651Y-59226888D01*
X149805657Y-59118123D01*
X149791816Y-59092228D01*
X149752079Y-59017885D01*
X149679974Y-58930026D01*
X149657962Y-58911961D01*
X137788039Y-47042038D01*
X137769974Y-47020026D01*
X137682115Y-46947921D01*
X137581876Y-46894343D01*
X137517770Y-46874897D01*
X137473111Y-46861349D01*
X137418045Y-46855926D01*
X137388336Y-46853000D01*
X137388331Y-46853000D01*
X137360000Y-46850210D01*
X137331669Y-46853000D01*
X112769001Y-46853000D01*
X111760266Y-45844265D01*
X111864236Y-45740294D01*
X111993044Y-45547519D01*
X112081769Y-45333318D01*
X112127000Y-45105924D01*
X112127000Y-44874076D01*
X112313000Y-44874076D01*
X112313000Y-45105924D01*
X112358231Y-45333318D01*
X112446956Y-45547519D01*
X112575764Y-45740294D01*
X112739706Y-45904236D01*
X112932481Y-46033044D01*
X113146682Y-46121769D01*
X113374076Y-46167000D01*
X113605924Y-46167000D01*
X113833318Y-46121769D01*
X114047519Y-46033044D01*
X114240294Y-45904236D01*
X114404236Y-45740294D01*
X114533044Y-45547519D01*
X114621769Y-45333318D01*
X114667000Y-45105924D01*
X114667000Y-44874076D01*
X114621769Y-44646682D01*
X114533044Y-44432481D01*
X114425020Y-44270811D01*
X148173000Y-44270811D01*
X148173000Y-44729189D01*
X148262426Y-45178761D01*
X148437840Y-45602248D01*
X148692501Y-45983376D01*
X149016624Y-46307499D01*
X149397752Y-46562160D01*
X149821239Y-46737574D01*
X150270811Y-46827000D01*
X150729189Y-46827000D01*
X151178761Y-46737574D01*
X151602248Y-46562160D01*
X151983376Y-46307499D01*
X152307499Y-45983376D01*
X152562160Y-45602248D01*
X152737574Y-45178761D01*
X152827000Y-44729189D01*
X152827000Y-44270811D01*
X152737574Y-43821239D01*
X152562160Y-43397752D01*
X152307499Y-43016624D01*
X151983376Y-42692501D01*
X151602248Y-42437840D01*
X151178761Y-42262426D01*
X150729189Y-42173000D01*
X150270811Y-42173000D01*
X149821239Y-42262426D01*
X149397752Y-42437840D01*
X149016624Y-42692501D01*
X148692501Y-43016624D01*
X148437840Y-43397752D01*
X148262426Y-43821239D01*
X148173000Y-44270811D01*
X114425020Y-44270811D01*
X114404236Y-44239706D01*
X114240294Y-44075764D01*
X114047519Y-43946956D01*
X113833318Y-43858231D01*
X113605924Y-43813000D01*
X113374076Y-43813000D01*
X113146682Y-43858231D01*
X112932481Y-43946956D01*
X112739706Y-44075764D01*
X112575764Y-44239706D01*
X112446956Y-44432481D01*
X112358231Y-44646682D01*
X112313000Y-44874076D01*
X112127000Y-44874076D01*
X112081769Y-44646682D01*
X111993044Y-44432481D01*
X111864236Y-44239706D01*
X111700294Y-44075764D01*
X111507519Y-43946956D01*
X111293318Y-43858231D01*
X111065924Y-43813000D01*
X110834076Y-43813000D01*
X110606682Y-43858231D01*
X110392481Y-43946956D01*
X110199706Y-44075764D01*
X110035764Y-44239706D01*
X109906956Y-44432481D01*
X109818231Y-44646682D01*
X109773000Y-44874076D01*
X109773000Y-45105924D01*
X109818231Y-45333318D01*
X109906956Y-45547519D01*
X110035764Y-45740294D01*
X110199706Y-45904236D01*
X110392481Y-46033044D01*
X110404013Y-46037821D01*
X110414344Y-46071876D01*
X110467922Y-46172115D01*
X110498840Y-46209788D01*
X110521963Y-46237964D01*
X110521966Y-46237967D01*
X110540027Y-46259974D01*
X110562034Y-46278035D01*
X112101961Y-47817962D01*
X112120026Y-47839974D01*
X112207885Y-47912079D01*
X112308124Y-47965657D01*
X112416888Y-47998650D01*
X112501664Y-48007000D01*
X112501670Y-48007000D01*
X112529999Y-48009790D01*
X112558328Y-48007000D01*
X137120999Y-48007000D01*
X147876999Y-58763000D01*
X121378328Y-58763000D01*
X121349999Y-58760210D01*
X121321670Y-58763000D01*
X121321664Y-58763000D01*
X121236888Y-58771350D01*
X121128124Y-58804343D01*
X121027885Y-58857921D01*
X120940026Y-58930026D01*
X120921963Y-58952036D01*
X107520999Y-72353000D01*
X96740027Y-72353000D01*
X96624236Y-72179706D01*
X96460294Y-72015764D01*
X96267519Y-71886956D01*
X96053318Y-71798231D01*
X95825924Y-71753000D01*
X95594076Y-71753000D01*
X95366682Y-71798231D01*
X95152481Y-71886956D01*
X94959706Y-72015764D01*
X94795764Y-72179706D01*
X94666956Y-72372481D01*
X94578231Y-72586682D01*
X94533000Y-72814076D01*
X94007000Y-72814076D01*
X94007000Y-70274076D01*
X94533000Y-70274076D01*
X94533000Y-70505924D01*
X94578231Y-70733318D01*
X94666956Y-70947519D01*
X94795764Y-71140294D01*
X94959706Y-71304236D01*
X95152481Y-71433044D01*
X95366682Y-71521769D01*
X95594076Y-71567000D01*
X95825924Y-71567000D01*
X96053318Y-71521769D01*
X96267519Y-71433044D01*
X96460294Y-71304236D01*
X96624236Y-71140294D01*
X96753044Y-70947519D01*
X96841769Y-70733318D01*
X96887000Y-70505924D01*
X96887000Y-70274076D01*
X96841769Y-70046682D01*
X96753044Y-69832481D01*
X96624236Y-69639706D01*
X96460294Y-69475764D01*
X96267519Y-69346956D01*
X96053318Y-69258231D01*
X95825924Y-69213000D01*
X95594076Y-69213000D01*
X95366682Y-69258231D01*
X95152481Y-69346956D01*
X94959706Y-69475764D01*
X94795764Y-69639706D01*
X94666956Y-69832481D01*
X94578231Y-70046682D01*
X94533000Y-70274076D01*
X94007000Y-70274076D01*
X94007000Y-69952553D01*
X95152554Y-68807000D01*
X109829386Y-68807000D01*
X109870000Y-68811000D01*
X109910614Y-68807000D01*
X109910624Y-68807000D01*
X110032120Y-68795034D01*
X110188010Y-68747745D01*
X110331679Y-68670952D01*
X110457606Y-68567606D01*
X110483505Y-68536048D01*
X124392555Y-54627000D01*
X134146418Y-54627000D01*
X134146418Y-54899999D01*
X134157535Y-55012875D01*
X134190460Y-55121413D01*
X134243927Y-55221442D01*
X134315881Y-55309119D01*
X134403558Y-55381073D01*
X134503587Y-55434540D01*
X134612125Y-55467465D01*
X134725001Y-55478582D01*
X136924999Y-55478582D01*
X137037875Y-55467465D01*
X137146413Y-55434540D01*
X137246442Y-55381073D01*
X137334119Y-55309119D01*
X137406073Y-55221442D01*
X137459540Y-55121413D01*
X137492465Y-55012875D01*
X137503582Y-54899999D01*
X137503582Y-52700001D01*
X137492465Y-52587125D01*
X137459540Y-52478587D01*
X137406073Y-52378558D01*
X137334119Y-52290881D01*
X137246442Y-52218927D01*
X137146413Y-52165460D01*
X137037875Y-52132535D01*
X136924999Y-52121418D01*
X134725001Y-52121418D01*
X134612125Y-52132535D01*
X134503587Y-52165460D01*
X134403558Y-52218927D01*
X134315881Y-52290881D01*
X134243927Y-52378558D01*
X134190460Y-52478587D01*
X134157535Y-52587125D01*
X134146418Y-52700001D01*
X134146418Y-52973000D01*
X124090610Y-52973000D01*
X124049999Y-52969000D01*
X124009388Y-52973000D01*
X124009376Y-52973000D01*
X123887880Y-52984966D01*
X123731990Y-53032255D01*
X123606872Y-53099132D01*
X123588319Y-53109049D01*
X123493947Y-53186498D01*
X123493941Y-53186504D01*
X123462394Y-53212394D01*
X123436504Y-53243941D01*
X109527447Y-67153000D01*
X94850613Y-67153000D01*
X94809999Y-67149000D01*
X94769385Y-67153000D01*
X94769376Y-67153000D01*
X94647880Y-67164966D01*
X94491990Y-67212255D01*
X94425264Y-67247921D01*
X94348320Y-67289048D01*
X94271487Y-67352104D01*
X94222394Y-67392394D01*
X94196499Y-67423947D01*
X92623952Y-68996495D01*
X92592394Y-69022394D01*
X92566498Y-69053949D01*
X92489048Y-69148321D01*
X92454477Y-69213000D01*
X92412255Y-69291991D01*
X92364966Y-69447881D01*
X92353000Y-69569377D01*
X92353000Y-69569386D01*
X92349000Y-69610000D01*
X86852000Y-69610000D01*
X86852000Y-60538486D01*
X94574139Y-60538486D01*
X94656147Y-60754154D01*
X94778654Y-60949679D01*
X94936952Y-61117547D01*
X95124958Y-61251307D01*
X95335447Y-61345819D01*
X95401515Y-61365855D01*
X95583000Y-61317862D01*
X95583000Y-60357000D01*
X95837000Y-60357000D01*
X95837000Y-61317862D01*
X96018485Y-61365855D01*
X96084553Y-61345819D01*
X96295042Y-61251307D01*
X96483048Y-61117547D01*
X96641346Y-60949679D01*
X96763853Y-60754154D01*
X96845861Y-60538486D01*
X96798384Y-60357000D01*
X95837000Y-60357000D01*
X95583000Y-60357000D01*
X94621616Y-60357000D01*
X94574139Y-60538486D01*
X86852000Y-60538486D01*
X86852000Y-60114076D01*
X97073000Y-60114076D01*
X97073000Y-60345924D01*
X97118231Y-60573318D01*
X97206956Y-60787519D01*
X97335764Y-60980294D01*
X97499706Y-61144236D01*
X97692481Y-61273044D01*
X97906682Y-61361769D01*
X98134076Y-61407000D01*
X98365924Y-61407000D01*
X98593318Y-61361769D01*
X98807519Y-61273044D01*
X99000294Y-61144236D01*
X99164236Y-60980294D01*
X99293044Y-60787519D01*
X99381769Y-60573318D01*
X99427000Y-60345924D01*
X99427000Y-60114076D01*
X99613000Y-60114076D01*
X99613000Y-60345924D01*
X99658231Y-60573318D01*
X99746956Y-60787519D01*
X99875764Y-60980294D01*
X100039706Y-61144236D01*
X100232481Y-61273044D01*
X100446682Y-61361769D01*
X100674076Y-61407000D01*
X100905924Y-61407000D01*
X101133318Y-61361769D01*
X101347519Y-61273044D01*
X101540294Y-61144236D01*
X101704236Y-60980294D01*
X101833044Y-60787519D01*
X101921769Y-60573318D01*
X101967000Y-60345924D01*
X101967000Y-60114076D01*
X102153000Y-60114076D01*
X102153000Y-60345924D01*
X102198231Y-60573318D01*
X102286956Y-60787519D01*
X102415764Y-60980294D01*
X102579706Y-61144236D01*
X102772481Y-61273044D01*
X102986682Y-61361769D01*
X103214076Y-61407000D01*
X103445924Y-61407000D01*
X103673318Y-61361769D01*
X103887519Y-61273044D01*
X104080294Y-61144236D01*
X104244236Y-60980294D01*
X104373044Y-60787519D01*
X104461769Y-60573318D01*
X104507000Y-60345924D01*
X104507000Y-60114076D01*
X104693000Y-60114076D01*
X104693000Y-60345924D01*
X104738231Y-60573318D01*
X104826956Y-60787519D01*
X104955764Y-60980294D01*
X105119706Y-61144236D01*
X105312481Y-61273044D01*
X105526682Y-61361769D01*
X105754076Y-61407000D01*
X105985924Y-61407000D01*
X106213318Y-61361769D01*
X106427519Y-61273044D01*
X106620294Y-61144236D01*
X106784236Y-60980294D01*
X106913044Y-60787519D01*
X107001769Y-60573318D01*
X107047000Y-60345924D01*
X107047000Y-60114076D01*
X107233000Y-60114076D01*
X107233000Y-60345924D01*
X107278231Y-60573318D01*
X107366956Y-60787519D01*
X107495764Y-60980294D01*
X107659706Y-61144236D01*
X107852481Y-61273044D01*
X108066682Y-61361769D01*
X108294076Y-61407000D01*
X108525924Y-61407000D01*
X108753318Y-61361769D01*
X108967519Y-61273044D01*
X109160294Y-61144236D01*
X109324236Y-60980294D01*
X109453044Y-60787519D01*
X109541769Y-60573318D01*
X109587000Y-60345924D01*
X109587000Y-60114076D01*
X109773000Y-60114076D01*
X109773000Y-60345924D01*
X109818231Y-60573318D01*
X109906956Y-60787519D01*
X110035764Y-60980294D01*
X110199706Y-61144236D01*
X110392481Y-61273044D01*
X110606682Y-61361769D01*
X110834076Y-61407000D01*
X111065924Y-61407000D01*
X111293318Y-61361769D01*
X111507519Y-61273044D01*
X111700294Y-61144236D01*
X111864236Y-60980294D01*
X111993044Y-60787519D01*
X112081769Y-60573318D01*
X112127000Y-60345924D01*
X112127000Y-60114076D01*
X112313000Y-60114076D01*
X112313000Y-60345924D01*
X112358231Y-60573318D01*
X112446956Y-60787519D01*
X112575764Y-60980294D01*
X112739706Y-61144236D01*
X112932481Y-61273044D01*
X113146682Y-61361769D01*
X113374076Y-61407000D01*
X113605924Y-61407000D01*
X113833318Y-61361769D01*
X114047519Y-61273044D01*
X114240294Y-61144236D01*
X114404236Y-60980294D01*
X114533044Y-60787519D01*
X114621769Y-60573318D01*
X114667000Y-60345924D01*
X114667000Y-60114076D01*
X114621769Y-59886682D01*
X114533044Y-59672481D01*
X114404236Y-59479706D01*
X114240294Y-59315764D01*
X114047519Y-59186956D01*
X113833318Y-59098231D01*
X113605924Y-59053000D01*
X113374076Y-59053000D01*
X113146682Y-59098231D01*
X112932481Y-59186956D01*
X112739706Y-59315764D01*
X112575764Y-59479706D01*
X112446956Y-59672481D01*
X112358231Y-59886682D01*
X112313000Y-60114076D01*
X112127000Y-60114076D01*
X112081769Y-59886682D01*
X111993044Y-59672481D01*
X111864236Y-59479706D01*
X111700294Y-59315764D01*
X111507519Y-59186956D01*
X111293318Y-59098231D01*
X111065924Y-59053000D01*
X110834076Y-59053000D01*
X110606682Y-59098231D01*
X110392481Y-59186956D01*
X110199706Y-59315764D01*
X110035764Y-59479706D01*
X109906956Y-59672481D01*
X109818231Y-59886682D01*
X109773000Y-60114076D01*
X109587000Y-60114076D01*
X109541769Y-59886682D01*
X109453044Y-59672481D01*
X109324236Y-59479706D01*
X109160294Y-59315764D01*
X108967519Y-59186956D01*
X108753318Y-59098231D01*
X108525924Y-59053000D01*
X108294076Y-59053000D01*
X108066682Y-59098231D01*
X107852481Y-59186956D01*
X107659706Y-59315764D01*
X107495764Y-59479706D01*
X107366956Y-59672481D01*
X107278231Y-59886682D01*
X107233000Y-60114076D01*
X107047000Y-60114076D01*
X107001769Y-59886682D01*
X106913044Y-59672481D01*
X106784236Y-59479706D01*
X106620294Y-59315764D01*
X106427519Y-59186956D01*
X106213318Y-59098231D01*
X105985924Y-59053000D01*
X105754076Y-59053000D01*
X105526682Y-59098231D01*
X105312481Y-59186956D01*
X105119706Y-59315764D01*
X104955764Y-59479706D01*
X104826956Y-59672481D01*
X104738231Y-59886682D01*
X104693000Y-60114076D01*
X104507000Y-60114076D01*
X104461769Y-59886682D01*
X104373044Y-59672481D01*
X104244236Y-59479706D01*
X104080294Y-59315764D01*
X103887519Y-59186956D01*
X103673318Y-59098231D01*
X103445924Y-59053000D01*
X103214076Y-59053000D01*
X102986682Y-59098231D01*
X102772481Y-59186956D01*
X102579706Y-59315764D01*
X102415764Y-59479706D01*
X102286956Y-59672481D01*
X102198231Y-59886682D01*
X102153000Y-60114076D01*
X101967000Y-60114076D01*
X101921769Y-59886682D01*
X101833044Y-59672481D01*
X101704236Y-59479706D01*
X101540294Y-59315764D01*
X101347519Y-59186956D01*
X101133318Y-59098231D01*
X100905924Y-59053000D01*
X100674076Y-59053000D01*
X100446682Y-59098231D01*
X100232481Y-59186956D01*
X100039706Y-59315764D01*
X99875764Y-59479706D01*
X99746956Y-59672481D01*
X99658231Y-59886682D01*
X99613000Y-60114076D01*
X99427000Y-60114076D01*
X99381769Y-59886682D01*
X99293044Y-59672481D01*
X99164236Y-59479706D01*
X99000294Y-59315764D01*
X98807519Y-59186956D01*
X98593318Y-59098231D01*
X98365924Y-59053000D01*
X98134076Y-59053000D01*
X97906682Y-59098231D01*
X97692481Y-59186956D01*
X97499706Y-59315764D01*
X97335764Y-59479706D01*
X97206956Y-59672481D01*
X97118231Y-59886682D01*
X97073000Y-60114076D01*
X86852000Y-60114076D01*
X86852000Y-59921514D01*
X94574139Y-59921514D01*
X94621616Y-60103000D01*
X95583000Y-60103000D01*
X95583000Y-59142138D01*
X95837000Y-59142138D01*
X95837000Y-60103000D01*
X96798384Y-60103000D01*
X96845861Y-59921514D01*
X96763853Y-59705846D01*
X96641346Y-59510321D01*
X96483048Y-59342453D01*
X96295042Y-59208693D01*
X96084553Y-59114181D01*
X96018485Y-59094145D01*
X95837000Y-59142138D01*
X95583000Y-59142138D01*
X95401515Y-59094145D01*
X95335447Y-59114181D01*
X95124958Y-59208693D01*
X94936952Y-59342453D01*
X94778654Y-59510321D01*
X94656147Y-59705846D01*
X94574139Y-59921514D01*
X86852000Y-59921514D01*
X86852000Y-51059990D01*
X134784615Y-51059990D01*
X134940078Y-51274057D01*
X135236852Y-51419141D01*
X135556228Y-51503540D01*
X135885933Y-51524010D01*
X136213296Y-51479765D01*
X136525738Y-51372505D01*
X136709922Y-51274057D01*
X136865385Y-51059990D01*
X135825000Y-50019605D01*
X134784615Y-51059990D01*
X86852000Y-51059990D01*
X86852000Y-49900933D01*
X134140990Y-49900933D01*
X134185235Y-50228296D01*
X134292495Y-50540738D01*
X134390943Y-50724922D01*
X134605010Y-50880385D01*
X135645395Y-49840000D01*
X136004605Y-49840000D01*
X137044990Y-50880385D01*
X137259057Y-50724922D01*
X137404141Y-50428148D01*
X137488540Y-50108772D01*
X137509010Y-49779067D01*
X137464765Y-49451704D01*
X137357505Y-49139262D01*
X137259057Y-48955078D01*
X137044990Y-48799615D01*
X136004605Y-49840000D01*
X135645395Y-49840000D01*
X134605010Y-48799615D01*
X134390943Y-48955078D01*
X134245859Y-49251852D01*
X134161460Y-49571228D01*
X134140990Y-49900933D01*
X86852000Y-49900933D01*
X86852000Y-48620010D01*
X134784615Y-48620010D01*
X135825000Y-49660395D01*
X136865385Y-48620010D01*
X136709922Y-48405943D01*
X136413148Y-48260859D01*
X136093772Y-48176460D01*
X135764067Y-48155990D01*
X135436704Y-48200235D01*
X135124262Y-48307495D01*
X134940078Y-48405943D01*
X134784615Y-48620010D01*
X86852000Y-48620010D01*
X86852000Y-44270811D01*
X87173000Y-44270811D01*
X87173000Y-44729189D01*
X87262426Y-45178761D01*
X87437840Y-45602248D01*
X87692501Y-45983376D01*
X88016624Y-46307499D01*
X88397752Y-46562160D01*
X88821239Y-46737574D01*
X89270811Y-46827000D01*
X89729189Y-46827000D01*
X90178761Y-46737574D01*
X90602248Y-46562160D01*
X90983376Y-46307499D01*
X91307499Y-45983376D01*
X91562160Y-45602248D01*
X91687982Y-45298486D01*
X94574139Y-45298486D01*
X94656147Y-45514154D01*
X94778654Y-45709679D01*
X94936952Y-45877547D01*
X95124958Y-46011307D01*
X95335447Y-46105819D01*
X95401515Y-46125855D01*
X95583000Y-46077862D01*
X95583000Y-45117000D01*
X95837000Y-45117000D01*
X95837000Y-46077862D01*
X96018485Y-46125855D01*
X96084553Y-46105819D01*
X96295042Y-46011307D01*
X96483048Y-45877547D01*
X96641346Y-45709679D01*
X96763853Y-45514154D01*
X96845861Y-45298486D01*
X96798384Y-45117000D01*
X95837000Y-45117000D01*
X95583000Y-45117000D01*
X94621616Y-45117000D01*
X94574139Y-45298486D01*
X91687982Y-45298486D01*
X91737574Y-45178761D01*
X91798180Y-44874076D01*
X97073000Y-44874076D01*
X97073000Y-45105924D01*
X97118231Y-45333318D01*
X97206956Y-45547519D01*
X97335764Y-45740294D01*
X97499706Y-45904236D01*
X97692481Y-46033044D01*
X97906682Y-46121769D01*
X98134076Y-46167000D01*
X98365924Y-46167000D01*
X98593318Y-46121769D01*
X98807519Y-46033044D01*
X99000294Y-45904236D01*
X99164236Y-45740294D01*
X99293044Y-45547519D01*
X99381769Y-45333318D01*
X99427000Y-45105924D01*
X99427000Y-44874076D01*
X99613000Y-44874076D01*
X99613000Y-45105924D01*
X99658231Y-45333318D01*
X99746956Y-45547519D01*
X99875764Y-45740294D01*
X100039706Y-45904236D01*
X100232481Y-46033044D01*
X100446682Y-46121769D01*
X100674076Y-46167000D01*
X100905924Y-46167000D01*
X101133318Y-46121769D01*
X101347519Y-46033044D01*
X101540294Y-45904236D01*
X101704236Y-45740294D01*
X101833044Y-45547519D01*
X101921769Y-45333318D01*
X101967000Y-45105924D01*
X101967000Y-44874076D01*
X102153000Y-44874076D01*
X102153000Y-45105924D01*
X102198231Y-45333318D01*
X102286956Y-45547519D01*
X102415764Y-45740294D01*
X102579706Y-45904236D01*
X102772481Y-46033044D01*
X102986682Y-46121769D01*
X103214076Y-46167000D01*
X103445924Y-46167000D01*
X103673318Y-46121769D01*
X103887519Y-46033044D01*
X104080294Y-45904236D01*
X104244236Y-45740294D01*
X104373044Y-45547519D01*
X104461769Y-45333318D01*
X104507000Y-45105924D01*
X104507000Y-44874076D01*
X104693000Y-44874076D01*
X104693000Y-45105924D01*
X104738231Y-45333318D01*
X104826956Y-45547519D01*
X104955764Y-45740294D01*
X105119706Y-45904236D01*
X105312481Y-46033044D01*
X105526682Y-46121769D01*
X105754076Y-46167000D01*
X105985924Y-46167000D01*
X106213318Y-46121769D01*
X106427519Y-46033044D01*
X106620294Y-45904236D01*
X106784236Y-45740294D01*
X106913044Y-45547519D01*
X107001769Y-45333318D01*
X107008697Y-45298486D01*
X107274139Y-45298486D01*
X107356147Y-45514154D01*
X107478654Y-45709679D01*
X107636952Y-45877547D01*
X107824958Y-46011307D01*
X108035447Y-46105819D01*
X108101515Y-46125855D01*
X108283000Y-46077862D01*
X108283000Y-45117000D01*
X108537000Y-45117000D01*
X108537000Y-46077862D01*
X108718485Y-46125855D01*
X108784553Y-46105819D01*
X108995042Y-46011307D01*
X109183048Y-45877547D01*
X109341346Y-45709679D01*
X109463853Y-45514154D01*
X109545861Y-45298486D01*
X109498384Y-45117000D01*
X108537000Y-45117000D01*
X108283000Y-45117000D01*
X107321616Y-45117000D01*
X107274139Y-45298486D01*
X107008697Y-45298486D01*
X107047000Y-45105924D01*
X107047000Y-44874076D01*
X107008698Y-44681514D01*
X107274139Y-44681514D01*
X107321616Y-44863000D01*
X108283000Y-44863000D01*
X108283000Y-43902138D01*
X108537000Y-43902138D01*
X108537000Y-44863000D01*
X109498384Y-44863000D01*
X109545861Y-44681514D01*
X109463853Y-44465846D01*
X109341346Y-44270321D01*
X109183048Y-44102453D01*
X108995042Y-43968693D01*
X108784553Y-43874181D01*
X108718485Y-43854145D01*
X108537000Y-43902138D01*
X108283000Y-43902138D01*
X108101515Y-43854145D01*
X108035447Y-43874181D01*
X107824958Y-43968693D01*
X107636952Y-44102453D01*
X107478654Y-44270321D01*
X107356147Y-44465846D01*
X107274139Y-44681514D01*
X107008698Y-44681514D01*
X107001769Y-44646682D01*
X106913044Y-44432481D01*
X106784236Y-44239706D01*
X106620294Y-44075764D01*
X106427519Y-43946956D01*
X106213318Y-43858231D01*
X105985924Y-43813000D01*
X105754076Y-43813000D01*
X105526682Y-43858231D01*
X105312481Y-43946956D01*
X105119706Y-44075764D01*
X104955764Y-44239706D01*
X104826956Y-44432481D01*
X104738231Y-44646682D01*
X104693000Y-44874076D01*
X104507000Y-44874076D01*
X104461769Y-44646682D01*
X104373044Y-44432481D01*
X104244236Y-44239706D01*
X104080294Y-44075764D01*
X103887519Y-43946956D01*
X103673318Y-43858231D01*
X103445924Y-43813000D01*
X103214076Y-43813000D01*
X102986682Y-43858231D01*
X102772481Y-43946956D01*
X102579706Y-44075764D01*
X102415764Y-44239706D01*
X102286956Y-44432481D01*
X102198231Y-44646682D01*
X102153000Y-44874076D01*
X101967000Y-44874076D01*
X101921769Y-44646682D01*
X101833044Y-44432481D01*
X101704236Y-44239706D01*
X101540294Y-44075764D01*
X101347519Y-43946956D01*
X101133318Y-43858231D01*
X100905924Y-43813000D01*
X100674076Y-43813000D01*
X100446682Y-43858231D01*
X100232481Y-43946956D01*
X100039706Y-44075764D01*
X99875764Y-44239706D01*
X99746956Y-44432481D01*
X99658231Y-44646682D01*
X99613000Y-44874076D01*
X99427000Y-44874076D01*
X99381769Y-44646682D01*
X99293044Y-44432481D01*
X99164236Y-44239706D01*
X99000294Y-44075764D01*
X98807519Y-43946956D01*
X98593318Y-43858231D01*
X98365924Y-43813000D01*
X98134076Y-43813000D01*
X97906682Y-43858231D01*
X97692481Y-43946956D01*
X97499706Y-44075764D01*
X97335764Y-44239706D01*
X97206956Y-44432481D01*
X97118231Y-44646682D01*
X97073000Y-44874076D01*
X91798180Y-44874076D01*
X91827000Y-44729189D01*
X91827000Y-44681514D01*
X94574139Y-44681514D01*
X94621616Y-44863000D01*
X95583000Y-44863000D01*
X95583000Y-43902138D01*
X95837000Y-43902138D01*
X95837000Y-44863000D01*
X96798384Y-44863000D01*
X96845861Y-44681514D01*
X96763853Y-44465846D01*
X96641346Y-44270321D01*
X96483048Y-44102453D01*
X96295042Y-43968693D01*
X96084553Y-43874181D01*
X96018485Y-43854145D01*
X95837000Y-43902138D01*
X95583000Y-43902138D01*
X95401515Y-43854145D01*
X95335447Y-43874181D01*
X95124958Y-43968693D01*
X94936952Y-44102453D01*
X94778654Y-44270321D01*
X94656147Y-44465846D01*
X94574139Y-44681514D01*
X91827000Y-44681514D01*
X91827000Y-44270811D01*
X91737574Y-43821239D01*
X91562160Y-43397752D01*
X91307499Y-43016624D01*
X90983376Y-42692501D01*
X90602248Y-42437840D01*
X90178761Y-42262426D01*
X89729189Y-42173000D01*
X89270811Y-42173000D01*
X88821239Y-42262426D01*
X88397752Y-42437840D01*
X88016624Y-42692501D01*
X87692501Y-43016624D01*
X87437840Y-43397752D01*
X87262426Y-43821239D01*
X87173000Y-44270811D01*
X86852000Y-44270811D01*
X86852000Y-44017215D01*
X86894564Y-43583110D01*
X87015635Y-43182107D01*
X87212292Y-42812248D01*
X87477040Y-42487634D01*
X87799799Y-42220626D01*
X88168270Y-42021394D01*
X88568422Y-41897526D01*
X89001578Y-41852000D01*
X150982785Y-41852000D01*
X151416890Y-41894564D01*
G37*
%TD.AperFunction*%
%TD*%
M02*
