%TF.GenerationSoftware,KiCad,Pcbnew,5.1.9*%
%TF.CreationDate,2021-05-07T09:39:52+08:00*%
%TF.ProjectId,control_board,636f6e74-726f-46c5-9f62-6f6172642e6b,rev?*%
%TF.SameCoordinates,Original*%
%TF.FileFunction,Legend,Top*%
%TF.FilePolarity,Positive*%
%FSLAX46Y46*%
G04 Gerber Fmt 4.6, Leading zero omitted, Abs format (unit mm)*
G04 Created by KiCad (PCBNEW 5.1.9) date 2021-05-07 09:39:52*
%MOMM*%
%LPD*%
G01*
G04 APERTURE LIST*
%ADD10C,0.150000*%
%ADD11C,0.120000*%
G04 APERTURE END LIST*
D10*
X125476190Y-89857142D02*
X125428571Y-89904761D01*
X125285714Y-89952380D01*
X125190476Y-89952380D01*
X125047619Y-89904761D01*
X124952380Y-89809523D01*
X124904761Y-89714285D01*
X124857142Y-89523809D01*
X124857142Y-89380952D01*
X124904761Y-89190476D01*
X124952380Y-89095238D01*
X125047619Y-89000000D01*
X125190476Y-88952380D01*
X125285714Y-88952380D01*
X125428571Y-89000000D01*
X125476190Y-89047619D01*
X126047619Y-89952380D02*
X125952380Y-89904761D01*
X125904761Y-89857142D01*
X125857142Y-89761904D01*
X125857142Y-89476190D01*
X125904761Y-89380952D01*
X125952380Y-89333333D01*
X126047619Y-89285714D01*
X126190476Y-89285714D01*
X126285714Y-89333333D01*
X126333333Y-89380952D01*
X126380952Y-89476190D01*
X126380952Y-89761904D01*
X126333333Y-89857142D01*
X126285714Y-89904761D01*
X126190476Y-89952380D01*
X126047619Y-89952380D01*
X126809523Y-89285714D02*
X126809523Y-89952380D01*
X126809523Y-89380952D02*
X126857142Y-89333333D01*
X126952380Y-89285714D01*
X127095238Y-89285714D01*
X127190476Y-89333333D01*
X127238095Y-89428571D01*
X127238095Y-89952380D01*
X127571428Y-89285714D02*
X127952380Y-89285714D01*
X127714285Y-88952380D02*
X127714285Y-89809523D01*
X127761904Y-89904761D01*
X127857142Y-89952380D01*
X127952380Y-89952380D01*
X128285714Y-89952380D02*
X128285714Y-89285714D01*
X128285714Y-89476190D02*
X128333333Y-89380952D01*
X128380952Y-89333333D01*
X128476190Y-89285714D01*
X128571428Y-89285714D01*
X129047619Y-89952380D02*
X128952380Y-89904761D01*
X128904761Y-89857142D01*
X128857142Y-89761904D01*
X128857142Y-89476190D01*
X128904761Y-89380952D01*
X128952380Y-89333333D01*
X129047619Y-89285714D01*
X129190476Y-89285714D01*
X129285714Y-89333333D01*
X129333333Y-89380952D01*
X129380952Y-89476190D01*
X129380952Y-89761904D01*
X129333333Y-89857142D01*
X129285714Y-89904761D01*
X129190476Y-89952380D01*
X129047619Y-89952380D01*
X129952380Y-89952380D02*
X129857142Y-89904761D01*
X129809523Y-89809523D01*
X129809523Y-88952380D01*
X130666666Y-89428571D02*
X130809523Y-89476190D01*
X130857142Y-89523809D01*
X130904761Y-89619047D01*
X130904761Y-89761904D01*
X130857142Y-89857142D01*
X130809523Y-89904761D01*
X130714285Y-89952380D01*
X130333333Y-89952380D01*
X130333333Y-88952380D01*
X130666666Y-88952380D01*
X130761904Y-89000000D01*
X130809523Y-89047619D01*
X130857142Y-89142857D01*
X130857142Y-89238095D01*
X130809523Y-89333333D01*
X130761904Y-89380952D01*
X130666666Y-89428571D01*
X130333333Y-89428571D01*
X131476190Y-89952380D02*
X131380952Y-89904761D01*
X131333333Y-89857142D01*
X131285714Y-89761904D01*
X131285714Y-89476190D01*
X131333333Y-89380952D01*
X131380952Y-89333333D01*
X131476190Y-89285714D01*
X131619047Y-89285714D01*
X131714285Y-89333333D01*
X131761904Y-89380952D01*
X131809523Y-89476190D01*
X131809523Y-89761904D01*
X131761904Y-89857142D01*
X131714285Y-89904761D01*
X131619047Y-89952380D01*
X131476190Y-89952380D01*
X132666666Y-89952380D02*
X132666666Y-89428571D01*
X132619047Y-89333333D01*
X132523809Y-89285714D01*
X132333333Y-89285714D01*
X132238095Y-89333333D01*
X132666666Y-89904761D02*
X132571428Y-89952380D01*
X132333333Y-89952380D01*
X132238095Y-89904761D01*
X132190476Y-89809523D01*
X132190476Y-89714285D01*
X132238095Y-89619047D01*
X132333333Y-89571428D01*
X132571428Y-89571428D01*
X132666666Y-89523809D01*
X133142857Y-89952380D02*
X133142857Y-89285714D01*
X133142857Y-89476190D02*
X133190476Y-89380952D01*
X133238095Y-89333333D01*
X133333333Y-89285714D01*
X133428571Y-89285714D01*
X134190476Y-89952380D02*
X134190476Y-88952380D01*
X134190476Y-89904761D02*
X134095238Y-89952380D01*
X133904761Y-89952380D01*
X133809523Y-89904761D01*
X133761904Y-89857142D01*
X133714285Y-89761904D01*
X133714285Y-89476190D01*
X133761904Y-89380952D01*
X133809523Y-89333333D01*
X133904761Y-89285714D01*
X134095238Y-89285714D01*
X134190476Y-89333333D01*
X135333333Y-89285714D02*
X135571428Y-89952380D01*
X135809523Y-89285714D01*
X136380952Y-88952380D02*
X136476190Y-88952380D01*
X136571428Y-89000000D01*
X136619047Y-89047619D01*
X136666666Y-89142857D01*
X136714285Y-89333333D01*
X136714285Y-89571428D01*
X136666666Y-89761904D01*
X136619047Y-89857142D01*
X136571428Y-89904761D01*
X136476190Y-89952380D01*
X136380952Y-89952380D01*
X136285714Y-89904761D01*
X136238095Y-89857142D01*
X136190476Y-89761904D01*
X136142857Y-89571428D01*
X136142857Y-89333333D01*
X136190476Y-89142857D01*
X136238095Y-89047619D01*
X136285714Y-89000000D01*
X136380952Y-88952380D01*
X137142857Y-89857142D02*
X137190476Y-89904761D01*
X137142857Y-89952380D01*
X137095238Y-89904761D01*
X137142857Y-89857142D01*
X137142857Y-89952380D01*
X138142857Y-89952380D02*
X137571428Y-89952380D01*
X137857142Y-89952380D02*
X137857142Y-88952380D01*
X137761904Y-89095238D01*
X137666666Y-89190476D01*
X137571428Y-89238095D01*
X113047619Y-48457142D02*
X113047619Y-49028571D01*
X112047619Y-48742857D02*
X113047619Y-48742857D01*
X112571428Y-49695238D02*
X112523809Y-49838095D01*
X112476190Y-49885714D01*
X112380952Y-49933333D01*
X112238095Y-49933333D01*
X112142857Y-49885714D01*
X112095238Y-49838095D01*
X112047619Y-49742857D01*
X112047619Y-49361904D01*
X113047619Y-49361904D01*
X113047619Y-49695238D01*
X113000000Y-49790476D01*
X112952380Y-49838095D01*
X112857142Y-49885714D01*
X112761904Y-49885714D01*
X112666666Y-49838095D01*
X112619047Y-49790476D01*
X112571428Y-49695238D01*
X112571428Y-49361904D01*
X113047619Y-50790476D02*
X113047619Y-50600000D01*
X113000000Y-50504761D01*
X112952380Y-50457142D01*
X112809523Y-50361904D01*
X112619047Y-50314285D01*
X112238095Y-50314285D01*
X112142857Y-50361904D01*
X112095238Y-50409523D01*
X112047619Y-50504761D01*
X112047619Y-50695238D01*
X112095238Y-50790476D01*
X112142857Y-50838095D01*
X112238095Y-50885714D01*
X112476190Y-50885714D01*
X112571428Y-50838095D01*
X112619047Y-50790476D01*
X112666666Y-50695238D01*
X112666666Y-50504761D01*
X112619047Y-50409523D01*
X112571428Y-50361904D01*
X112476190Y-50314285D01*
X113047619Y-51742857D02*
X113047619Y-51552380D01*
X113000000Y-51457142D01*
X112952380Y-51409523D01*
X112809523Y-51314285D01*
X112619047Y-51266666D01*
X112238095Y-51266666D01*
X112142857Y-51314285D01*
X112095238Y-51361904D01*
X112047619Y-51457142D01*
X112047619Y-51647619D01*
X112095238Y-51742857D01*
X112142857Y-51790476D01*
X112238095Y-51838095D01*
X112476190Y-51838095D01*
X112571428Y-51790476D01*
X112619047Y-51742857D01*
X112666666Y-51647619D01*
X112666666Y-51457142D01*
X112619047Y-51361904D01*
X112571428Y-51314285D01*
X112476190Y-51266666D01*
X112047619Y-52790476D02*
X112047619Y-52219047D01*
X112047619Y-52504761D02*
X113047619Y-52504761D01*
X112904761Y-52409523D01*
X112809523Y-52314285D01*
X112761904Y-52219047D01*
X112952380Y-53171428D02*
X113000000Y-53219047D01*
X113047619Y-53314285D01*
X113047619Y-53552380D01*
X113000000Y-53647619D01*
X112952380Y-53695238D01*
X112857142Y-53742857D01*
X112761904Y-53742857D01*
X112619047Y-53695238D01*
X112047619Y-53123809D01*
X112047619Y-53742857D01*
X112571428Y-54504761D02*
X112571428Y-54171428D01*
X112047619Y-54171428D02*
X113047619Y-54171428D01*
X113047619Y-54647619D01*
X112047619Y-55028571D02*
X113047619Y-55028571D01*
X112047619Y-55600000D01*
X113047619Y-55600000D01*
X113000000Y-56600000D02*
X113047619Y-56504761D01*
X113047619Y-56361904D01*
X113000000Y-56219047D01*
X112904761Y-56123809D01*
X112809523Y-56076190D01*
X112619047Y-56028571D01*
X112476190Y-56028571D01*
X112285714Y-56076190D01*
X112190476Y-56123809D01*
X112095238Y-56219047D01*
X112047619Y-56361904D01*
X112047619Y-56457142D01*
X112095238Y-56600000D01*
X112142857Y-56647619D01*
X112476190Y-56647619D01*
X112476190Y-56457142D01*
X100738095Y-96052380D02*
X100738095Y-95052380D01*
X101309523Y-96052380D01*
X101309523Y-95052380D01*
X101928571Y-96052380D02*
X101833333Y-96004761D01*
X101785714Y-95957142D01*
X101738095Y-95861904D01*
X101738095Y-95576190D01*
X101785714Y-95480952D01*
X101833333Y-95433333D01*
X101928571Y-95385714D01*
X102071428Y-95385714D01*
X102166666Y-95433333D01*
X102214285Y-95480952D01*
X102261904Y-95576190D01*
X102261904Y-95861904D01*
X102214285Y-95957142D01*
X102166666Y-96004761D01*
X102071428Y-96052380D01*
X101928571Y-96052380D01*
X103119047Y-96052380D02*
X103119047Y-95052380D01*
X103119047Y-96004761D02*
X103023809Y-96052380D01*
X102833333Y-96052380D01*
X102738095Y-96004761D01*
X102690476Y-95957142D01*
X102642857Y-95861904D01*
X102642857Y-95576190D01*
X102690476Y-95480952D01*
X102738095Y-95433333D01*
X102833333Y-95385714D01*
X103023809Y-95385714D01*
X103119047Y-95433333D01*
X103976190Y-96004761D02*
X103880952Y-96052380D01*
X103690476Y-96052380D01*
X103595238Y-96004761D01*
X103547619Y-95909523D01*
X103547619Y-95528571D01*
X103595238Y-95433333D01*
X103690476Y-95385714D01*
X103880952Y-95385714D01*
X103976190Y-95433333D01*
X104023809Y-95528571D01*
X104023809Y-95623809D01*
X103547619Y-95719047D01*
X104452380Y-96052380D02*
X104452380Y-95052380D01*
X104785714Y-95766666D01*
X105119047Y-95052380D01*
X105119047Y-96052380D01*
X106166666Y-95957142D02*
X106119047Y-96004761D01*
X105976190Y-96052380D01*
X105880952Y-96052380D01*
X105738095Y-96004761D01*
X105642857Y-95909523D01*
X105595238Y-95814285D01*
X105547619Y-95623809D01*
X105547619Y-95480952D01*
X105595238Y-95290476D01*
X105642857Y-95195238D01*
X105738095Y-95100000D01*
X105880952Y-95052380D01*
X105976190Y-95052380D01*
X106119047Y-95100000D01*
X106166666Y-95147619D01*
X106595238Y-95052380D02*
X106595238Y-95861904D01*
X106642857Y-95957142D01*
X106690476Y-96004761D01*
X106785714Y-96052380D01*
X106976190Y-96052380D01*
X107071428Y-96004761D01*
X107119047Y-95957142D01*
X107166666Y-95861904D01*
X107166666Y-95052380D01*
X107642857Y-95671428D02*
X108404761Y-95671428D01*
X108785714Y-95052380D02*
X109404761Y-95052380D01*
X109071428Y-95433333D01*
X109214285Y-95433333D01*
X109309523Y-95480952D01*
X109357142Y-95528571D01*
X109404761Y-95623809D01*
X109404761Y-95861904D01*
X109357142Y-95957142D01*
X109309523Y-96004761D01*
X109214285Y-96052380D01*
X108928571Y-96052380D01*
X108833333Y-96004761D01*
X108785714Y-95957142D01*
X109785714Y-95147619D02*
X109833333Y-95100000D01*
X109928571Y-95052380D01*
X110166666Y-95052380D01*
X110261904Y-95100000D01*
X110309523Y-95147619D01*
X110357142Y-95242857D01*
X110357142Y-95338095D01*
X110309523Y-95480952D01*
X109738095Y-96052380D01*
X110357142Y-96052380D01*
X110738095Y-96004761D02*
X110880952Y-96052380D01*
X111119047Y-96052380D01*
X111214285Y-96004761D01*
X111261904Y-95957142D01*
X111309523Y-95861904D01*
X111309523Y-95766666D01*
X111261904Y-95671428D01*
X111214285Y-95623809D01*
X111119047Y-95576190D01*
X110928571Y-95528571D01*
X110833333Y-95480952D01*
X110785714Y-95433333D01*
X110738095Y-95338095D01*
X110738095Y-95242857D01*
X110785714Y-95147619D01*
X110833333Y-95100000D01*
X110928571Y-95052380D01*
X111166666Y-95052380D01*
X111309523Y-95100000D01*
X134104761Y-111400000D02*
X134009523Y-111352380D01*
X133866666Y-111352380D01*
X133723809Y-111400000D01*
X133628571Y-111495238D01*
X133580952Y-111590476D01*
X133533333Y-111780952D01*
X133533333Y-111923809D01*
X133580952Y-112114285D01*
X133628571Y-112209523D01*
X133723809Y-112304761D01*
X133866666Y-112352380D01*
X133961904Y-112352380D01*
X134104761Y-112304761D01*
X134152380Y-112257142D01*
X134152380Y-111923809D01*
X133961904Y-111923809D01*
X134771428Y-111876190D02*
X134771428Y-112352380D01*
X134438095Y-111352380D02*
X134771428Y-111876190D01*
X135104761Y-111352380D01*
X135914285Y-111352380D02*
X135438095Y-111352380D01*
X135390476Y-111828571D01*
X135438095Y-111780952D01*
X135533333Y-111733333D01*
X135771428Y-111733333D01*
X135866666Y-111780952D01*
X135914285Y-111828571D01*
X135961904Y-111923809D01*
X135961904Y-112161904D01*
X135914285Y-112257142D01*
X135866666Y-112304761D01*
X135771428Y-112352380D01*
X135533333Y-112352380D01*
X135438095Y-112304761D01*
X135390476Y-112257142D01*
X136342857Y-111447619D02*
X136390476Y-111400000D01*
X136485714Y-111352380D01*
X136723809Y-111352380D01*
X136819047Y-111400000D01*
X136866666Y-111447619D01*
X136914285Y-111542857D01*
X136914285Y-111638095D01*
X136866666Y-111780952D01*
X136295238Y-112352380D01*
X136914285Y-112352380D01*
X137866666Y-112352380D02*
X137295238Y-112352380D01*
X137580952Y-112352380D02*
X137580952Y-111352380D01*
X137485714Y-111495238D01*
X137390476Y-111590476D01*
X137295238Y-111638095D01*
D11*
%TO.C,REF\u002A\u002A*%
X91786000Y-119500000D02*
G75*
G03*
X91786000Y-119500000I-2286000J0D01*
G01*
%TO.C,U3*%
X114823500Y-43656500D02*
X114823500Y-46323500D01*
X114823500Y-46323500D02*
X94376500Y-46323500D01*
X94376500Y-46323500D02*
X94376500Y-43656500D01*
X94376500Y-43656500D02*
X114823500Y-43656500D01*
X94376500Y-61563500D02*
X94376500Y-58896500D01*
X94376500Y-58896500D02*
X114823500Y-58896500D01*
X114823500Y-61563500D02*
X94376500Y-61563500D01*
X114823500Y-58896500D02*
X114823500Y-61563500D01*
%TO.C,REF\u002A\u002A*%
X152786000Y-119500000D02*
G75*
G03*
X152786000Y-119500000I-2286000J0D01*
G01*
X152786000Y-44500000D02*
G75*
G03*
X152786000Y-44500000I-2286000J0D01*
G01*
X91786000Y-44500000D02*
G75*
G03*
X91786000Y-44500000I-2286000J0D01*
G01*
%TO.C,J2*%
X144505000Y-77605000D02*
X145755000Y-77605000D01*
X144505000Y-76355000D02*
X144505000Y-77605000D01*
X150005000Y-60455000D02*
X150005000Y-68505000D01*
X147055000Y-60455000D02*
X150005000Y-60455000D01*
X147055000Y-59705000D02*
X147055000Y-60455000D01*
X150005000Y-76555000D02*
X150005000Y-68505000D01*
X147055000Y-76555000D02*
X150005000Y-76555000D01*
X147055000Y-77305000D02*
X147055000Y-76555000D01*
X144805000Y-59705000D02*
X144805000Y-61505000D01*
X145555000Y-59705000D02*
X144805000Y-59705000D01*
X145555000Y-61505000D02*
X145555000Y-59705000D01*
X144805000Y-61505000D02*
X145555000Y-61505000D01*
X144805000Y-75505000D02*
X144805000Y-77305000D01*
X145555000Y-75505000D02*
X144805000Y-75505000D01*
X145555000Y-77305000D02*
X145555000Y-75505000D01*
X144805000Y-77305000D02*
X145555000Y-77305000D01*
X144805000Y-63005000D02*
X144805000Y-74005000D01*
X145555000Y-63005000D02*
X144805000Y-63005000D01*
X145555000Y-74005000D02*
X145555000Y-63005000D01*
X144805000Y-74005000D02*
X145555000Y-74005000D01*
X144795000Y-59695000D02*
X144795000Y-77315000D01*
X150765000Y-59695000D02*
X144795000Y-59695000D01*
X150765000Y-77315000D02*
X150765000Y-59695000D01*
X144795000Y-77315000D02*
X150765000Y-77315000D01*
%TO.C,J3*%
X144795000Y-98905000D02*
X150765000Y-98905000D01*
X150765000Y-98905000D02*
X150765000Y-81285000D01*
X150765000Y-81285000D02*
X144795000Y-81285000D01*
X144795000Y-81285000D02*
X144795000Y-98905000D01*
X144805000Y-95595000D02*
X145555000Y-95595000D01*
X145555000Y-95595000D02*
X145555000Y-84595000D01*
X145555000Y-84595000D02*
X144805000Y-84595000D01*
X144805000Y-84595000D02*
X144805000Y-95595000D01*
X144805000Y-98895000D02*
X145555000Y-98895000D01*
X145555000Y-98895000D02*
X145555000Y-97095000D01*
X145555000Y-97095000D02*
X144805000Y-97095000D01*
X144805000Y-97095000D02*
X144805000Y-98895000D01*
X144805000Y-83095000D02*
X145555000Y-83095000D01*
X145555000Y-83095000D02*
X145555000Y-81295000D01*
X145555000Y-81295000D02*
X144805000Y-81295000D01*
X144805000Y-81295000D02*
X144805000Y-83095000D01*
X147055000Y-98895000D02*
X147055000Y-98145000D01*
X147055000Y-98145000D02*
X150005000Y-98145000D01*
X150005000Y-98145000D02*
X150005000Y-90095000D01*
X147055000Y-81295000D02*
X147055000Y-82045000D01*
X147055000Y-82045000D02*
X150005000Y-82045000D01*
X150005000Y-82045000D02*
X150005000Y-90095000D01*
X144505000Y-97945000D02*
X144505000Y-99195000D01*
X144505000Y-99195000D02*
X145755000Y-99195000D01*
%TO.C,J1*%
X139715000Y-55860000D02*
X139715000Y-47780000D01*
X139715000Y-47780000D02*
X143135000Y-47780000D01*
X143135000Y-47780000D02*
X143135000Y-48830000D01*
X143135000Y-48830000D02*
X149335000Y-48830000D01*
X149335000Y-48830000D02*
X149335000Y-54810000D01*
X149335000Y-54810000D02*
X143135000Y-54810000D01*
X143135000Y-54810000D02*
X143135000Y-55860000D01*
X143135000Y-55860000D02*
X139715000Y-55860000D01*
X149335000Y-54620000D02*
X150835000Y-54620000D01*
X150835000Y-54620000D02*
X150835000Y-52980000D01*
X150835000Y-52980000D02*
X149335000Y-52980000D01*
X149335000Y-50660000D02*
X150835000Y-50660000D01*
X150835000Y-50660000D02*
X150835000Y-49020000D01*
X150835000Y-49020000D02*
X149335000Y-49020000D01*
X134215000Y-53800000D02*
X134215000Y-55410000D01*
X134215000Y-55410000D02*
X135825000Y-55410000D01*
%TO.C,U1*%
X97040000Y-119920000D02*
X97040000Y-71600000D01*
X97040000Y-71600000D02*
X94380000Y-71600000D01*
X94380000Y-119920000D02*
X94380000Y-71600000D01*
X97040000Y-119920000D02*
X94380000Y-119920000D01*
X119900000Y-71600000D02*
X117240000Y-71600000D01*
X119900000Y-119920000D02*
X119900000Y-71600000D01*
X117240000Y-119920000D02*
X117240000Y-71600000D01*
X119900000Y-119920000D02*
X117240000Y-119920000D01*
%TO.C,U2*%
X128126500Y-99536500D02*
X130793500Y-99536500D01*
X130793500Y-99536500D02*
X130793500Y-119983500D01*
X130793500Y-119983500D02*
X128126500Y-119983500D01*
X128126500Y-119983500D02*
X128126500Y-99536500D01*
%TO.C,U3*%
D10*
X109447619Y-51738095D02*
X108638095Y-51738095D01*
X108542857Y-51785714D01*
X108495238Y-51833333D01*
X108447619Y-51928571D01*
X108447619Y-52119047D01*
X108495238Y-52214285D01*
X108542857Y-52261904D01*
X108638095Y-52309523D01*
X109447619Y-52309523D01*
X109447619Y-52690476D02*
X109447619Y-53309523D01*
X109066666Y-52976190D01*
X109066666Y-53119047D01*
X109019047Y-53214285D01*
X108971428Y-53261904D01*
X108876190Y-53309523D01*
X108638095Y-53309523D01*
X108542857Y-53261904D01*
X108495238Y-53214285D01*
X108447619Y-53119047D01*
X108447619Y-52833333D01*
X108495238Y-52738095D01*
X108542857Y-52690476D01*
%TO.C,J2*%
X143157380Y-68838333D02*
X143871666Y-68838333D01*
X144014523Y-68885952D01*
X144109761Y-68981190D01*
X144157380Y-69124047D01*
X144157380Y-69219285D01*
X143252619Y-68409761D02*
X143205000Y-68362142D01*
X143157380Y-68266904D01*
X143157380Y-68028809D01*
X143205000Y-67933571D01*
X143252619Y-67885952D01*
X143347857Y-67838333D01*
X143443095Y-67838333D01*
X143585952Y-67885952D01*
X144157380Y-68457380D01*
X144157380Y-67838333D01*
%TO.C,J3*%
X143157380Y-90428333D02*
X143871666Y-90428333D01*
X144014523Y-90475952D01*
X144109761Y-90571190D01*
X144157380Y-90714047D01*
X144157380Y-90809285D01*
X143157380Y-90047380D02*
X143157380Y-89428333D01*
X143538333Y-89761666D01*
X143538333Y-89618809D01*
X143585952Y-89523571D01*
X143633571Y-89475952D01*
X143728809Y-89428333D01*
X143966904Y-89428333D01*
X144062142Y-89475952D01*
X144109761Y-89523571D01*
X144157380Y-89618809D01*
X144157380Y-89904523D01*
X144109761Y-89999761D01*
X144062142Y-90047380D01*
%TO.C,J1*%
X132727380Y-52153333D02*
X133441666Y-52153333D01*
X133584523Y-52200952D01*
X133679761Y-52296190D01*
X133727380Y-52439047D01*
X133727380Y-52534285D01*
X133727380Y-51153333D02*
X133727380Y-51724761D01*
X133727380Y-51439047D02*
X132727380Y-51439047D01*
X132870238Y-51534285D01*
X132965476Y-51629523D01*
X133013095Y-51724761D01*
%TO.C,U1*%
X105108095Y-92702380D02*
X105108095Y-93511904D01*
X105155714Y-93607142D01*
X105203333Y-93654761D01*
X105298571Y-93702380D01*
X105489047Y-93702380D01*
X105584285Y-93654761D01*
X105631904Y-93607142D01*
X105679523Y-93511904D01*
X105679523Y-92702380D01*
X106679523Y-93702380D02*
X106108095Y-93702380D01*
X106393809Y-93702380D02*
X106393809Y-92702380D01*
X106298571Y-92845238D01*
X106203333Y-92940476D01*
X106108095Y-92988095D01*
%TO.C,U2*%
X135048095Y-109212380D02*
X135048095Y-110021904D01*
X135095714Y-110117142D01*
X135143333Y-110164761D01*
X135238571Y-110212380D01*
X135429047Y-110212380D01*
X135524285Y-110164761D01*
X135571904Y-110117142D01*
X135619523Y-110021904D01*
X135619523Y-109212380D01*
X136048095Y-109307619D02*
X136095714Y-109260000D01*
X136190952Y-109212380D01*
X136429047Y-109212380D01*
X136524285Y-109260000D01*
X136571904Y-109307619D01*
X136619523Y-109402857D01*
X136619523Y-109498095D01*
X136571904Y-109640952D01*
X136000476Y-110212380D01*
X136619523Y-110212380D01*
%TD*%
M02*
