%TF.GenerationSoftware,KiCad,Pcbnew,5.1.9*%
%TF.CreationDate,2021-05-07T09:39:52+08:00*%
%TF.ProjectId,control_board,636f6e74-726f-46c5-9f62-6f6172642e6b,rev?*%
%TF.SameCoordinates,Original*%
%TF.FileFunction,Soldermask,Bot*%
%TF.FilePolarity,Negative*%
%FSLAX46Y46*%
G04 Gerber Fmt 4.6, Leading zero omitted, Abs format (unit mm)*
G04 Created by KiCad (PCBNEW 5.1.9) date 2021-05-07 09:39:52*
%MOMM*%
%LPD*%
G01*
G04 APERTURE LIST*
%ADD10C,4.000000*%
%ADD11O,1.700000X1.700000*%
%ADD12O,1.950000X1.700000*%
%ADD13C,2.700000*%
%ADD14R,1.700000X1.700000*%
%ADD15O,3.000000X3.000000*%
G04 APERTURE END LIST*
D10*
%TO.C,REF\u002A\u002A*%
X89500000Y-119500000D03*
%TD*%
D11*
%TO.C,U3*%
X113490000Y-44990000D03*
X110950000Y-44990000D03*
X108410000Y-44990000D03*
X105870000Y-44990000D03*
X103330000Y-44990000D03*
X100790000Y-44990000D03*
X98250000Y-44990000D03*
X95710000Y-44990000D03*
X113490000Y-60230000D03*
X110950000Y-60230000D03*
X108410000Y-60230000D03*
X105870000Y-60230000D03*
X103330000Y-60230000D03*
X100790000Y-60230000D03*
X98250000Y-60230000D03*
X95710000Y-60230000D03*
%TD*%
D10*
%TO.C,REF\u002A\u002A*%
X150500000Y-119500000D03*
%TD*%
%TO.C,REF\u002A\u002A*%
X150500000Y-44500000D03*
%TD*%
%TO.C,REF\u002A\u002A*%
X89500000Y-44500000D03*
%TD*%
D12*
%TO.C,J2*%
X147255000Y-62255000D03*
X147255000Y-64755000D03*
X147255000Y-67255000D03*
X147255000Y-69755000D03*
X147255000Y-72255000D03*
G36*
G01*
X147980000Y-75605000D02*
X146530000Y-75605000D01*
G75*
G02*
X146280000Y-75355000I0J250000D01*
G01*
X146280000Y-74155000D01*
G75*
G02*
X146530000Y-73905000I250000J0D01*
G01*
X147980000Y-73905000D01*
G75*
G02*
X148230000Y-74155000I0J-250000D01*
G01*
X148230000Y-75355000D01*
G75*
G02*
X147980000Y-75605000I-250000J0D01*
G01*
G37*
%TD*%
%TO.C,J3*%
G36*
G01*
X147980000Y-97195000D02*
X146530000Y-97195000D01*
G75*
G02*
X146280000Y-96945000I0J250000D01*
G01*
X146280000Y-95745000D01*
G75*
G02*
X146530000Y-95495000I250000J0D01*
G01*
X147980000Y-95495000D01*
G75*
G02*
X148230000Y-95745000I0J-250000D01*
G01*
X148230000Y-96945000D01*
G75*
G02*
X147980000Y-97195000I-250000J0D01*
G01*
G37*
X147255000Y-93845000D03*
X147255000Y-91345000D03*
X147255000Y-88845000D03*
X147255000Y-86345000D03*
X147255000Y-83845000D03*
%TD*%
%TO.C,J1*%
G36*
G01*
X136924999Y-55150000D02*
X134725001Y-55150000D01*
G75*
G02*
X134475000Y-54899999I0J250001D01*
G01*
X134475000Y-52700001D01*
G75*
G02*
X134725001Y-52450000I250001J0D01*
G01*
X136924999Y-52450000D01*
G75*
G02*
X137175000Y-52700001I0J-250001D01*
G01*
X137175000Y-54899999D01*
G75*
G02*
X136924999Y-55150000I-250001J0D01*
G01*
G37*
D13*
X135825000Y-49840000D03*
%TD*%
D11*
%TO.C,U1*%
X118570000Y-70390000D03*
X118570000Y-72930000D03*
X118570000Y-75470000D03*
X118570000Y-78010000D03*
X118570000Y-80550000D03*
X118570000Y-83090000D03*
X118570000Y-85630000D03*
X118570000Y-88170000D03*
X118570000Y-90710000D03*
X118570000Y-93250000D03*
X118570000Y-95790000D03*
X118570000Y-98330000D03*
X118570000Y-100870000D03*
X118570000Y-103410000D03*
X118570000Y-105950000D03*
X118570000Y-108490000D03*
X118570000Y-111030000D03*
X118570000Y-113570000D03*
X118570000Y-116110000D03*
D14*
X118570000Y-118650000D03*
D11*
X95710000Y-108490000D03*
D14*
X95710000Y-118650000D03*
D11*
X95710000Y-103410000D03*
X95710000Y-90710000D03*
X95710000Y-78010000D03*
X95710000Y-105950000D03*
X95710000Y-83090000D03*
X95710000Y-116110000D03*
X95710000Y-88170000D03*
X95710000Y-80550000D03*
X95710000Y-95790000D03*
X95710000Y-98330000D03*
X95710000Y-72930000D03*
X95710000Y-111030000D03*
X95710000Y-100870000D03*
X95710000Y-85630000D03*
X95710000Y-70390000D03*
X95710000Y-113570000D03*
X95710000Y-75470000D03*
X95710000Y-93250000D03*
%TD*%
%TO.C,U2*%
X129460000Y-100870000D03*
X129460000Y-103410000D03*
X129460000Y-105950000D03*
X129460000Y-108490000D03*
X129460000Y-111030000D03*
X129460000Y-113570000D03*
X129460000Y-116110000D03*
X129460000Y-118650000D03*
D15*
X141460000Y-102140000D03*
X141460000Y-117380000D03*
%TD*%
M02*
